<svg width="188" height="139" viewBox="0 0 188 139" fill="none" xmlns="http://www.w3.org/2000/svg">
<g opacity="0.4" clip-path="url(#clip0_131_2844)">
<path d="M38.7836 24.4011C35.556 28.517 32.1212 32.9957 28.4791 37.8375C24.8371 42.6792 21.7718 47.64 19.2832 52.7199L38.6982 52.6637L38.7836 24.4011ZM56.9048 2.36684L56.7529 52.6114L65.9039 52.5849L65.8594 67.3201L56.7084 67.3466L56.6518 86.0675L38.597 86.1198L38.6536 67.3989L1.67855 67.506L1.71835 54.3409C3.54278 50.7928 5.82198 46.8005 8.55594 42.364C11.2902 37.847 14.3131 33.2486 17.6249 28.5689C21.0194 23.8084 24.5784 19.1683 28.3019 14.6484C32.0254 10.1285 35.7476 6.0515 39.4684 2.41734L56.9048 2.36684ZM135.596 43.8077C135.554 57.8987 132.759 68.7367 127.213 76.3215C121.749 83.8257 114.194 87.5917 104.548 87.6197C94.9027 87.6476 87.3294 83.9254 81.8284 76.453C76.4101 68.8999 73.7223 58.0778 73.7649 43.9868C73.7861 36.9815 74.5056 30.7795 75.9234 25.3806C77.4237 19.9814 79.5397 15.4259 82.2715 11.7141C85.0032 8.00232 88.2682 5.17469 92.0664 3.23122C95.8645 1.28775 100.113 0.309207 104.812 0.295595C114.458 0.267655 121.99 4.03026 127.408 11.5834C132.909 19.0558 135.639 29.7972 135.596 43.8077ZM116.799 43.8621C116.812 39.6751 116.617 35.8912 116.215 32.5106C115.814 29.0494 115.163 26.0721 114.264 23.5786C113.365 21.0851 112.134 19.1562 110.572 17.7919C109.009 16.4276 107.074 15.7488 104.766 15.7555C102.457 15.7621 100.518 16.4522 98.9473 17.8256C97.4592 19.1987 96.2167 21.1348 95.2199 23.6338C94.3055 26.1325 93.6369 29.1137 93.2142 32.5772C92.7918 35.9603 92.5743 39.7453 92.5616 43.9323C92.5489 48.1194 92.7435 51.9435 93.1452 55.4047C93.547 58.8658 94.1975 61.8432 95.0968 64.3367C96.0786 66.8299 97.3093 68.7588 98.7892 70.1234C100.351 71.4877 102.287 72.1665 104.595 72.1598C106.903 72.1531 108.843 71.4631 110.413 70.0897C111.984 68.7163 113.226 66.7802 114.141 64.2815C115.055 61.7828 115.724 58.8016 116.146 55.338C116.569 51.8745 116.787 48.0492 116.799 43.8621ZM179.353 23.9939C176.126 28.1098 172.691 32.5886 169.049 37.4303C165.407 42.272 162.341 47.2328 159.853 52.3127L179.268 52.2565L179.353 23.9939ZM197.474 1.95966L197.322 52.2042L206.473 52.1777L206.429 66.9129L197.278 66.9394L197.221 85.6603L179.167 85.7126L179.223 66.9917L142.248 67.0988L142.288 53.9337C144.112 50.3856 146.392 46.3933 149.125 41.9568C151.86 37.4398 154.883 32.8414 158.194 28.1617C161.589 23.4012 165.148 18.7611 168.871 14.2412C172.595 9.72133 176.317 5.64432 180.038 2.01017L197.474 1.95966Z" fill="#DFE2E5"/>
<path d="M7.36976 121.452C7.36471 123.125 7.54191 124.633 7.90138 125.977C8.29115 127.321 8.83294 128.484 9.52674 129.466C10.2509 130.415 11.1273 131.151 12.1557 131.673C13.1841 132.195 14.3648 132.454 15.6978 132.45C17.0005 132.446 18.1676 132.18 19.1992 131.652C20.2611 131.125 21.1419 130.384 21.8416 129.431C22.5716 128.444 23.1205 127.278 23.4881 125.932C23.886 124.586 24.0875 123.076 24.0925 121.403C24.0976 119.73 23.9052 118.222 23.5154 116.878C23.1561 115.501 22.6143 114.338 21.8901 113.389C21.1963 112.407 20.32 111.655 19.2613 111.133C18.2328 110.611 17.0673 110.352 15.7646 110.356C14.4316 110.36 13.2493 110.642 12.2176 111.203C11.186 111.731 10.3051 112.488 9.57509 113.474C8.87544 114.427 8.32661 115.593 7.92861 116.972C7.56101 118.318 7.37472 119.812 7.36976 121.452ZM31.4087 121.382C31.3999 124.302 30.9831 126.878 30.1584 129.111C29.3641 131.311 28.2679 133.168 26.8698 134.681C25.4717 136.161 23.8021 137.281 21.861 138.042C19.9501 138.802 17.889 139.185 15.6774 139.191C13.5265 139.197 11.4979 138.826 9.59159 138.077C7.6853 137.328 6.02245 136.218 4.60306 134.746C3.18377 133.241 2.06846 131.39 1.25715 129.195C0.445931 126.967 0.044737 124.393 0.0535645 121.473C0.0623919 118.553 0.494256 115.993 1.34916 113.793C2.20416 111.56 3.34587 109.687 4.77428 108.174C6.233 106.66 7.90264 105.524 9.7832 104.764C11.6941 104.004 13.6947 103.621 15.785 103.615C17.9359 103.609 19.9645 103.98 21.8708 104.729C23.7771 105.478 25.4399 106.605 26.8592 108.11C28.2785 109.615 29.3938 111.481 30.205 113.709C31.0163 115.905 31.4175 118.463 31.4087 121.382ZM76.3467 138.327L37.2663 138.44L37.3694 104.34L44.4584 104.319L44.375 131.924L53.2816 131.898L53.3651 104.293L60.4541 104.273L60.3706 131.878L69.2773 131.852L69.3608 104.247L76.4498 104.226L76.3467 138.327ZM83.5961 138.306L83.6992 104.205L90.7427 104.185L90.6819 124.31C91.7779 122.536 92.9498 120.695 94.1976 118.789C95.4455 116.85 96.6932 114.993 97.9407 113.218C99.2185 111.41 100.466 109.717 101.682 108.139C102.899 106.561 104.009 105.229 105.012 104.144L110.783 104.127L110.68 138.227L103.682 138.247L103.749 115.908C101.073 119.294 98.5476 122.894 96.1731 126.706C93.7986 130.518 91.5906 134.379 89.549 138.288L83.5961 138.306ZM124.798 110.582L124.782 116.191L127.098 116.184C129.431 116.178 131.506 116.368 133.322 116.757C135.169 117.145 136.712 117.78 137.952 118.662C139.221 119.544 140.187 120.69 140.849 122.098C141.512 123.507 141.84 125.228 141.834 127.262C141.822 131.035 140.541 133.86 137.991 135.737C135.471 137.581 131.863 138.51 127.167 138.524C125.895 138.528 124.442 138.45 122.806 138.29C121.201 138.131 119.581 137.841 117.946 137.419L118.047 104.106L138.95 104.045L138.93 110.541L124.798 110.582ZM127.551 131.978C128.49 131.976 129.384 131.907 130.232 131.774C131.081 131.64 131.824 131.408 132.461 131.078C133.129 130.716 133.66 130.238 134.056 129.647C134.451 129.055 134.651 128.284 134.654 127.332C134.656 126.348 134.477 125.545 134.115 124.923C133.754 124.301 133.24 123.81 132.575 123.451C131.91 123.092 131.092 122.848 130.123 122.72C129.154 122.592 128.064 122.529 126.852 122.533L124.762 122.539L124.734 131.888C125.067 131.92 125.46 131.952 125.915 131.983C126.399 131.982 126.945 131.98 127.551 131.978ZM166.086 138.067C165.453 136.953 164.699 135.758 163.824 134.481C162.98 133.171 162.045 131.878 161.019 130.602C160.023 129.293 158.982 128.049 157.895 126.871C156.808 125.661 155.72 124.598 154.632 123.682L154.589 138.1L147.5 138.12L147.603 104.02L154.692 104L154.653 116.892C156.507 114.787 158.362 112.6 160.217 110.331C162.102 108.03 163.85 105.909 165.462 103.968L173.869 103.944C171.709 106.706 169.535 109.369 167.346 111.934C165.188 114.499 162.908 117.081 160.507 119.68C163.014 121.936 165.43 124.619 167.753 127.728C170.106 130.838 172.353 134.276 174.493 138.042L166.086 138.067ZM200.802 137.966C200.473 136.786 200.098 135.573 199.677 134.328C199.287 133.083 198.897 131.837 198.507 130.592L186.238 130.627C185.84 131.875 185.427 133.123 184.999 134.371C184.602 135.618 184.235 136.833 183.898 138.015L176.536 138.036C177.729 134.359 178.86 130.96 179.93 127.841C180.999 124.721 182.038 121.782 183.046 119.024C184.085 116.265 185.092 113.654 186.069 111.191C187.077 108.695 188.114 106.265 189.181 103.9L195.952 103.88C196.975 106.239 197.983 108.664 198.975 111.154C199.967 113.611 200.959 116.216 201.95 118.969C202.972 121.722 204.008 124.655 205.059 127.768C206.11 130.881 207.221 134.273 208.391 137.944L200.802 137.966ZM192.384 111.616C192.231 112.108 192.002 112.782 191.697 113.635C191.391 114.489 191.04 115.474 190.643 116.591C190.245 117.707 189.802 118.939 189.314 120.285C188.855 121.631 188.381 123.043 187.892 124.521L196.844 124.495C196.364 123.02 195.899 121.611 195.448 120.267C194.998 118.924 194.562 117.695 194.142 116.581C193.751 115.466 193.406 114.483 193.105 113.631C192.805 112.779 192.565 112.107 192.384 111.616Z" fill="#DFE2E5"/>
</g>
<defs>
<clipPath id="clip0_131_2844">
<rect width="188" height="139" fill="white"/>
</clipPath>
</defs>
</svg>
