<svg width="401" height="340" viewBox="0 0 401 340" fill="none" xmlns="http://www.w3.org/2000/svg">
<path d="M186.682 48.0025C176.585 52.2015 165.737 56.8512 154.137 61.9516C142.537 67.052 131.842 72.9698 122.052 79.7051L156.796 99.7651L186.682 48.0025ZM242.236 26.3972L189.107 118.42L205.484 127.875L189.902 154.862L173.526 145.407L153.73 179.694L121.42 161.04L141.215 126.752L75.0451 88.549L88.966 64.4374C95.9581 59.8226 104.23 54.8652 113.781 49.5652C123.418 44.1178 133.656 38.8209 144.496 33.6748C155.569 28.4664 166.808 23.6495 178.216 19.2242C189.623 14.7989 200.562 11.1847 211.032 8.38156L242.236 26.3972ZM339.225 184.149C324.325 209.957 307.931 226.938 290.043 235.094C272.387 243.187 254.928 242.25 237.666 232.284C220.405 222.318 210.79 207.624 208.824 188.202C207.09 168.718 213.673 146.072 228.573 120.264C235.98 107.434 243.79 96.8028 252.003 88.3703C260.363 80.0229 268.936 73.8629 277.721 69.8901C286.507 65.9174 295.314 64.1205 304.144 64.4995C312.974 64.8784 321.594 67.4956 330.004 72.3508C347.266 82.3169 356.764 97.0421 358.498 116.526C360.464 135.948 354.04 158.489 339.225 184.149ZM305.587 164.728C310.014 157.06 313.647 149.916 316.486 143.296C319.409 136.529 321.379 130.391 322.396 124.882C323.412 119.374 323.242 114.557 321.887 110.431C320.531 106.306 317.787 103.05 313.656 100.665C309.525 98.2804 305.335 97.5322 301.084 98.4208C296.981 99.3945 292.724 101.656 288.315 105.206C284.052 108.84 279.722 113.615 275.323 119.531C271.009 125.299 266.639 132.017 262.211 139.685C257.784 147.354 254.108 154.572 251.185 161.339C248.261 168.106 246.291 174.244 245.275 179.753C244.406 185.346 244.575 190.163 245.784 194.204C247.139 198.329 249.883 201.584 254.014 203.969C258.145 206.354 262.336 207.103 266.586 206.214C270.837 205.325 275.093 203.064 279.356 199.429C283.618 195.795 287.949 191.02 292.348 185.104C296.746 179.189 301.159 172.397 305.587 164.728ZM438.243 193.242C428.147 197.441 417.299 202.09 405.699 207.191C394.098 212.291 383.403 218.209 373.613 224.944L408.358 245.004L438.243 193.242ZM493.798 171.636L440.669 263.659L457.045 273.114L441.464 300.101L425.088 290.646L405.292 324.933L372.981 306.279L392.777 271.992L326.607 233.788L340.528 209.677C347.52 205.062 355.792 200.104 365.343 194.804C374.98 189.357 385.218 184.06 396.058 178.914C407.13 173.706 418.37 168.889 429.777 164.463C441.184 160.038 452.123 156.424 462.594 153.621L493.798 171.636Z" fill="#DFE2E5"/>
<path d="M28.4606 193.428C26.6915 196.493 25.4212 199.444 24.6496 202.283C23.9322 205.153 23.6766 207.85 23.8829 210.372C24.1782 212.865 24.9699 215.125 26.2582 217.151C27.5466 219.176 29.3835 220.878 31.7689 222.255C34.1002 223.601 36.465 224.325 38.8633 224.428C41.3158 224.562 43.6686 224.118 45.9215 223.096C48.2633 222.045 50.4706 220.475 52.5433 218.387C54.6703 216.331 56.6184 213.771 58.3875 210.707C60.1565 207.643 61.3998 204.675 62.1172 201.805C62.9235 198.906 63.179 196.21 62.8838 193.716C62.6775 191.194 61.9031 188.904 60.5605 186.847C59.2722 184.822 57.4624 183.136 55.1312 181.79C52.7457 180.413 50.3365 179.703 47.9035 179.66C45.5051 179.557 43.1351 180.031 40.7933 181.082C38.5404 182.105 36.3331 183.674 34.1714 185.791C32.0986 187.878 30.195 190.424 28.4606 193.428ZM71.4804 218.266C68.3932 223.613 64.9383 227.907 61.1157 231.147C57.3821 234.359 53.4704 236.627 49.3809 237.951C45.326 239.214 41.1648 239.536 36.8972 238.914C32.6838 238.324 28.5983 236.886 24.6406 234.601C20.7913 232.379 17.5578 229.591 14.94 226.237C12.3223 222.883 10.5198 219.119 9.53267 214.944C8.58019 210.709 8.53409 206.157 9.39436 201.286C10.2893 196.355 12.2804 191.216 15.3676 185.869C18.4548 180.522 21.9195 176.274 25.7616 173.125C29.6384 169.916 33.6487 167.665 37.7925 166.372C41.9904 165.111 46.169 164.76 50.3282 165.319C54.5416 165.909 58.5187 167.284 62.2595 169.443C66.1088 171.666 69.3423 174.454 71.9601 177.808C74.5778 181.162 76.3629 184.956 77.3154 189.191C78.2679 193.426 78.2966 198.009 77.4017 202.939C76.5414 207.81 74.5677 212.919 71.4804 218.266ZM133.938 296.022L64.0006 255.644L100.059 193.189L112.745 200.514L83.5551 251.072L99.4944 260.275L128.684 209.716L141.371 217.041L112.181 267.599L128.12 276.802L157.31 226.243L169.996 233.568L133.938 296.022ZM146.912 303.512L182.97 241.058L195.575 248.336L174.294 285.195C178.119 283.078 182.149 280.918 186.383 278.717C190.653 276.456 194.835 274.344 198.931 272.383C203.116 270.394 207.125 268.583 210.959 266.951C214.793 265.319 218.176 264.028 221.11 263.079L231.438 269.041L195.38 331.496L182.857 324.265L206.479 283.35C198.135 286.784 189.837 290.765 181.584 295.293C173.332 299.821 165.325 304.611 157.565 309.663L146.912 303.512ZM249.688 295.439L243.756 305.713L247.902 308.107C252.077 310.517 255.582 313.022 258.419 315.621C261.31 318.251 263.399 321.019 264.685 323.925C266.025 326.861 266.546 329.966 266.247 333.238C265.948 336.51 264.724 340.009 262.573 343.734C258.584 350.643 253.324 354.495 246.792 355.291C240.35 356.057 232.927 354.015 224.524 349.163C222.247 347.848 219.732 346.196 216.978 344.206C214.278 342.246 211.69 340.031 209.213 337.56L244.439 276.547L281.846 298.144L274.978 310.04L249.688 295.439ZM232.095 337.552C233.775 338.523 235.444 339.326 237.101 339.962C238.758 340.598 240.329 340.944 241.814 341.001C243.388 341.029 244.84 340.705 246.169 340.031C247.498 339.356 248.666 338.148 249.672 336.405C250.713 334.603 251.237 332.943 251.246 331.426C251.254 329.909 250.853 328.476 250.042 327.126C249.23 325.777 248.027 324.481 246.431 323.239C244.835 321.997 242.952 320.75 240.784 319.498L237.044 317.339L227.158 334.462C227.719 334.866 228.388 335.333 229.167 335.862C230.034 336.363 231.01 336.926 232.095 337.552ZM294.534 388.742C294.575 386.042 294.486 383.067 294.267 379.816C294.136 376.536 293.825 373.193 293.335 369.785C292.933 366.349 292.381 362.986 291.678 359.696C291.01 356.347 290.185 353.267 289.205 350.458L273.96 376.864L261.273 369.539L297.331 307.085L310.018 314.409L296.385 338.021C301.912 336.085 307.526 333.999 313.227 331.763C319.016 329.498 324.371 327.423 329.291 325.537L344.336 334.223C337.573 337.047 330.887 339.676 324.278 342.109C317.723 344.572 310.934 346.941 303.91 349.215C306.017 355.958 307.509 363.389 308.389 371.507C309.322 379.656 309.719 388.297 309.579 397.428L294.534 388.742ZM356.663 424.612C357.315 422.105 357.921 419.491 358.48 416.769C359.093 414.079 359.707 411.389 360.32 408.699L338.363 396.022C336.34 397.899 334.29 399.759 332.213 401.604C330.19 403.48 328.256 405.328 326.411 407.146L313.236 399.54C319.236 394.032 324.832 388.971 330.025 384.359C335.218 379.747 340.166 375.434 344.868 371.42C349.626 367.438 354.172 363.694 358.509 360.19C362.934 356.656 367.344 353.275 371.739 350.044L383.857 357.04C383.202 362.43 382.452 367.925 381.605 373.524C380.792 379.063 379.823 384.872 378.699 390.952C377.628 397.063 376.394 403.52 374.996 410.324C373.599 417.127 372.014 424.503 370.244 432.453L356.663 424.612ZM369.344 367.527C368.553 368.272 367.435 369.269 365.991 370.518C364.547 371.767 362.883 373.209 360.999 374.845C359.115 376.481 357.028 378.28 354.738 380.243C352.503 382.237 350.171 384.335 347.742 386.538L363.763 395.787C364.457 392.583 365.108 389.514 365.717 386.581C366.326 383.648 366.84 380.941 367.261 378.46C367.735 376.011 368.153 373.848 368.512 371.973C368.872 370.098 369.149 368.616 369.344 367.527Z" fill="#DFE2E5"/>
</svg>
