<svg width="64" height="64" viewBox="0 0 64 64" fill="none" xmlns="http://www.w3.org/2000/svg">
<g clip-path="url(#clip0_1_2917)">
<path d="M35.6639 3.96768C35.0628 4.06956 34.2489 4.4318 33.6478 4.85065C32.6085 5.58645 31.4314 7.39767 30.7677 9.2768C30.2919 10.6126 30.1666 11.3031 30.0039 13.2162C29.7534 16.0689 28.9144 18.6498 27.2239 21.7176C26.2096 23.5741 25.0826 25.2495 23.9431 26.6305C23.3671 27.3097 23.0791 27.5361 22.1775 28.0116L21.1006 28.5662L21.1006 41.5617V54.5572L21.3886 54.659C21.5389 54.7156 22.1775 54.8741 22.7911 55.0213L23.9181 55.293H39.2577H54.5974L55.3112 55.0326C58.1913 53.9798 59.1805 50.3687 57.2145 48.0481C56.9766 47.7651 56.7888 47.5161 56.7888 47.4934C56.7888 47.4708 57.0017 47.4255 57.2646 47.3802C59.6564 47.0293 61.3969 44.6181 60.9587 42.2862C60.7834 41.3466 60.3326 40.4523 59.7315 39.8524C59.4685 39.592 59.2807 39.3656 59.3057 39.3543C59.3308 39.343 59.5562 39.2411 59.7941 39.1505C60.5454 38.8336 61.5097 37.9619 61.9229 37.2035C62.8871 35.4149 62.5991 33.5018 61.159 32.0868L60.6707 31.6L61.3469 31.3057C63.2127 30.4793 64.3021 28.453 63.9264 26.5173C63.5508 24.525 62.0606 23.1779 59.9193 22.8609C59.4059 22.793 55.3487 22.7477 49.1252 22.7477C43.628 22.7477 39.1325 22.7364 39.1325 22.7137C39.1325 22.6911 39.2703 22.2949 39.4456 21.8308C41.0735 17.5291 41.8498 11.122 41.0735 8.3712C40.7604 7.29579 39.984 5.8921 39.3204 5.22421C38.3561 4.262 36.8785 3.7526 35.6639 3.96768Z" fill="#2862AC"/>
<path d="M3.23072 24.5577C2.01607 24.7841 0.901597 25.5652 0.350621 26.5726L0 27.2179L0 41.7642L0 56.3105L0.350621 56.9558C0.763853 57.7142 1.47762 58.3255 2.4293 58.733L3.13054 59.0273H9.89252H16.6545L17.4935 58.6538C18.4452 58.2349 18.9961 57.7255 19.4595 56.8199L19.785 56.1973V41.7642L19.785 27.3311L19.4595 26.7085C18.9961 25.8029 18.4452 25.2935 17.4935 24.8746L16.6545 24.5011L10.2056 24.4784C6.6618 24.4671 3.51873 24.5124 3.23072 24.5577ZM11.295 31.2139C11.871 31.4856 12.5347 32.1308 12.7851 32.6629C12.998 33.127 13.0105 34.0552 12.8102 34.6439C12.6098 35.2665 11.8961 35.9796 11.1573 36.2853C10.0303 36.7607 8.82813 36.6022 7.87645 35.8438C7.07503 35.2099 6.7745 34.6325 6.7745 33.7269C6.7745 32.4478 7.63853 31.4176 9.07858 30.9988C9.57946 30.8516 10.744 30.9648 11.295 31.2139ZM10.8818 39.07C11.5705 39.2511 12.6349 40.2134 12.8227 40.8133C13.1358 41.8548 12.9354 42.8396 12.2592 43.5528C11.583 44.2659 10.9444 44.5263 9.89252 44.5263C8.89075 44.5263 8.27716 44.2999 7.62601 43.666C6.98737 43.066 6.7745 42.5906 6.7745 41.7642C6.7745 40.768 7.17521 40.0888 8.0768 39.4775C8.89075 38.9455 9.85495 38.7983 10.8818 39.07ZM10.8567 47.1073C11.4954 47.2771 12.4345 48.0355 12.7225 48.6129C13.261 49.6656 12.8728 51.1938 11.8835 51.9296C11.4077 52.2919 10.431 52.6315 9.89252 52.6315C9.2038 52.6315 8.3022 52.2692 7.70114 51.7485C6.64928 50.8316 6.46144 49.6203 7.16268 48.4204C7.8514 47.2771 9.41668 46.7111 10.8567 47.1073Z" fill="#2862AC"/>
<path d="M8.97836 32.2559C7.72614 32.9464 7.78875 34.6444 9.07854 35.2218C10.3057 35.7878 11.7082 34.984 11.7082 33.7275C11.7082 32.4483 10.1554 31.6107 8.97836 32.2559Z" fill="#2862AC"/>
<path d="M9.07912 40.2684C7.73925 40.8684 7.73925 42.657 9.07912 43.2569C10.3063 43.8229 11.7088 43.0192 11.7088 41.7627C11.7088 40.8457 10.8698 40.0647 9.89307 40.0647C9.69271 40.0647 9.31704 40.1552 9.07912 40.2684Z" fill="#2862AC"/>
<path d="M9.00428 48.3197C8.3406 48.682 8.07764 49.0895 8.07764 49.746C8.07764 50.8214 8.95419 51.5799 10.0561 51.4554C11.0704 51.3309 11.7091 50.6969 11.7091 49.78C11.7091 48.5235 10.1563 47.6858 9.00428 48.3197Z" fill="#2862AC"/>
</g>
<defs>
<clipPath id="clip0_1_2917">
<rect width="64" height="64" rx="12" transform="matrix(-1 0 0 1 64 0)" fill="white"/>
</clipPath>
</defs>
</svg>
