<svg width="64" height="64" viewBox="0 0 64 64" fill="none" xmlns="http://www.w3.org/2000/svg">
<path d="M3.36815 10.6762C2.16599 11.0011 1.30498 11.6997 0.736387 12.8044L0.249023 13.7628L0.249023 32.039L0.249023 50.3313L0.638914 51.1111C0.850105 51.5335 1.32122 52.1346 1.67862 52.4432C3.01075 53.5804 0.736387 53.5154 32.415 53.4667L61.007 53.418L61.6568 53.0606C62.4203 52.6544 63.2001 51.8584 63.6225 51.0624C63.9149 50.5263 63.9312 49.6815 63.9799 32.3151C64.0286 12.1383 64.0774 13.2592 62.9564 11.9596C62.6478 11.6022 62.0467 11.1311 61.6243 10.9199L60.8445 10.53L32.4962 10.4975C9.6064 10.4813 4.00172 10.5137 3.36815 10.6762ZM15.1623 14.9C15.8284 15.1762 16.5107 15.9722 16.7544 16.752C16.8681 17.1256 16.9006 18.539 16.8681 20.6184C16.8194 23.7863 16.8031 23.9 16.4132 24.4686C16.202 24.7935 15.7472 25.1996 15.4223 25.3783C14.8537 25.7032 14.5613 25.7195 10.0288 25.7195C5.04143 25.7195 4.63529 25.6707 3.93674 25.0209C3.12447 24.2574 3.02699 23.8675 2.96201 20.9596C2.86454 16.687 3.07573 15.8423 4.47284 15.0462C5.10641 14.6888 5.25262 14.6726 9.88257 14.6726C13.5378 14.6726 14.7562 14.7213 15.1623 14.9ZM5.04143 28.7249C5.675 29.0498 5.90244 29.9595 5.82121 31.7628C5.75623 32.9812 5.69125 33.2411 5.36634 33.5985C5.09017 33.8909 4.81399 34.0047 4.39161 34.0047C3.96923 34.0047 3.69306 33.8909 3.41688 33.5985C3.09198 33.2411 3.02699 32.9812 2.96201 31.7628C2.88079 29.992 3.10822 29.066 3.7093 28.7411C4.27789 28.4325 4.45659 28.4325 5.04143 28.7249ZM10.4837 28.6762C11.166 28.9848 11.3772 29.6021 11.3772 31.2104C11.3772 32.8025 11.1822 33.5985 10.7273 33.8422C10.2075 34.1184 9.39521 34.0209 8.98907 33.6473C8.63167 33.3224 8.61543 33.1761 8.61543 31.3404C8.63167 29.2447 8.7129 28.9523 9.44394 28.6599C9.9638 28.4487 9.99629 28.4487 10.4837 28.6762ZM16.4945 28.9848C16.7706 29.2447 16.8356 29.5697 16.8681 30.9343C16.9006 31.8278 16.8844 32.7375 16.8356 32.965C16.5594 34.0372 15.1298 34.4108 14.48 33.5823C14.1714 33.1924 14.1389 32.9325 14.1389 31.2429C14.1389 29.4884 14.1714 29.326 14.5125 29.0173C14.7075 28.8386 14.9836 28.6437 15.1136 28.5949C15.4872 28.4487 16.1371 28.6274 16.4945 28.9848ZM22.0667 29.0823C22.4241 29.4884 22.4403 29.6021 22.3916 31.4379C22.3428 33.2574 22.3103 33.4036 21.9529 33.696C21.4168 34.1346 20.5558 34.1021 20.0685 33.5985C19.6786 33.2249 19.6623 33.1112 19.6623 31.3729C19.6623 29.9433 19.7273 29.4397 19.9223 29.1635C20.4584 28.3837 21.4168 28.3512 22.0667 29.0823ZM27.5901 29.066C27.915 29.4397 27.9475 29.6346 27.9475 31.3404C27.9475 33.1112 27.9313 33.2249 27.5414 33.5985C27.2814 33.8747 26.9728 34.0047 26.5666 34.0047C26.1605 34.0047 25.8518 33.8747 25.5919 33.5985C25.202 33.2249 25.1858 33.1112 25.1858 31.3729C25.1858 29.9433 25.2508 29.4397 25.4457 29.1635C25.9818 28.3837 26.9403 28.3512 27.5901 29.066ZM38.637 29.0011C38.9619 29.326 38.9944 29.4884 38.9944 31.3079C38.9944 33.0787 38.9619 33.2899 38.637 33.631C38.2959 34.0047 37.5486 34.1184 36.9637 33.9072C36.4601 33.7122 36.2327 32.9487 36.2327 31.3404C36.2327 29.5534 36.3789 29.0823 36.9962 28.7411C37.5323 28.4325 38.1172 28.5299 38.637 29.0011ZM43.6893 28.6599C43.9655 28.7574 44.2742 28.9686 44.3554 29.131C44.4529 29.2935 44.5179 30.3007 44.5179 31.3404C44.5179 33.0787 44.4854 33.2899 44.1605 33.631C43.6568 34.1671 42.7471 34.1346 42.2272 33.5823C41.8861 33.2249 41.8374 32.9812 41.7724 31.6816C41.7074 29.9108 41.9186 29.066 42.5359 28.7411C43.072 28.4325 43.0558 28.4487 43.6893 28.6599ZM49.3915 28.7249C50.0413 29.066 50.2525 29.8621 50.1875 31.6816C50.1225 32.9812 50.0738 33.2249 49.7326 33.5823C49.229 34.1184 48.3518 34.1509 47.8157 33.6473C47.4583 33.3224 47.442 33.1761 47.442 31.3891C47.442 30.3332 47.4908 29.3585 47.5395 29.2123C47.637 28.9686 48.433 28.4975 48.7904 28.4812C48.8554 28.4812 49.1316 28.5949 49.3915 28.7249ZM54.8337 28.6762C55.5323 28.9848 55.7272 29.5859 55.7272 31.3242C55.7272 32.9487 55.516 33.696 54.9962 33.9072C54.4438 34.1184 53.7128 34.0047 53.3391 33.6473C52.9817 33.3224 52.9655 33.1761 52.9655 31.3242C52.9655 29.4884 52.998 29.326 53.3391 29.0173C53.664 28.7086 54.0052 28.5299 54.2976 28.4975C54.3626 28.4812 54.6063 28.5624 54.8337 28.6762ZM10.7273 37.0913C10.8898 37.1725 11.1172 37.4974 11.2147 37.8061C11.4584 38.5534 11.101 39.2519 10.3862 39.5119C9.70387 39.7393 4.6028 39.7555 3.92049 39.5119C3.64432 39.4144 3.33566 39.2032 3.25443 39.0407C2.97826 38.5209 3.07573 37.7086 3.44938 37.3025C3.79053 36.9288 3.85551 36.9288 7.1046 36.9288C8.98907 36.9288 10.5486 36.9938 10.7273 37.0913ZM21.888 37.1725C22.3753 37.5137 22.5378 38.4397 22.1966 38.9595C21.7742 39.5931 20.9945 39.7231 17.8428 39.6581C15.0649 39.6093 14.9674 39.5931 14.5613 39.2194C14.0414 38.7321 14.0089 37.9523 14.48 37.3512L14.8049 36.9288H18.184C20.9295 36.9288 21.5955 36.9776 21.888 37.1725ZM33.1298 37.3512C33.5847 37.9198 33.5522 38.6021 33.0811 39.1545L32.6912 39.6093H29.3284H25.9656L25.5757 39.1545C25.0721 38.5534 25.0721 37.8386 25.5919 37.335C25.9818 36.9288 25.9818 36.9288 29.3933 36.9288H32.8049L33.1298 37.3512ZM10.8411 42.8097C11.5396 43.5895 11.4096 44.5317 10.5486 44.9866C9.88257 45.3277 4.40786 45.3115 3.74179 44.9703C2.96201 44.5642 2.83205 43.492 3.46562 42.8097C3.79053 42.4685 3.888 42.4523 7.15334 42.4523C10.4187 42.4523 10.5161 42.4685 10.8411 42.8097ZM21.9367 42.7772C22.3916 43.2321 22.5215 43.8981 22.2454 44.3855C21.823 45.1328 21.4331 45.214 18.1677 45.214C15.1461 45.214 15.1298 45.214 14.6425 44.7916C13.9927 44.2555 13.9439 43.4433 14.545 42.8584C14.9349 42.4523 14.9511 42.4523 18.2815 42.4523C21.3843 42.4523 21.628 42.4685 21.9367 42.7772Z" fill="#2862AC"/>
<path d="M5.854 20.1953V22.957H9.99659H14.1392V20.1953V17.4336H9.99659H5.854V20.1953Z" fill="#2862AC"/>
</svg>
