<svg width="160" height="160" viewBox="0 0 160 160" fill="none" xmlns="http://www.w3.org/2000/svg">
<g clip-path="url(#clip0_1_4368)">
<path d="M80.1684 5.98985C76.192 4.93361 72.5745 5.50999 69.1228 7.73149L66.145 9.66883L35.9542 61.9608L5.73653 114.299L5.56395 117.174C5.47047 118.732 5.8255 121.23 6.33821 122.704C8.27118 128.158 1.87108 124.215 92.591 176.406L174.479 223.498L176.929 223.549C179.785 223.649 183.331 222.659 185.854 221.079C187.577 220.028 189.019 217.638 217.846 168.03C251.316 110.38 249.604 113.668 248.543 108.097C248.251 106.565 247.309 104.224 246.449 102.922L244.862 100.518L163.805 53.596C98.3394 15.7372 82.2495 6.57165 80.1684 5.98985ZM106.937 37.5582C108.386 39.4487 109.023 42.8534 108.433 45.4871C108.141 46.744 105.899 50.8416 102.371 56.7376C96.9984 65.7211 96.7641 66.0196 94.7092 67.0024C93.5682 67.5832 91.5958 67.9938 90.371 67.9684C88.2074 67.9587 87.3439 67.5222 74.3755 60.0348C60.1056 51.7961 59.0241 50.9858 58.0988 47.9725C57.036 44.4461 57.4012 43.1695 62.019 34.7419C68.798 22.3562 70.7978 20.288 76.1102 20.3183C78.5134 20.3423 78.9585 20.5374 92.2058 28.1857C102.664 34.2239 106.07 36.376 106.937 37.5582ZM55.1409 60.3952C56.417 62.3715 55.5649 65.3502 52.3536 70.3755C50.155 73.7543 49.5397 74.3906 48.0196 74.8765C46.7464 75.257 45.7684 75.1261 44.5598 74.4284C43.3513 73.7306 42.749 72.949 42.4418 71.6561C42.1026 70.0968 42.346 69.2458 44.1728 65.6523C46.8656 60.4516 49.046 58.1778 51.3025 58.2411C53.4393 58.2973 53.9506 58.5925 55.1409 60.3952ZM70.7928 69.2459C72.2351 71.2562 71.8196 73.3714 69.1628 77.9731C66.5329 82.5283 64.6601 84.4839 62.9561 84.4297C61.0125 84.3611 58.8494 82.7404 58.3046 81.0004C57.8187 79.4804 58.0137 79.0352 61.0462 73.7828C64.5546 67.8135 65.2701 67.111 67.8448 67.4819C69.6811 67.7364 69.774 67.7901 70.7928 69.2459ZM87.4812 80.0585C87.842 81.2584 87.4912 82.2954 85.3299 86.2536C83.9469 88.8637 82.3975 91.4399 81.8824 92.0101C79.321 94.6217 74.6134 93.3292 74.1228 89.8852C73.8837 88.2597 74.2201 87.4623 77.0111 82.6282C79.9094 77.6082 80.2707 77.197 81.7567 76.8775C82.6097 76.6882 83.7219 76.5866 84.1743 76.6619C85.4849 76.8608 87.049 78.4455 87.4812 80.0585ZM103.263 89.5422C103.615 91.2947 103.474 91.6469 100.302 96.8188C97.1567 101.944 96.8222 102.309 95.3165 102.555C93.058 102.925 90.6482 101.409 90.0856 99.1633C89.5873 97.4502 89.7287 97.098 92.6002 92.1244C94.9618 88.034 95.9796 86.7004 96.9936 86.2323C99.8157 84.8867 102.612 86.3771 103.263 89.5422ZM119.094 98.6201C119.406 100.226 119.177 100.837 116.36 105.718C113.434 110.784 113.2 111.083 111.467 111.508C110.267 111.869 109.17 111.731 108.007 111.06C106.845 110.389 106.177 109.507 105.889 108.288C105.391 106.574 105.533 106.222 108.404 101.249C110.766 97.1583 111.783 95.8248 112.797 95.3566C115.619 94.0111 118.416 95.5014 119.094 98.6201ZM150.809 116.683C151.202 118.149 151.026 118.668 148.021 123.874C145.096 128.94 144.654 129.491 143.161 129.93C141.567 130.436 139.241 129.527 137.917 127.956C136.798 126.566 137.408 124.006 140.065 119.404C143.017 114.291 144.214 113.185 146.544 113.229C148.587 113.231 150.1 114.476 150.809 116.683ZM165.828 124.053C166.458 124.788 166.992 125.902 166.956 126.501C166.966 127.127 165.488 130.116 163.771 133.091C160.899 138.064 160.458 138.615 158.964 139.054C156.638 139.756 154.089 138.161 153.514 135.721C153.128 134.135 153.391 133.358 155.352 129.532C158.091 124.358 160.091 122.29 162.394 122.38C164.438 122.382 164.364 122.402 165.828 124.053ZM182.036 133.658C183.332 135.708 182.621 138.334 179.43 143.433C177.097 147.044 176.555 147.661 174.988 148.12C172.662 148.822 170.098 147.466 169.396 145.139C168.91 143.619 169.105 143.174 172.057 138.061C173.802 135.04 175.551 132.331 175.932 131.993C176.614 131.457 179.669 131.424 180.719 131.968C180.905 132.075 181.507 132.857 182.036 133.658ZM197.688 142.509C199.177 144.546 198.742 146.588 195.87 151.561C193.187 156.21 191.348 157.999 189.512 157.744C187.582 157.436 185.678 155.903 185.2 154.263C184.714 152.743 184.909 152.298 187.968 146.999C191.001 141.747 191.362 141.336 192.848 141.016C194.288 140.67 195.559 140.722 196.449 141.112C196.662 141.173 197.225 141.808 197.688 142.509ZM57.5888 93.726C57.9195 94.2268 58.0335 95.5322 57.8025 96.5763C57.2652 99.117 55.0887 100.525 52.6141 100.088C50.2862 99.6119 35.6641 91.2318 34.1144 89.4074C33.4852 88.6723 32.9509 87.5582 32.9869 86.9592C33.0554 85.0155 34.6761 82.8525 36.4161 82.3077C38.0095 81.8021 38.1954 81.9095 47.4918 87.2767C52.8836 90.3897 57.2386 93.152 57.5888 93.726ZM89.3876 112.395C90.2185 114.176 89.1537 117.094 87.3188 118.018C85.0637 119.133 82.6178 118.217 73.7077 112.824C65.8398 108.096 65.5878 107.889 65.043 106.149C64.3607 103.895 65.5558 101.611 67.8967 100.669L69.5241 99.9971L79.1923 105.579C87.0477 110.114 88.873 111.354 89.3876 112.395ZM121.258 131.477C121.62 133.855 120.4 135.754 118.14 136.556L116.273 137.213L106.651 131.658L97.0291 126.103L96.665 124.158C96.217 121.606 97.3978 119.561 99.7171 118.978C101.504 118.46 101.504 118.46 111.265 124.096L121.026 129.732L121.258 131.477ZM48.4678 110.275C49.1784 113.661 47.2501 116.142 44.0351 116.021C41.5658 115.897 25.9283 106.807 24.5861 104.73C23.0259 102.28 24.4252 98.9974 27.3651 98.0918C28.8583 97.6524 29.164 97.767 38.5069 103.161C47.8497 108.555 48.1018 108.763 48.4678 110.275ZM80.2686 128.512C80.8186 130.565 80.0902 132.685 78.4949 133.623C76.0519 135.064 74.8022 134.652 65.4594 129.258C56.8137 124.266 56.7673 124.24 56.0705 122.226C55.0969 119.619 56.2992 117.214 58.9852 116.534C60.7716 116.016 60.8181 116.042 70.3469 121.544C79.2249 126.67 79.8953 127.119 80.2686 128.512Z" fill="#2862AC"/>
<path d="M71.5539 37.3364L66.9917 45.2383L78.8446 52.0815L90.6974 58.9248L95.2596 51.0229L99.8217 43.121L87.9689 36.2777L76.116 29.4345L71.5539 37.3364Z" fill="#2862AC"/>
</g>
<defs>
<clipPath id="clip0_1_4368">
<rect width="160" height="160" rx="12" fill="white"/>
</clipPath>
</defs>
</svg>
