<svg width="124" height="161" viewBox="0 0 124 161" fill="none" xmlns="http://www.w3.org/2000/svg">
<g clip-path="url(#clip0_1_4358)">
<path d="M117.32 10.5479C116.74 10.6942 114.567 11.6197 112.511 12.6103C110.463 13.5696 108.601 14.3438 108.412 14.2931C108.191 14.234 106.492 13.0082 104.615 11.5669C98.8974 7.18648 97.868 7.24576 92.7166 12.0983C88.7764 15.8344 89.9338 15.6754 83.2661 13.4532C79.7 12.2631 79.3134 12.193 78.2086 12.5337C76.1503 13.155 75.9321 13.4651 71.4263 21.7076C71.1411 22.2679 70.4836 22.3263 66.5696 22.1823C61.5401 22.041 60.0719 22.3513 58.7119 23.8969C57.8828 24.8476 57.7424 25.2456 57.0754 29.1216C56.653 31.4547 56.2493 33.5917 56.1739 33.873C56.0901 34.1857 54.347 34.8915 51.415 35.7478C44.4146 37.7927 43.953 38.5068 45.0054 45.9264L45.6415 50.4866L41.734 53.0922C35.5568 57.2342 35.3306 58.0784 38.5693 64.7769C40.2192 68.2014 40.5224 69.0869 40.1909 69.5677C39.9727 69.8779 38.6736 71.5739 37.3264 73.324C35.253 76.0189 34.8628 76.7186 34.6139 78.0258C34.2984 80.0859 34.8538 81.039 38.546 84.9102C40.1902 86.5906 41.5695 87.999 41.5843 88.07C41.639 88.1181 40.9999 90.125 40.1258 92.5046C39.2832 94.8926 38.5751 97.2831 38.5357 97.8087C38.5193 98.374 38.8521 99.4014 39.2603 100.147C39.9629 101.308 40.4948 101.718 44.1371 103.632C46.3817 104.837 48.326 106.028 48.4481 106.329C48.5786 106.598 48.6034 108.649 48.5065 110.902C48.355 115.754 48.6671 117.111 50.3089 118.422C51.4273 119.291 51.8286 119.432 55.1505 120.021C61.3929 121.057 60.8212 120.669 61.9843 124.901C63.179 129.142 63.76 130.504 64.8532 131.467C66.1252 132.646 67.579 132.767 72.4062 132.151L77.0507 131.586L77.7174 132.502C78.0897 133.003 79.3684 134.787 80.5064 136.466C82.7212 139.673 83.8395 140.542 85.8165 140.603C87.0497 140.665 87.3521 140.545 92.4992 138.104L95.7816 136.571L99.5129 139.414C105.544 144.012 106.367 143.965 112.132 138.338C115.287 135.263 114.629 135.321 120.467 137.489C124.361 138.968 126.109 139.001 127.702 137.719C128.183 137.311 129.56 135.2 130.787 133.016C131.974 130.854 133.078 129.005 133.197 128.937C133.325 128.837 135.493 128.815 138.008 128.886C143.006 129.018 144.229 128.743 145.509 127.243C146.29 126.346 146.432 125.815 147.225 121.47C147.722 118.855 148.174 116.664 148.246 116.65C148.286 116.627 150.193 116.066 152.425 115.424C157.542 113.98 158.548 113.378 159.304 111.437C159.743 110.18 159.754 109.379 159.306 106.008C159.015 103.819 158.738 101.701 158.704 101.323C158.657 100.741 159.362 100.126 162.503 97.985C168.657 93.8032 168.884 92.9591 165.605 86.2834L163.524 82.0731L166.355 78.4419C170.976 72.5425 170.942 71.6621 165.902 66.3909C163.814 64.223 162.626 62.7318 162.709 62.4191C162.793 62.1065 163.504 60.0852 164.304 57.8535C165.665 54.1633 165.742 53.7484 165.499 52.5106C165.094 50.492 163.955 49.4494 159.552 47.0968C156.09 45.2645 155.558 44.8539 155.583 44.2573C155.802 34.8663 155.768 34.4886 154.296 32.9213C153.51 32.0739 153.14 31.9413 149.457 31.1889C142.571 29.7796 143.494 30.496 141.95 25.2903C139.915 18.5122 139.021 17.9377 131.974 18.8977C129.659 19.2157 127.575 19.4281 127.323 19.3605C127.103 19.3014 125.845 17.691 124.537 15.7655C123.228 13.84 121.84 11.9601 121.403 11.5748C120.396 10.6683 118.685 10.2435 117.32 10.5479ZM132.666 53.1292C133.73 53.9504 142.902 69.1418 144.464 72.6432C145.184 74.2435 145.224 74.7234 144.872 76.0366C144.637 76.912 144.163 77.9243 143.786 78.3257C143.408 78.7271 131.197 85.8434 116.643 94.1413C93.2806 107.451 90.0741 109.206 88.9522 109.106C85.91 108.861 86.3832 109.49 74.7492 89.6178C68.8397 79.5228 63.906 70.8287 63.7796 70.2921C63.5054 69.0458 64.0583 66.9823 64.9189 66.0401C65.2967 65.6387 70.0863 62.7668 75.5438 59.6718C89.0605 51.9672 88.0898 51.8076 94.2223 62.331L98.3416 69.3995L113.414 60.805C121.681 56.05 128.844 52.1386 129.327 52.1005C130.579 51.9668 131.516 52.2514 132.666 53.1292Z" fill="#2862AC"/>
<path d="M113.168 72.0617C105.149 76.6484 98.1687 80.5083 97.6289 80.6318C96.4779 80.893 94.2946 80.3415 93.4747 79.6192C93.1468 79.3302 91.06 76.0233 88.8531 72.282L84.8727 65.4518L79.997 68.267L75.098 71.0426L82.8505 84.3457L90.6031 97.6488L112.028 85.3947L133.492 73.1177L130.785 68.4716C129.28 65.8904 127.991 63.7688 127.896 63.7435C127.802 63.7181 121.187 67.4749 113.168 72.0617Z" fill="#2862AC"/>
<path d="M17.6426 106.819C11.5699 110.319 6.27644 113.558 5.84197 114.045C4.38536 115.699 4.27214 118.517 5.64946 120.059C6.01533 120.458 10.3687 123.501 15.3356 126.776L24.4161 132.727L25.0783 143.494C25.4572 149.393 25.9405 154.649 26.1069 155.163C26.7661 157.116 29.286 158.428 31.46 158.005C32.4998 157.781 61.4441 141.543 61.5614 141.106C61.5865 141.012 61.0631 140.57 60.3968 140.157C57.2292 138.236 55.265 135.732 54.0225 132.048L53.1275 129.463L50.957 129.116C43.9729 127.948 38.8252 121.945 38.7248 114.881C38.6908 111.856 38.6908 111.856 36.7381 110.696C33.1377 108.625 30.5953 105.632 29.5148 102.226C29.2515 101.317 28.9462 100.565 28.8517 100.54C28.7571 100.515 23.707 103.35 17.6426 106.819Z" fill="#2862AC"/>
<path d="M151.982 134.605C149.421 137.102 145.609 138.594 141.637 138.669C140.244 138.698 138.912 138.877 138.759 139.071C138.566 139.287 137.926 140.289 137.317 141.298C133.699 147.366 126.239 149.991 119.606 147.51L117.553 146.726L115.485 148.517C112.567 151.086 109.615 152.272 105.942 152.361C105.127 152.377 104.453 152.498 104.428 152.592C104.311 153.029 121.258 181.564 122.047 182.277C123.718 183.731 126.557 183.854 128.104 182.493C128.505 182.131 131.551 177.821 134.829 172.902L140.786 163.909L151.625 163.295C157.564 162.942 162.856 162.484 163.372 162.32C165.336 161.674 166.647 159.177 166.213 157.016C165.983 155.983 153.448 133.926 153.038 133.816C152.944 133.79 152.471 134.166 151.982 134.605Z" fill="#2862AC"/>
</g>
<defs>
<clipPath id="clip0_1_4358">
<rect width="124" height="161" rx="12" fill="white"/>
</clipPath>
</defs>
</svg>
