<svg width="738" height="329" viewBox="0 0 738 329" fill="none" xmlns="http://www.w3.org/2000/svg">
<path fill-rule="evenodd" clip-rule="evenodd" d="M598 0C590.268 0 584 6.26801 584 14V82.4417C584 89.3121 575.834 93.069 570.407 88.8561C517.37 47.6854 451.855 25 384 25C314.066 25 246.617 49.0968 192.753 92.6923C187.348 97.0671 179 93.3334 179 86.3795V40C179 32.268 172.732 26 165 26H14C6.26801 26 0 32.268 0 40V244C0 251.732 6.26801 258 14 258H78.257C83.4311 258 87.2408 262.838 86.2009 267.906C82.6353 285.285 80.5772 303.047 80.1051 321.001C79.989 325.417 83.5817 329 88 329L384 329H680C684.418 329 688.011 325.417 687.895 321C686.657 273.942 674.524 228.208 652.909 187.211C650.024 181.74 653.901 175 660.086 175H724C731.732 175 738 168.732 738 161V14C738 6.26801 731.732 0 724 0H598Z" fill="#2862AC"/>
</svg>
