<svg width="8" height="6" viewBox="0 0 8 6" fill="none" xmlns="http://www.w3.org/2000/svg">
<path d="M3.75078 5.15098L0.0950727 1.31238C0.0340447 1.24834 0 1.16324 0 1.07476C0 0.986265 0.0340447 0.901172 0.0950727 0.837125L0.0992031 0.832992C0.128789 0.801836 0.1644 0.777023 0.203871 0.76007C0.243343 0.743117 0.285848 0.734375 0.328804 0.734375C0.371759 0.734375 0.414265 0.743117 0.453736 0.76007C0.493208 0.777023 0.528819 0.801836 0.558404 0.832992L4.00069 4.44773L7.44159 0.832992C7.47118 0.801836 7.50679 0.777023 7.54627 0.76007C7.58573 0.743117 7.62824 0.734375 7.6712 0.734375C7.71415 0.734375 7.75666 0.743117 7.79612 0.76007C7.83563 0.777023 7.87117 0.801836 7.90078 0.832992L7.90492 0.837125C7.96594 0.901172 8 0.986265 8 1.07476C8 1.16324 7.96594 1.24834 7.90492 1.31238L4.24922 5.15098C4.21707 5.18474 4.17841 5.21162 4.13557 5.22998C4.09273 5.24834 4.04661 5.25781 4 5.25781C3.95339 5.25781 3.90727 5.24834 3.86443 5.22998C3.82159 5.21162 3.78293 5.18474 3.75078 5.15098Z" fill="#858585"/>
</svg>
