<svg width="8" height="8" viewBox="0 0 8 8" fill="none" xmlns="http://www.w3.org/2000/svg">
<path d="M3.75078 6.15098L0.0950727 2.31238C0.0340447 2.24834 0 2.16324 0 2.07476C0 1.98627 0.0340447 1.90117 0.0950727 1.83712L0.0992031 1.83299C0.128789 1.80184 0.1644 1.77702 0.203871 1.76007C0.243343 1.74312 0.285848 1.73438 0.328804 1.73438C0.371759 1.73438 0.414265 1.74312 0.453736 1.76007C0.493208 1.77702 0.528819 1.80184 0.558404 1.83299L4.00069 5.44773L7.44159 1.83299C7.47118 1.80184 7.50679 1.77702 7.54627 1.76007C7.58573 1.74312 7.62824 1.73438 7.6712 1.73438C7.71415 1.73438 7.75666 1.74312 7.79612 1.76007C7.83563 1.77702 7.87117 1.80184 7.90078 1.83299L7.90492 1.83712C7.96594 1.90117 8 1.98627 8 2.07476C8 2.16324 7.96594 2.24834 7.90492 2.31238L4.24922 6.15098C4.21707 6.18474 4.17841 6.21162 4.13557 6.22998C4.09273 6.24834 4.04661 6.25781 4 6.25781C3.95339 6.25781 3.90727 6.24834 3.86443 6.22998C3.82159 6.21162 3.78293 6.18474 3.75078 6.15098Z" fill="#0E0E0E"/>
</svg>
