<svg width="16" height="16" viewBox="0 0 16 16" fill="none" xmlns="http://www.w3.org/2000/svg">
<g clip-path="url(#clip0_131_1562)">
<path d="M15.6852 12.5716L9.47323 1.52557C9.318 1.25495 9.09639 1.03056 8.83037 0.87465C8.56435 0.718739 8.26315 0.636719 7.95664 0.636719C7.65012 0.636719 7.34893 0.718739 7.08291 0.87465C6.81689 1.03056 6.59528 1.25495 6.44005 1.52557L0.228073 12.5716C0.0787125 12.8334 0 13.1311 0 13.4343C0 13.7374 0.0787125 14.0351 0.228073 14.2969C0.381316 14.5691 0.602546 14.7947 0.869061 14.9506C1.13558 15.1064 1.43778 15.1868 1.74466 15.1835H14.1686C14.4753 15.1865 14.7772 15.106 15.0434 14.9502C15.3097 14.7944 15.5307 14.5689 15.6838 14.2969C15.8334 14.0352 15.9123 13.7376 15.9126 13.4345C15.9128 13.1313 15.8343 12.8335 15.6852 12.5716ZM14.7 13.7143C14.6458 13.8089 14.5681 13.887 14.4747 13.9407C14.3813 13.9944 14.2757 14.0217 14.1686 14.0198H1.74466C1.6376 14.0217 1.53196 13.9944 1.43859 13.9407C1.34522 13.887 1.26748 13.8089 1.21332 13.7143C1.16427 13.6292 1.13839 13.5323 1.13839 13.4335C1.13839 13.3348 1.16427 13.2378 1.21332 13.1528L7.4253 2.10671C7.48055 2.01258 7.55865 1.93468 7.652 1.8806C7.74536 1.82652 7.8508 1.7981 7.95806 1.7981C8.06532 1.7981 8.17076 1.82652 8.26411 1.8806C8.35747 1.93468 8.43557 2.01258 8.49082 2.10671L14.7028 13.1528C14.7514 13.2381 14.7768 13.3352 14.7763 13.4339C14.7758 13.5327 14.7494 13.6295 14.7 13.7143ZM7.38836 9.36481V6.45546C7.38836 6.30114 7.44823 6.15314 7.55481 6.04402C7.66138 5.93489 7.80592 5.87359 7.95664 5.87359C8.10736 5.87359 8.2519 5.93489 8.35847 6.04402C8.46504 6.15314 8.52491 6.30114 8.52491 6.45546V9.36481C8.52491 9.51913 8.46504 9.66713 8.35847 9.77625C8.2519 9.88537 8.10736 9.94667 7.95664 9.94667C7.80592 9.94667 7.66138 9.88537 7.55481 9.77625C7.44823 9.66713 7.38836 9.51913 7.38836 9.36481ZM8.80905 11.9832C8.80905 12.1558 8.75906 12.3246 8.6654 12.4681C8.57173 12.6117 8.4386 12.7235 8.28284 12.7896C8.12708 12.8556 7.95569 12.8729 7.79034 12.8392C7.62499 12.8056 7.4731 12.7224 7.35389 12.6004C7.23468 12.4783 7.15349 12.3228 7.1206 12.1535C7.08771 11.9842 7.10459 11.8087 7.16911 11.6492C7.23363 11.4897 7.34288 11.3534 7.48306 11.2575C7.62324 11.1616 7.78805 11.1104 7.95664 11.1104C8.18271 11.1104 8.39953 11.2024 8.55939 11.3661C8.71925 11.5297 8.80905 11.7517 8.80905 11.9832Z" fill="#D92A2A"/>
</g>
<defs>
<clipPath id="clip0_131_1562">
<rect width="16" height="16" fill="white"/>
</clipPath>
</defs>
</svg>
