<svg width="158" height="160" viewBox="0 0 158 160" fill="none" xmlns="http://www.w3.org/2000/svg">
<g clip-path="url(#clip0_23_2817)">
<path d="M37.4316 188.569C68.5443 219.681 119.456 219.681 150.569 188.569C181.681 157.456 181.681 106.544 150.569 75.4315L149.356 74.2193L143.296 68.9665L139.659 75.0274C138.447 77.0477 136.831 79.4721 135.214 81.0883C123.901 92.402 106.122 92.402 94.8082 81.0883C90.7676 77.0477 87.9392 71.7949 86.727 65.734L75.4133 66.5421C75.4133 69.7746 74.2011 72.603 72.1808 74.6234C66.928 79.8761 57.2306 79.068 53.594 71.3909L50.7656 64.5218L44.7047 68.9665C41.8762 70.9868 39.4519 73.4112 37.4316 75.4315C6.31888 106.544 6.31889 157.456 37.4316 188.569ZM145.316 86.3411C169.155 113.413 168.347 154.627 142.487 180.487C115.819 207.155 72.1808 207.155 45.5128 180.487C18.8448 153.819 18.8448 110.181 45.5128 83.5127L47.129 81.8965C56.0184 91.5939 70.9686 91.998 80.262 82.7046L81.0702 81.8964C82.6864 84.3208 84.3026 86.7452 86.727 89.1695C102.485 104.928 127.537 104.928 143.296 89.1695C144.104 88.3614 144.912 87.5533 145.316 86.3411Z" fill="#2862AC"/>
<path d="M145.316 86.3411C169.155 113.413 168.347 154.627 142.487 180.487C115.819 207.155 72.1808 207.155 45.5128 180.487C18.8448 153.819 18.8448 110.181 45.5128 83.5127L47.129 81.8965C56.0184 91.5939 70.9686 91.998 80.262 82.7046L81.0702 81.8964C82.6864 84.3208 84.3026 86.7452 86.727 89.1695C102.485 104.928 127.537 104.928 143.296 89.1695C144.104 88.3614 144.912 87.5533 145.316 86.3411Z" fill="#2862AC"/>
<path d="M41.4722 127.959C37.009 123.496 37.009 116.26 41.4722 111.797C45.9353 107.334 53.1715 107.334 57.6346 111.797C62.0977 116.26 62.0977 123.496 57.6346 127.959C53.1715 132.423 45.9353 132.423 41.4722 127.959Z" fill="white"/>
<path d="M122.284 127.959C117.821 123.496 117.821 116.26 122.284 111.797C126.747 107.334 133.983 107.334 138.447 111.797C142.91 116.26 142.91 123.496 138.447 127.959C133.983 132.423 126.747 132.423 122.284 127.959Z" fill="white"/>
<path d="M102.081 140.081C99.8497 137.85 99.8497 134.232 102.081 132C104.313 129.768 107.931 129.768 110.163 132C112.394 134.232 112.394 137.85 110.163 140.081C107.931 142.313 104.313 142.313 102.081 140.081Z" fill="white"/>
<path d="M102.082 67.3503C97.6184 62.8871 97.6184 55.651 102.082 51.1878C106.545 46.7247 113.781 46.7247 118.244 51.1878C122.707 55.651 122.707 62.8871 118.244 67.3503C113.781 71.8134 106.545 71.8134 102.082 67.3503Z" fill="#2862AC"/>
<path d="M89.9597 30.9847C87.7281 28.7531 87.7281 25.135 89.9597 22.9035C92.1913 20.6719 95.8094 20.6719 98.0409 22.9035C100.272 25.135 100.273 28.7531 98.0409 30.9847C95.8094 33.2163 92.1913 33.2163 89.9597 30.9847Z" fill="#2862AC"/>
<path d="M61.675 164.325C59.4435 162.093 59.4435 158.475 61.675 156.244C63.9066 154.012 67.5247 154.012 69.7563 156.244C71.9878 158.475 71.9878 162.093 69.7563 164.325C67.5247 166.556 63.9066 166.556 61.675 164.325Z" fill="white"/>
</g>
<defs>
<clipPath id="clip0_23_2817">
<rect width="158" height="160" rx="24" transform="matrix(-1 0 0 1 158 0)" fill="white"/>
</clipPath>
</defs>
</svg>
