<svg width="120" height="120" viewBox="0 0 120 120" fill="none" xmlns="http://www.w3.org/2000/svg">
<g clip-path="url(#clip0_12_2031)">
<path d="M-0.683105 59.8529L-0.683105 120H20.0573L40.7976 120V99.9078V79.7896L41.4457 79.1674L42.068 78.5193L66.3342 78.5193H90.5745V47.4087L90.5745 16.2982H88.5004H86.4264L86.4264 26.0202V35.7682L85.7783 36.3904L85.1561 37.0386H77.3784H69.6008L69.7563 39.9422C70.1711 48.3161 66.5416 56.1715 59.9565 61.1492C48.4975 69.7824 32.2941 67.0343 24.2313 55.1086C22.8831 53.1383 21.4054 49.7679 20.7832 47.2532C20.3165 45.3606 20.2128 44.2199 20.1869 40.9792V37.0386H12.4611H4.73531L4.1131 36.3904L3.46497 35.7682L3.46497 20.4463L3.46497 5.12431L4.1131 4.50211L4.73531 3.85397L39.3717 3.85397H73.9822V1.77993V-0.294106L36.6495 -0.294106H-0.683105L-0.683105 59.8529ZM24.1794 66.0232C24.9053 66.6973 25.5016 67.3713 25.5016 67.5269C25.5016 67.6565 24.2831 68.9787 22.7794 70.4824L20.0573 73.2046V79.3748V85.5451L19.4091 86.1673L18.7869 86.8154H11.7611H4.73531L4.1131 86.1673L3.46497 85.5451V78.5193L3.46497 71.4935L4.1131 70.8713L4.73531 70.2231H10.9056H17.0758L19.798 67.501C21.3017 65.9973 22.5979 64.7788 22.6757 64.7788C22.7794 64.7788 23.4535 65.3491 24.1794 66.0232ZM36.6495 82.6673V84.7414H30.4274H24.2053V82.6673V80.5933H30.4274H36.6495V82.6673ZM24.2572 90.8857C24.9312 91.5598 25.5016 92.2338 25.5016 92.3894C25.5016 92.5449 24.2831 93.8671 22.7794 95.3708L20.0573 98.093V104.263V110.434L19.4091 111.056L18.7869 111.704H11.7611H4.73531L4.1131 111.056L3.46497 110.434V103.408L3.46497 96.3819L4.1131 95.7597L4.73531 95.1116H10.9056H17.0758L19.798 92.3894C21.3017 90.8857 22.6239 89.6672 22.7535 89.6672C22.9091 89.6672 23.5831 90.2117 24.2572 90.8857ZM36.6495 107.556V109.63H30.4274H24.2053V107.556V105.482H30.4274H36.6495V107.556Z" fill="white"/>
<path d="M7.61279 78.5199V82.668H11.7609H15.9089V80.0236V77.3792L14.6127 78.6495L13.3164 79.9458L11.8386 78.4421L10.335 76.9644L11.6312 75.6681L12.9016 74.3718H10.2572H7.61279L7.61279 78.5199Z" fill="white"/>
<path d="M7.61328 103.409V107.557H11.7614H15.9094V104.912V102.268L14.6132 103.538L13.3169 104.834L11.8391 103.331L10.3355 101.853L11.6317 100.557L12.9021 99.2605H10.2577H7.61328L7.61328 103.409Z" fill="white"/>
<path d="M78.1304 7.48381V12.1504H82.8488H87.5932L82.9266 7.48381C80.36 4.91719 78.2341 2.81723 78.2081 2.81723C78.1563 2.81723 78.1304 4.91719 78.1304 7.48381Z" fill="white"/>
<path d="M7.61377 20.4445L7.61377 32.8887H14.5618H21.4839L22.5209 30.6332C26.6949 21.4815 36.4169 15.726 46.5019 16.4001C52.6981 16.8149 57.7795 19.0963 62.1868 23.4259C64.7534 25.9407 66.2053 28.0147 67.5534 30.9961L68.4089 32.8887H75.3569H82.279V24.5925V16.2964L78.7791 16.2964C75.3829 16.2964 75.2273 16.2705 74.631 15.6482C74.0088 15.052 73.9829 14.8964 73.9829 11.5002V8.00024H40.7983L7.61377 8.00024L7.61377 20.4445Z" fill="white"/>
<path d="M41.1865 20.8089C35.5348 21.9237 30.6867 25.1644 27.5756 29.9606C25.2683 33.4865 24.335 36.6753 24.335 41.1863C24.335 45.6974 25.2683 48.8862 27.5497 52.3861C33.8496 62.0045 46.6568 64.7785 56.1714 58.5564C65.7638 52.3084 68.5378 39.4234 62.3417 29.9865C59.3862 25.4755 55.264 22.52 49.8715 21.0682C47.8493 20.4978 43.3902 20.3941 41.1865 20.8089ZM40.6421 26.9792C42.068 27.394 44.2198 29.5458 44.6346 30.9717C45.3605 33.4087 44.842 35.3531 43.0013 37.1679C41.6791 38.516 40.3569 39.1123 38.7236 39.1123C35.5088 39.1123 32.5015 36.105 32.5015 32.8902C32.5015 31.2569 33.0978 29.9347 34.4459 28.6125C36.2607 26.7718 38.2051 26.2792 40.6421 26.9792ZM55.2899 30.8421C56.0159 31.5421 56.6121 32.2161 56.6121 32.3198C56.6121 32.4235 51.9974 37.1161 46.3716 42.7419L36.131 52.9824L34.6533 51.4788L33.1496 50.001L43.3902 39.7604C49.016 34.1346 53.7085 29.5199 53.7863 29.5199C53.864 29.5199 54.5381 30.1162 55.2899 30.8421ZM53.0863 43.5715C54.5122 43.9863 56.664 46.1381 57.0788 47.564C57.8047 50.001 57.2862 51.9454 55.4455 53.7602C54.1233 55.1083 52.8011 55.7046 51.1678 55.7046C47.953 55.7046 44.9457 52.6972 44.9457 49.4825C44.9457 47.8492 45.542 46.527 46.8901 45.2048C48.7049 43.3641 50.6493 42.8715 53.0863 43.5715Z" fill="white"/>
<path d="M37.2986 31.463C36.0023 32.7333 36.9097 34.9629 38.7245 34.9629C39.7874 34.9629 40.7985 33.9518 40.7985 32.8889C40.7985 31.8259 39.7874 30.8148 38.7245 30.8148C38.2319 30.8148 37.6874 31.0481 37.2986 31.463Z" fill="white"/>
<path d="M49.7419 48.0567C48.4456 49.3271 49.353 51.5566 51.1678 51.5566C52.2308 51.5566 53.2418 50.5455 53.2418 49.4826C53.2418 48.4197 52.2308 47.4086 51.1678 47.4086C50.6752 47.4086 50.1308 47.6419 49.7419 48.0567Z" fill="white"/>
<path d="M44.9463 101.332V119.998H82.2789H119.612V101.332V82.6654H82.2789H44.9463V101.332ZM65.6866 88.8875V90.9615H59.4645H53.2424V101.332V111.702H59.4645H65.6866V113.776V115.85H58.0386H50.3647L49.7425 115.202L49.0944 114.58V101.332V88.0838L49.7425 87.4616L50.3647 86.8135H58.0386H65.6866V88.8875ZM86.9974 87.669C89.2788 88.4986 90.964 89.6134 92.701 91.4282C95.5009 94.3578 96.6157 97.1836 96.6157 101.332C96.6157 104.443 96.0972 106.361 94.5676 108.876C93.5046 110.665 90.9121 113.128 89.0973 114.113C87.3862 115.02 84.1715 115.85 82.3049 115.85C74.2939 115.824 67.7607 109.291 67.7607 101.332C67.7607 94.7207 72.3495 88.8357 78.8049 87.2023C81.0345 86.632 84.7678 86.8394 86.9974 87.669ZM114.815 87.4616L115.463 88.0838V101.332V114.58L114.815 115.202L114.193 115.85H106.519H98.8712V113.776V111.702H105.093H111.315V101.332V90.9615H105.093H98.8712V88.8875V86.8135H106.519H114.193L114.815 87.4616ZM63.6126 101.332V103.406H60.5016H57.3905V101.332V99.2577H60.5016H63.6126V101.332ZM107.167 101.332V103.406H104.056H100.945V101.332V99.2577H104.056H107.167V101.332Z" fill="white"/>
<path d="M79.1676 91.4304C76.3417 92.3897 73.9825 94.4637 72.7381 97.134C72.1418 98.4303 72.0381 98.9229 72.0381 101.334C72.0381 103.745 72.1418 104.238 72.7381 105.534C75.8232 112.171 84.4045 113.752 89.5118 108.619C94.5673 103.589 93.0377 95.0081 86.5563 91.9489C84.3267 90.9119 81.3453 90.7045 79.1676 91.4304Z" fill="white"/>
</g>
<defs>
<clipPath id="clip0_12_2031">
<rect width="120" height="120" fill="white"/>
</clipPath>
</defs>
</svg>
