<svg width="64" height="64" viewBox="0 0 64 64" fill="none" xmlns="http://www.w3.org/2000/svg">
<g clip-path="url(#clip0_27_50)">
<path d="M-0.364258 31.9216L-0.364258 64H10.6973H21.7588L21.7588 53.2841V42.5545L22.1045 42.2226L22.4363 41.8769H35.3783L48.3064 41.8769V25.2847V8.69237H47.2003H46.0941V13.8775V19.0764L45.7485 19.4082L45.4166 19.7539H41.2686H37.1205L37.2034 21.3025C37.4247 25.7686 35.4889 29.9582 31.9769 32.6129C25.8654 37.2173 17.2236 35.7516 12.9234 29.3913C12.2044 28.3404 11.4163 26.5429 11.0844 25.2017C10.8355 24.1923 10.7802 23.584 10.7664 21.8556V19.7539H6.64598H2.52557L2.19372 19.4082L1.84805 19.0764L1.84805 10.9047L1.84805 2.73297L2.19372 2.40113L2.52557 2.05545H20.9983L39.4572 2.05545V0.949303V-0.156853H19.5465H-0.364258L-0.364258 31.9216ZM12.8957 35.2124C13.2829 35.5719 13.6009 35.9314 13.6009 36.0143C13.6009 36.0835 12.9511 36.7886 12.1491 37.5906L10.6973 39.0424L10.6973 42.3332V45.624L10.3516 45.9559L10.0197 46.3016H6.27266H2.52557L2.19372 45.9559L1.84805 45.624L1.84805 41.8769L1.84805 38.1299L2.19372 37.798L2.52557 37.4523H5.81637H9.10717L10.559 36.0005C11.361 35.1986 12.0523 34.5487 12.0938 34.5487C12.1491 34.5487 12.5086 34.8529 12.8957 35.2124ZM19.5465 44.0893V45.1954H16.228H12.9096V44.0893V42.9831H16.228H19.5465V44.0893ZM12.9372 48.4724C13.2967 48.8319 13.6009 49.1914 13.6009 49.2743C13.6009 49.3573 12.9511 50.0625 12.1491 50.8644L10.6973 52.3163V55.6071V58.8979L10.3516 59.2297L10.0197 59.5754H6.27266H2.52557L2.19372 59.2297L1.84805 58.8979L1.84805 55.1508L1.84805 51.4037L2.19372 51.0718L2.52557 50.7262H5.81637H9.10717L10.559 49.2743C11.361 48.4724 12.0661 47.8225 12.1353 47.8225C12.2182 47.8225 12.5777 48.1129 12.9372 48.4724ZM19.5465 57.3631V58.4692H16.228H12.9096V57.3631V56.2569H16.228H19.5465V57.3631Z" fill="#2862AC"/>
<path d="M4.0603 41.8773V44.0896H6.27261H8.48491V42.6792V41.2689L7.79357 41.9464L7.10222 42.6378L6.31409 41.8358L5.51213 41.0477L6.20347 40.3563L6.88099 39.665H5.47065H4.0603V41.8773Z" fill="#2862AC"/>
<path d="M4.0603 55.1512V57.3635H6.27261H8.48491V55.9532V54.5429L7.79357 55.2204L7.10222 55.9117L6.31409 55.1098L5.51213 54.3216L6.20347 53.6303L6.88099 52.9389H5.47065H4.0603V55.1512Z" fill="#2862AC"/>
<path d="M41.6697 3.99137V6.48021H44.1862L46.7165 6.48021L44.2277 3.99137C42.8588 2.6225 41.725 1.50252 41.7112 1.50252C41.6835 1.50252 41.6697 2.6225 41.6697 3.99137Z" fill="#2862AC"/>
<path d="M4.06079 10.9037L4.06079 17.5406H7.7664H11.4582L12.0113 16.3377C14.2374 11.4568 19.4225 8.38721 24.8011 8.74671C28.1058 8.96794 30.8158 10.1847 33.1664 12.4938C34.5353 13.835 35.3096 14.9412 36.0286 16.5313L36.4849 17.5406H40.1905L43.8823 17.5406V13.116V8.6914H42.0156C40.2043 8.6914 40.1214 8.67757 39.8033 8.34573C39.4715 8.02771 39.4577 7.94475 39.4577 6.13342V4.26679L21.7592 4.26679L4.06079 4.26679V10.9037Z" fill="#2862AC"/>
<path d="M21.9662 11.0981C18.952 11.6926 16.3664 13.421 14.7071 15.979C13.4765 17.8594 12.9788 19.5602 12.9788 21.966C12.9788 24.3719 13.4765 26.0726 14.6933 27.9393C18.0532 33.069 24.8837 34.5485 29.9582 31.2301C35.0742 27.8978 36.5536 21.0258 33.249 15.9928C31.6727 13.5869 29.4743 12.0107 26.5983 11.2364C25.5198 10.9322 23.1415 10.8769 21.9662 11.0981ZM21.6759 14.3889C22.4364 14.6101 23.584 15.7578 23.8052 16.5182C24.1924 17.818 23.9158 18.855 22.9341 19.8229C22.229 20.5419 21.5238 20.8599 20.6527 20.8599C18.9382 20.8599 17.3342 19.256 17.3342 17.5414C17.3342 16.6703 17.6523 15.9652 18.3713 15.26C19.3391 14.2783 20.3762 14.0156 21.6759 14.3889ZM29.4881 16.4491C29.8752 16.8224 30.1933 17.1819 30.1933 17.2372C30.1933 17.2925 27.7321 19.7952 24.7316 22.7957L19.27 28.2573L18.4819 27.4553L17.6799 26.6672L23.1415 21.2056C26.142 18.2051 28.6446 15.7439 28.6861 15.7439C28.7276 15.7439 29.0871 16.0619 29.4881 16.4491ZM28.3128 23.2381C29.0733 23.4593 30.2209 24.607 30.4421 25.3675C30.8293 26.6672 30.5528 27.7042 29.571 28.6721C28.8659 29.3911 28.1607 29.7091 27.2896 29.7091C25.5751 29.7091 23.9711 28.1052 23.9711 26.3907C23.9711 25.5196 24.2892 24.8144 25.0082 24.1092C25.9761 23.1275 27.0131 22.8648 28.3128 23.2381Z" fill="#2862AC"/>
<path d="M19.8925 16.7802C19.2012 17.4578 19.6851 18.6469 20.653 18.6469C21.2199 18.6469 21.7591 18.1076 21.7591 17.5407C21.7591 16.9738 21.2199 16.4346 20.653 16.4346C20.3903 16.4346 20.0999 16.559 19.8925 16.7802Z" fill="#2862AC"/>
<path d="M26.5292 25.6303C25.8379 26.3078 26.3218 27.4969 27.2897 27.4969C27.8566 27.4969 28.3959 26.9576 28.3959 26.3907C28.3959 25.8238 27.8566 25.2846 27.2897 25.2846C27.027 25.2846 26.7366 25.409 26.5292 25.6303Z" fill="#2862AC"/>
<path d="M23.9712 54.0436V63.999H43.8819L63.7927 63.999V54.0436V44.0882L43.8819 44.0882H23.9712V54.0436ZM35.0327 47.4067V48.5128H31.7143H28.3958V54.0436V59.5744H31.7143H35.0327V60.6805V61.7867H30.9538H26.861L26.5292 61.441L26.1835 61.1091V54.0436V46.978L26.5292 46.6462L26.861 46.3005H30.9538H35.0327V47.4067ZM46.3984 46.7568C47.6152 47.1993 48.5139 47.7938 49.4403 48.7617C50.9337 50.3242 51.5282 51.8313 51.5282 54.0436C51.5282 55.7028 51.2517 56.726 50.4359 58.0672C49.869 59.0213 48.4863 60.3348 47.5184 60.8603C46.6058 61.3442 44.8913 61.7867 43.8958 61.7867C39.6232 61.7728 36.1389 58.2884 36.1389 54.0436C36.1389 50.5177 38.5862 47.379 42.0291 46.5079C43.2182 46.2037 45.2093 46.3143 46.3984 46.7568ZM61.2347 46.6462L61.5804 46.978V54.0436V61.1091L61.2347 61.441L60.9029 61.7867H56.8101H52.7311V60.6805V59.5744L56.0496 59.5744H59.3681V54.0436V48.5128L56.0496 48.5128H52.7311V47.4067V46.3005H56.8101H60.9029L61.2347 46.6462ZM33.9266 54.0436V55.1497H32.2673H30.6081V54.0436V52.9374H32.2673H33.9266V54.0436ZM57.1558 54.0436V55.1497L55.4965 55.1497H53.8373V54.0436V52.9374H55.4965L57.1558 52.9374V54.0436Z" fill="#2862AC"/>
<path d="M42.2226 48.7629C40.7154 49.2745 39.4572 50.3806 38.7935 51.8048C38.4755 52.4962 38.4202 52.7589 38.4202 54.0448C38.4202 55.3307 38.4755 55.5934 38.7935 56.2847C40.4389 59.8244 45.0156 60.6679 47.7395 57.9301C50.4357 55.2477 49.62 50.671 46.1632 49.0394C44.9741 48.4864 43.384 48.3757 42.2226 48.7629Z" fill="#2862AC"/>
</g>
<defs>
<clipPath id="clip0_27_50">
<rect width="64" height="64" fill="white"/>
</clipPath>
</defs>
</svg>
