<svg width="120" height="120" viewBox="0 0 120 120" fill="none" xmlns="http://www.w3.org/2000/svg">
<g clip-path="url(#clip0_12_2064)">
<path d="M29.0093 0.358379C26.7275 1.15813 26.4054 1.59671 22.4056 9.23306L18.6473 16.4566H12.1509C7.85576 16.4566 5.30552 16.5598 4.58072 16.7662C3.10427 17.179 0.876161 19.3203 0.446647 20.7392C0.258735 21.3325 0.124512 22.4419 0.124512 23.2416L0.124512 24.6605L3.05058 24.7637C5.52028 24.8153 6.11086 24.9185 6.72829 25.3829C8.33897 26.518 8.58057 27.1114 8.6611 30.1556L8.76848 32.9676H11.0234C12.7415 32.9676 9.89566 33.2521 9.89566 32.9683C9.89566 32.7877 10.3252 31.8074 10.8352 30.827C11.9895 28.6083 13.6002 27.112 16.0162 26.0285C17.6538 25.2803 18.0564 25.2029 20.3651 25.2029C22.6737 25.2029 23.0764 25.2803 24.7139 26.0285C27.1299 27.112 28.7406 28.6083 29.8949 30.827C30.405 31.8074 30.8345 32.7877 30.8345 32.9683C30.8345 33.2779 36.0963 32.9676 45.2235 32.9676C54.3507 32.9676 52.5686 32.9345 52.5686 32.625C52.5686 32.4444 52.9981 31.464 53.5082 30.4837C54.6625 28.265 56.2732 26.7687 58.6892 25.6852C60.3267 24.937 60.7294 24.8596 63.038 24.8596C65.3466 24.8596 65.7493 24.937 67.3868 25.6852C69.8028 26.7687 71.4135 28.265 72.5678 30.4837C73.0779 31.464 73.5074 32.4444 73.5074 32.625C73.5074 32.9087 78.1081 32.9676 82.108 32.9676H87.0474L85.6515 30.9296C83.1281 27.2662 81.7322 22.7515 81.7322 18.3657V16.4566H76.7659H71.7997L68.283 9.72323C66.3502 6.00825 64.5248 2.62864 64.2026 2.21587C63.8805 1.7773 63.0752 1.13233 62.404 0.771156L61.196 0.0745964L45.6262 0.0229988C32.6065 -0.028595 29.8952 0.0229988 29.0093 0.358379ZM43.0759 10.265V14.3927L35.5594 14.3927H28.0429L30.1905 10.265L32.3381 6.13724L37.707 6.13724H43.0759V10.265ZM60.2565 10.265L62.404 14.3927H54.8875H47.3711V10.265V6.13724H52.74H58.1089L60.2565 10.265Z" fill="white"/>
<path fill-rule="evenodd" clip-rule="evenodd" d="M60.0781 0.0906667C62.3599 0.895431 62.682 1.33676 66.6818 9.02096L70.4401 16.2898L76.9365 16.2898C81.2316 16.2898 83.7819 16.3936 84.5067 16.6013C85.9831 17.0167 88.2112 19.1714 88.6408 20.5992C88.8287 21.1963 88.9629 22.3126 88.9629 23.1173L88.9629 24.5451L86.0368 24.649C83.5671 24.7009 82.9765 24.8047 82.3591 25.272C80.7484 26.4143 80.5068 27.0113 80.4263 30.0746L80.3189 32.9043L78.064 32.9043C76.3459 32.9043 73.65 32.5504 73.65 32.2648C73.65 32.0831 73.2205 31.0966 72.7105 30.1101C71.5562 27.8776 69.9455 26.3719 67.5295 25.2816C65.8919 24.5287 65.4893 24.4508 63.1806 24.4508C60.872 24.4508 60.4693 24.5287 58.8318 25.2815C56.4158 26.3719 54.8051 27.8776 53.6508 30.1101C53.1407 31.0966 52.7112 32.0831 52.7112 32.2648C52.7112 32.5764 52.9911 32.9043 43.8639 32.9043C34.7367 32.9043 30.8581 32.8114 30.8581 32.4999C30.8581 32.3182 30.4285 31.3317 29.9185 30.3452C28.7642 28.1126 27.1535 26.607 24.7375 25.5166C23.1 24.7638 22.6973 24.6859 20.3886 24.6859C18.08 24.6859 17.6774 24.7638 16.0398 25.5166C13.6238 26.607 12.0131 28.1126 10.8588 30.3452C10.3488 31.3317 9.91925 32.3182 9.91925 32.4999C9.91925 32.7855 10.9792 32.9043 6.97939 32.9043L4.13629 32.7302L4.20081 28.9746L4.44524 16.8937C4.65622 16.6924 5.53359 16.2898 7.35521 16.2898L12.3215 16.2898L17.2877 16.2898L20.8044 9.5142C22.7372 5.77594 24.5626 2.37516 24.8848 1.9598C25.2069 1.51848 26.0122 0.86947 26.6833 0.506029L27.8914 -0.194895L43.4612 -0.246812C56.4809 -0.298734 59.1922 -0.246816 60.0781 0.0906667ZM46.0115 14.213L46.0115 10.0594L46.0115 5.90574L51.3804 5.90574L56.7493 5.90574L58.8969 10.0594L61.0445 14.213L53.528 14.213L46.0115 14.213ZM26.6833 14.213L28.8309 10.0594L30.9785 5.90574L36.3474 5.90574L41.7163 5.90574L41.7163 10.0594L41.7163 14.213L34.1998 14.213L26.6833 14.213Z" fill="white"/>
<path d="M88.9629 24.5451L86.0368 24.649C83.5671 24.7009 82.9765 24.8047 82.3591 25.272C80.7484 26.4143 80.5068 27.0113 80.4263 30.0746L80.3189 32.9043L88.6943 32.8656L88.9629 24.5451Z" fill="white"/>
<path d="M0.124512 30.9027L0.124512 32.9666H2.27208H4.41965V30.9027V28.8388H2.27208H0.124512L0.124512 30.9027Z" fill="white"/>
<path d="M17.1798 29.5218C16.6697 29.6766 15.6228 30.3989 14.898 31.1213C12.992 32.9272 12.4551 34.8621 13.2068 37.2871C13.6363 38.706 15.8644 40.8473 17.3408 41.2601C19.8642 41.9824 21.8776 41.4665 23.7567 39.6348C26.3875 37.1323 26.468 33.9075 23.9715 31.2503C22.2266 29.3928 19.73 28.7478 17.1798 29.5218ZM20.8038 33.9591C22.146 35.2232 21.2065 37.4419 19.3273 37.4419C18.2267 37.4419 17.1798 36.4358 17.1798 35.378C17.1798 34.3203 18.2267 33.3142 19.3273 33.3142C19.8374 33.3142 20.4011 33.5463 20.8038 33.9591Z" fill="white"/>
<path d="M60.1319 29.5263C58.8165 29.9391 56.5616 32.1578 56.1589 33.4735C55.4073 35.8986 55.9441 37.8334 57.8501 39.6393C59.2192 40.9809 60.5883 41.5742 62.2795 41.5742C63.9707 41.5742 65.3398 40.9809 66.7088 39.6393C69.3396 37.1369 69.4202 33.9121 66.9236 31.2548C65.1787 29.3973 62.6822 28.7524 60.1319 29.5263ZM63.7559 33.9637C64.1855 34.3506 64.4271 34.8924 64.4271 35.3826C64.4271 35.8728 64.1855 36.4145 63.7559 36.8015C63.3533 37.2143 62.7895 37.4465 62.2795 37.4465C61.7694 37.4465 61.2057 37.2143 60.803 36.8015C60.3735 36.4145 60.1319 35.8728 60.1319 35.3826C60.1319 34.8924 60.3735 34.3506 60.803 33.9637C61.2057 33.5509 61.7694 33.3187 62.2795 33.3187C62.7895 33.3187 63.3533 33.5509 63.7559 33.9637Z" fill="white"/>
<path d="M0 78.7225L0 120H36.5087H73.0174V109.81V99.645L73.9033 99.516C74.3596 99.4386 77.7957 99.0258 81.4735 98.5873C85.178 98.1745 88.641 97.7359 89.2047 97.6585L90.198 97.5037V92.2409V86.978H70.494C57.5012 86.978 50.5216 86.8748 50.0384 86.72C49.6357 86.5652 48.9109 86.0234 48.4009 85.5332C47.5418 84.6303 47.4613 84.6045 42.7635 83.8563C36.5087 82.876 36.8308 82.9534 35.6765 81.8441C34.9517 81.1475 34.6027 80.5541 34.4685 79.806L34.2806 78.7225H30.0391H25.7708V76.6586V74.5947H30.0391H34.2806L34.4685 73.5112C34.6027 72.763 34.9517 72.1696 35.6765 71.4731C36.8308 70.3638 36.5087 70.4411 42.7635 69.4608C47.4613 68.7126 47.5418 68.6868 48.4009 67.7839C48.9109 67.2937 49.6357 66.752 50.0384 66.5972C50.4411 66.4682 52.8571 66.3392 55.461 66.3392H60.132V64.2753V62.2114H34.3611H8.59028V60.1476V58.0837H34.3611H60.132V55.994V53.9301L68.6686 54.0075C77.8763 54.0849 78.0642 54.1365 80.5339 55.6844L81.5003 56.2778L83.6479 55.22C85.4733 54.3171 86.0907 54.1623 87.9967 54.0333L90.198 53.8785V46.4744V39.0444C89.5044 38.1135 88.4401 37.5306 87.2822 37.4476L87.2451 37.4449H79.997C74.0375 37.4449 72.749 37.4965 72.749 37.8061C72.749 37.9867 72.3194 38.967 71.8094 39.9474C70.6551 42.166 69.0444 43.6623 66.6284 44.7459C64.9909 45.494 64.5882 45.5714 62.2795 45.5714C59.9709 45.5714 59.5682 45.494 57.9844 44.7717C55.4879 43.6365 53.904 42.166 52.7497 39.9732C52.2397 38.967 51.8101 37.9867 51.8101 37.8061C51.8101 37.4965 49.931 37.4449 40.8038 37.4449C31.6767 37.4449 29.7975 37.4965 29.7975 37.8061C29.7975 37.9867 29.368 38.967 28.858 39.9474C27.7037 42.166 26.093 43.6623 23.677 44.7459C22.0394 45.494 21.6368 45.5714 19.3281 45.5714C17.0195 45.5714 16.6168 45.494 15.033 44.7717C12.5364 43.6365 10.9526 42.166 9.79829 39.9732C9.28824 38.967 8.85873 37.9867 8.85873 37.8061C8.85873 37.5223 7.9997 37.4449 4.42936 37.4449H0L0 78.7225ZM60.132 51.892V53.9559H34.3611H8.59028V51.892V49.8282H34.3611H60.132V51.892ZM30.066 68.4031V70.4669H19.3281H8.59028V68.4031V66.3392H19.3281H30.066V68.4031ZM21.4757 76.6586V78.7225H15.033H8.59028V76.6586V74.5947H15.033H21.4757V76.6586ZM16.3215 87.3907C17.5027 87.8551 18.6839 88.887 19.2744 89.9448C19.4892 90.3576 20.4556 94.3047 21.3683 98.7163C22.7911 105.527 23.1132 106.765 23.6233 107.152C23.9454 107.41 24.4823 107.617 24.8313 107.617C26.1467 107.617 26.5225 106.92 28.1869 101.322C29.9586 95.3883 30.4687 94.4595 32.3209 93.6598C33.8242 93.0148 35.3812 93.0406 36.7771 93.763C38.361 94.5627 38.7368 95.1045 40.5354 99.387C42.7098 104.495 43.0856 104.65 44.1326 100.754C44.9111 97.8133 45.3943 96.9362 46.7097 96.1106C48.723 94.8207 51.2732 95.0529 52.9376 96.6782C53.7698 97.4521 54.1725 98.3293 55.81 103.05C56.8569 106.069 57.716 108.649 57.716 108.829C57.716 109.087 54.7899 110.197 54.0651 110.197C53.8772 110.197 52.9645 107.978 51.8907 104.882C50.8974 101.941 49.9042 99.4902 49.7163 99.4128C49.1257 99.2064 48.8572 99.6966 48.1861 102.173C47.4345 105.063 46.6023 106.327 45.0453 107.075C43.5151 107.772 42.0118 107.772 40.5354 107.023C38.9516 106.249 38.6026 105.733 36.7771 101.399C35.1665 97.5553 34.6564 96.8846 33.9853 97.5553C33.7705 97.7617 32.9384 100.264 32.0793 103.102C31.2472 105.94 30.3076 108.649 29.9855 109.113C28.16 111.744 24.187 112.493 21.4489 110.713C19.3281 109.345 19.1671 108.958 17.2879 99.9546C15.543 91.6733 15.3551 91.1057 14.2545 91.1057C14.0397 91.1057 13.6371 91.2863 13.3686 91.5443C12.9123 91.9313 12.8854 92.5246 12.8854 99.7998V107.617H10.7379H8.59028V99.6708C8.59028 94.8465 8.69766 91.3637 8.88557 90.7445C9.23455 89.532 11.1674 87.6229 12.4022 87.2617C13.7445 86.9006 15.2209 86.9264 16.3215 87.3907Z" fill="white"/>
<path d="M64.4272 60.1424V62.2062H69.823C73.0175 62.2062 75.4067 62.3094 75.7288 62.4642C75.9973 62.619 76.6684 63.5477 77.1784 64.5281L78.118 66.334H81.6078H85.0976L86.0372 64.5281C86.5472 63.5477 87.2183 62.619 87.4868 62.4642C87.8358 62.3094 91.4329 62.2062 97.4193 62.2062C106.788 62.2062 106.815 62.2062 107.486 62.7738C107.916 63.135 108.291 63.9089 108.533 64.7861L108.882 66.205L111.083 66.2824C112.291 66.334 113.284 66.2824 113.284 66.205C113.284 66.1276 113.016 65.0699 112.694 63.8315C112.023 61.2517 111.03 59.807 109.258 58.8524L108.05 58.2075L97.8757 58.1301C86.3862 58.0527 86.0103 58.1043 84.1312 59.8844C83.5406 60.4519 82.7621 61.4839 82.4131 62.2062C82.0642 62.9028 81.7152 63.4962 81.6078 63.4962C81.5004 63.4962 81.1514 62.9028 80.8025 62.2062C80.4535 61.4839 79.675 60.4519 79.1113 59.8844C77.3932 58.2591 76.4268 58.0785 70.0109 58.0785H64.4272V60.1424Z" fill="white"/>
<path d="M51.541 76.6638V82.8555H73.0167H94.4924V76.6638V70.4722H73.0167H51.541V76.6638Z" fill="white"/>
<path d="M98.7881 76.6599V82.8516H108.855H118.948L119.593 82.2066C120.264 81.5874 120.264 81.5358 120.264 76.6599C120.264 71.784 120.264 71.7324 119.593 71.1133L118.948 70.4683H108.855H98.7881V76.6599Z" fill="white"/>
<path d="M42.2793 73.687C40.3733 74.0224 38.7627 74.3062 38.7358 74.3062C38.6821 74.332 38.6553 75.3639 38.6553 76.6538C38.6553 78.8467 38.6821 78.9757 39.2727 79.1047C40.3733 79.3369 46.3597 80.2656 46.816 80.2656C47.1919 80.2656 47.2456 79.8271 47.2456 76.6538V73.0421L46.5208 73.0679C46.0912 73.0936 44.2121 73.3774 42.2793 73.687Z" fill="white"/>
<path d="M82.4399 102.632C79.7017 102.968 77.4468 103.277 77.3931 103.329C77.3394 103.38 77.3394 106.141 77.3663 109.469L77.4468 115.531L82.4936 108.85C85.2854 105.16 87.5135 102.142 87.4598 102.09C87.433 102.065 85.1512 102.297 82.4399 102.632Z" fill="white"/>
</g>
<defs>
<clipPath id="clip0_12_2064">
<rect width="120" height="120" fill="white"/>
</clipPath>
</defs>
</svg>
