<svg width="64" height="64" viewBox="0 0 64 64" fill="none" xmlns="http://www.w3.org/2000/svg">
<g clip-path="url(#clip0_27_79)">
<path d="M15.4716 0.191128C14.2547 0.617662 14.0829 0.85157 11.9496 4.92429L9.94523 8.77686H6.48048C4.18974 8.77686 2.82961 8.8319 2.44305 8.94197C1.65561 9.16212 0.467286 10.3041 0.238212 11.0609C0.137992 11.3773 0.0664062 11.969 0.0664062 12.3955L0.0664062 13.1523L1.62697 13.2073C2.94415 13.2348 3.25913 13.2899 3.58842 13.5375C4.44745 14.1429 4.5763 14.4594 4.61925 16.083L4.67652 17.5827H5.87916C6.79546 17.5827 5.27768 17.7344 5.27768 17.5831C5.27768 17.4868 5.50676 16.9639 5.77878 16.4411C6.39442 15.2578 7.25345 14.4597 8.54199 13.8819C9.41534 13.4828 9.63009 13.4416 10.8614 13.4416C12.0926 13.4416 12.3074 13.4828 13.1807 13.8819C14.4693 14.4597 15.3283 15.2578 15.9439 16.4411C16.216 16.9639 16.445 17.4868 16.445 17.5831C16.445 17.7482 19.2514 17.5827 24.1192 17.5827C28.987 17.5827 28.0366 17.5651 28.0366 17.4C28.0366 17.3037 28.2657 16.7808 28.5377 16.258C29.1533 15.0747 30.0124 14.2766 31.3009 13.6987C32.1742 13.2997 32.389 13.2585 33.6203 13.2585C34.8515 13.2585 35.0663 13.2997 35.9396 13.6987C37.2282 14.2766 38.0872 15.0747 38.7029 16.258C38.9749 16.7808 39.204 17.3037 39.204 17.4C39.204 17.5513 41.6577 17.5827 43.7909 17.5827H46.4253L45.6808 16.4958C44.335 14.542 43.5905 12.1341 43.5905 9.79504V8.77686H40.9418H38.2932L36.4176 5.18571C35.3868 3.20439 34.4132 1.40194 34.2414 1.18179C34.0696 0.947884 33.6401 0.603903 33.2822 0.411276L32.6379 0.0397778L24.334 0.0122585C17.3901 -0.0152588 15.9441 0.0122585 15.4716 0.191128ZM22.9738 5.47466L22.9738 7.67612H18.965H14.9562L16.1016 5.47466L17.247 3.27318H20.1104H22.9738V5.47466ZM32.1368 5.47466L33.2822 7.67612H29.2734H25.2646L25.2646 5.47466V3.27318H28.128H30.9914L32.1368 5.47466Z" fill="#2862AC"/>
<path fill-rule="evenodd" clip-rule="evenodd" d="M32.0415 0.0483488C33.2585 0.477556 33.4303 0.71293 35.5636 4.81117L37.568 8.68789L41.0327 8.68789C43.3234 8.68789 44.6836 8.74327 45.0701 8.85403C45.8576 9.07556 47.0459 10.2247 47.275 10.9862C47.3752 11.3047 47.4468 11.9 47.4468 12.3292L47.4468 13.0907L45.8862 13.1461C44.569 13.1738 44.2541 13.2292 43.9248 13.4784C43.0657 14.0876 42.9369 14.406 42.8939 16.0398L42.8367 17.549L41.634 17.5489C40.7177 17.5489 39.2799 17.3602 39.2799 17.2079C39.2799 17.111 39.0508 16.5849 38.7788 16.0587C38.1632 14.868 37.3042 14.065 36.0156 13.4835C35.1423 13.082 34.9275 13.0404 33.6962 13.0404C32.465 13.0404 32.2502 13.082 31.3769 13.4835C30.0883 14.065 29.2293 14.868 28.6137 16.0587C28.3416 16.5849 28.1126 17.111 28.1126 17.2079C28.1126 17.374 28.2618 17.5489 23.394 17.5489C18.5262 17.5489 16.4575 17.4994 16.4575 17.3333C16.4575 17.2364 16.2285 16.7102 15.9564 16.1841C15.3408 14.9934 14.4818 14.1904 13.1932 13.6089C12.3199 13.2073 12.1051 13.1658 10.8739 13.1658C9.64258 13.1658 9.42783 13.2073 8.55448 13.6089C7.26594 14.1904 6.40691 14.9934 5.79127 16.1841C5.51925 16.7102 5.29017 17.2364 5.29017 17.3333C5.29017 17.4856 5.8555 17.5489 3.72225 17.5489L2.20592 17.4561L2.24033 15.4531L2.3707 9.00999C2.48322 8.90262 2.95116 8.68789 3.92268 8.68789L6.57136 8.68789L9.22003 8.68789L11.0956 5.07423C12.1264 3.08049 13.1 1.26675 13.2718 1.04522C13.4436 0.809846 13.8731 0.46371 14.231 0.269873L14.8753 -0.103952L23.1792 -0.131642C30.123 -0.159333 31.5691 -0.131642 32.0415 0.0483488ZM24.5394 7.58025L24.5394 5.36499L24.5394 3.14972L27.4028 3.14972L30.2662 3.14972L31.4116 5.36499L32.557 7.58025L28.5482 7.58025L24.5394 7.58025ZM14.231 7.58025L15.3764 5.36499L16.5218 3.14972L19.3852 3.14972L22.2486 3.14972L22.2486 5.36499L22.2486 7.58025L18.2398 7.58025L14.231 7.58025Z" fill="#2862AC"/>
<path d="M47.4468 13.0907L45.8862 13.1461C44.569 13.1738 44.2541 13.2292 43.9248 13.4784C43.0657 14.0876 42.9369 14.406 42.8939 16.0398L42.8367 17.549L47.3035 17.5283L47.4468 13.0907Z" fill="#2862AC"/>
<path d="M0.0664062 16.4815L0.0664062 17.5822H1.21178H2.35715V16.4815L2.35715 15.3807H1.21178H0.0664062L0.0664062 16.4815Z" fill="#2862AC"/>
<path d="M9.16265 15.745C8.89063 15.8276 8.33226 16.2128 7.9457 16.5981C6.92918 17.5612 6.64284 18.5932 7.04372 19.8865C7.27279 20.6433 8.46111 21.7853 9.24856 22.0054C10.5944 22.3907 11.6682 22.1155 12.6704 21.1386C14.0734 19.804 14.1164 18.0841 12.7849 16.6669C11.8543 15.6762 10.5228 15.3322 9.16265 15.745ZM11.0955 18.1116C11.8113 18.7858 11.3102 19.9691 10.308 19.9691C9.72102 19.9691 9.16265 19.4325 9.16265 18.8683C9.16265 18.3042 9.72102 17.7676 10.308 17.7676C10.5801 17.7676 10.8807 17.8914 11.0955 18.1116Z" fill="#2862AC"/>
<path d="M32.0704 15.7474C31.3688 15.9676 30.1662 17.1509 29.9514 17.8526C29.5506 19.146 29.8369 20.1779 30.8534 21.141C31.5836 21.8565 32.3138 22.173 33.2157 22.173C34.1177 22.173 34.8479 21.8565 35.5781 21.141C36.9811 19.8064 37.0241 18.0865 35.6926 16.6693C34.762 15.6786 33.4305 15.3347 32.0704 15.7474ZM34.0032 18.114C34.2323 18.3204 34.3611 18.6093 34.3611 18.8708C34.3611 19.1322 34.2323 19.4211 34.0032 19.6275C33.7884 19.8477 33.4878 19.9715 33.2157 19.9715C32.9437 19.9715 32.6431 19.8477 32.4283 19.6275C32.1992 19.4211 32.0704 19.1322 32.0704 18.8708C32.0704 18.6093 32.1992 18.3204 32.4283 18.114C32.6431 17.8939 32.9437 17.77 33.2157 17.77C33.4878 17.77 33.7884 17.8939 34.0032 18.114Z" fill="#2862AC"/>
<path d="M0 41.9853L0 64H19.4713H38.9426V58.5651V53.144L39.4151 53.0752C39.6585 53.0339 41.4911 52.8138 43.4525 52.5799C45.4283 52.3597 47.2752 52.1258 47.5759 52.0845L48.1056 52.002V49.1951V46.3882H37.5968C30.6673 46.3882 26.9449 46.3332 26.6871 46.2507C26.4724 46.1681 26.0858 45.8792 25.8138 45.6177C25.3557 45.1362 25.3127 45.1224 22.8072 44.7234C19.4713 44.2005 19.6431 44.2418 19.0275 43.6502C18.6409 43.2787 18.4548 42.9622 18.3832 42.5632L18.283 41.9853H16.0209H13.7445V40.8846V39.7838H16.0209H18.283L18.3832 39.206C18.4548 38.8069 18.6409 38.4905 19.0275 38.119C19.6431 37.5273 19.4713 37.5686 22.8072 37.0458C25.3127 36.6467 25.3557 36.633 25.8138 36.1514C26.0858 35.89 26.4724 35.601 26.6871 35.5185C26.9019 35.4497 28.1904 35.3809 29.5792 35.3809H32.0704V34.2802V33.1794H18.3259H4.58148V32.0787V30.978H18.3259H32.0704V29.8635V28.7627L36.6232 28.804C41.534 28.8453 41.6342 28.8728 42.9514 29.6984L43.4668 30.0148L44.6122 29.4507C45.5858 28.9691 45.9151 28.8866 46.9316 28.8178L48.1056 28.7352V24.7863V20.8237C47.7357 20.3272 47.168 20.0163 46.5505 19.972L46.5307 19.9706H42.6651C39.4867 19.9706 38.7994 19.9981 38.7994 20.1632C38.7994 20.2596 38.5704 20.7824 38.2983 21.3053C37.6827 22.4885 36.8237 23.2866 35.5351 23.8645C34.6618 24.2635 34.447 24.3048 33.2158 24.3048C31.9845 24.3048 31.7697 24.2635 30.925 23.8782C29.5935 23.2728 28.7488 22.4885 28.1332 21.319C27.8612 20.7824 27.6321 20.2596 27.6321 20.1632C27.6321 19.9981 26.6299 19.9706 21.762 19.9706C16.8942 19.9706 15.892 19.9981 15.892 20.1632C15.892 20.2596 15.6629 20.7824 15.3909 21.3053C14.7753 22.4885 13.9163 23.2866 12.6277 23.8645C11.7544 24.2635 11.5396 24.3048 10.3083 24.3048C9.07707 24.3048 8.86231 24.2635 8.0176 23.8782C6.6861 23.2728 5.84139 22.4885 5.22576 21.319C4.95373 20.7824 4.72466 20.2596 4.72466 20.1632C4.72466 20.0119 4.26651 19.9706 2.36233 19.9706H0L0 41.9853ZM32.0704 27.6758V28.7765H18.3259H4.58148V27.6758V26.575H18.3259H32.0704V27.6758ZM16.0352 36.4816V37.5824H10.3083H4.58148V36.4816V35.3809H10.3083H16.0352V36.4816ZM11.4537 40.8846V41.9853H8.0176H4.58148L4.58148 40.8846V39.7838H8.0176H11.4537V40.8846ZM8.70482 46.6084C9.33477 46.8561 9.96473 47.4064 10.2797 47.9706C10.3942 48.1907 10.9097 50.2959 11.3964 52.6487C12.1552 56.2811 12.3271 56.9415 12.5991 57.1479C12.7709 57.2855 13.0572 57.3956 13.2434 57.3956C13.9449 57.3956 14.1453 57.0241 15.033 54.0384C15.9779 50.8737 16.25 50.3784 17.2378 49.9519C18.0396 49.6079 18.87 49.6217 19.6145 50.0069C20.4592 50.4334 20.6596 50.7224 21.6189 53.0064C22.7786 55.7307 22.979 55.8133 23.5374 53.7357C23.9526 52.1671 24.2103 51.6993 24.9118 51.259C25.9856 50.571 27.3457 50.6949 28.2334 51.5617C28.6772 51.9745 28.892 52.4423 29.7653 54.9602C30.3237 56.57 30.7818 57.946 30.7818 58.0423C30.7818 58.1799 29.2213 58.7715 28.8347 58.7715C28.7345 58.7715 28.2477 57.5882 27.675 55.9371C27.1453 54.3686 26.6156 53.0615 26.5153 53.0202C26.2004 52.9101 26.0572 53.1715 25.6993 54.4924C25.2984 56.0334 24.8546 56.7076 24.0242 57.1066C23.2081 57.4781 22.4063 57.4781 21.6189 57.0791C20.7742 56.6664 20.588 56.3912 19.6145 54.0796C18.7555 52.0295 18.4834 51.6718 18.1255 52.0295C18.011 52.1396 17.5671 53.4742 17.109 54.9877C16.6651 56.5012 16.164 57.946 15.9922 58.1936C15.0187 59.5971 12.8997 59.9961 11.4394 59.0467C10.3083 58.3175 10.2224 58.1111 9.22024 53.3091C8.28962 48.8924 8.1894 48.5897 7.6024 48.5897C7.48786 48.5897 7.27311 48.686 7.12993 48.8236C6.88654 49.03 6.87223 49.3465 6.87223 53.2266L6.87223 57.3956H5.72685H4.58148L4.58148 53.1578C4.58148 50.5848 4.63875 48.7273 4.73897 48.3971C4.9251 47.7504 5.95593 46.7322 6.61452 46.5396C7.33037 46.347 8.11782 46.3607 8.70482 46.6084Z" fill="#2862AC"/>
<path d="M34.3611 32.0759V33.1766H37.2388C38.9426 33.1766 40.2168 33.2317 40.3886 33.3142C40.5318 33.3968 40.8897 33.8921 41.1617 34.415L41.6628 35.3781H43.524H45.3853L45.8864 34.415C46.1584 33.8921 46.5163 33.3968 46.6595 33.3142C46.8456 33.2317 48.7641 33.1766 51.9568 33.1766C56.9535 33.1766 56.9678 33.1766 57.3258 33.4793C57.5548 33.672 57.7553 34.0847 57.8841 34.5526L58.0703 35.3093L59.2443 35.3506C59.8885 35.3781 60.4183 35.3506 60.4183 35.3093C60.4183 35.268 60.2751 34.7039 60.1033 34.0435C59.7454 32.6676 59.2156 31.897 58.2707 31.3879L57.6264 31.044L52.2002 31.0027C46.0725 30.9614 45.8721 30.9889 44.8699 31.9383C44.5549 32.241 44.1397 32.7914 43.9536 33.1766C43.7674 33.5481 43.5813 33.8646 43.524 33.8646C43.4668 33.8646 43.2807 33.5481 43.0945 33.1766C42.9084 32.7914 42.4932 32.241 42.1926 31.9383C41.2763 31.0715 40.7608 30.9752 37.339 30.9752H34.3611V32.0759Z" fill="#2862AC"/>
<path d="M27.4885 40.8874V44.1896H38.9422H50.3959V40.8874V37.5852H38.9422H27.4885V40.8874Z" fill="#2862AC"/>
<path d="M52.687 40.8853V44.1875H58.0559H63.4392L63.7828 43.8435C64.1407 43.5133 64.1407 43.4858 64.1407 40.8853C64.1407 38.2848 64.1407 38.2573 63.7828 37.9271L63.4392 37.5831H58.0559H52.687V40.8853Z" fill="#2862AC"/>
<path d="M22.549 39.2998C21.5325 39.4786 20.6735 39.63 20.6592 39.63C20.6305 39.6437 20.6162 40.1941 20.6162 40.8821C20.6162 42.0516 20.6305 42.1204 20.9455 42.1892C21.5325 42.313 24.7252 42.8083 24.9686 42.8083C25.1691 42.8083 25.1977 42.5744 25.1977 40.8821V38.9558L24.8111 38.9695C24.5821 38.9833 23.5799 39.1346 22.549 39.2998Z" fill="#2862AC"/>
<path d="M43.9678 54.7372C42.5074 54.916 41.3048 55.0811 41.2762 55.1087C41.2475 55.1362 41.2475 56.6084 41.2618 58.3834L41.3048 61.6168L43.9964 58.0531C45.4854 56.0856 46.6737 54.4757 46.6451 54.4482C46.6308 54.4345 45.4138 54.5583 43.9678 54.7372Z" fill="#2862AC"/>
</g>
<defs>
<clipPath id="clip0_27_79">
<rect width="64" height="64" fill="white"/>
</clipPath>
</defs>
</svg>
