<svg width="150" height="174" viewBox="0 0 150 174" fill="none" xmlns="http://www.w3.org/2000/svg">
<g clip-path="url(#clip0_12_2100)">
<path d="M148.352 14.4267C148.72 14.6971 150.307 17.0391 151.855 19.6497C155.326 25.5821 155.358 25.4259 150.864 28.069L147.68 29.9553L148.219 31.6925L148.758 33.4296L147.398 34.2738L146.081 35.1431L147.179 39.2395L148.277 43.3359L157.227 40.9378L166.177 38.5396L166.869 41.1213L167.561 43.7031L156.786 46.5902L145.977 49.4865L145.042 48.8884C144.116 48.3248 143.98 47.9554 142.707 43.2049L141.351 38.1446L140.105 38.5891C138.963 39.006 138.728 38.9581 137.917 37.9949C137.397 37.4331 136.912 36.862 136.841 36.7336C136.735 36.6143 134.953 37.5347 132.856 38.7975C130.794 40.0511 128.823 41.0957 128.485 41.0755C128.148 41.0552 125.529 39.5432 122.671 37.6894C117.095 34.0919 116.346 33.2228 117.602 31.8531C118.239 31.2026 146.336 14.3395 147.232 14.0997C147.472 14.0352 147.994 14.1906 148.352 14.4267ZM144.556 20.4986C144.283 21.2726 144.341 21.626 144.799 22.0938C145.847 23.2519 147.746 22.0788 147.331 20.5297C146.898 18.9118 145.091 18.9163 144.556 20.4986Z" fill="#2862AC"/>
<path d="M138.084 56.6557C139.207 56.5763 141.364 57.88 141.909 58.9514C142.16 59.4745 144.779 65.1187 147.714 71.5269C150.648 77.9352 153.268 83.5794 153.509 84.068L153.974 84.9766L149.637 86.1388C145.437 87.2641 145.29 87.2665 144.915 86.5553C144.736 86.1607 142.726 81.8289 140.501 76.9648C138.266 72.0662 136.247 67.7 135.996 67.1769L135.541 66.3028L124.8 69.1806L114.026 72.0677L114.641 73.6739C115.456 75.8906 115.086 77.5393 113.494 78.4824C112.767 78.9355 109.868 79.8228 105.65 80.8793L98.9444 82.5654L97.8599 81.8229C96.9593 81.2157 96.674 80.7018 96.222 79.015L95.6778 76.984L92.8551 77.7404L89.9979 78.5059L91.592 79.2226C94.8673 80.7062 97.1169 84.4202 97.0318 88.0957C96.9162 95.0998 90.6193 99.0008 84.9015 95.6996C83.0339 94.6504 82.2408 93.7561 81.2097 91.5604C79.7138 88.4561 79.866 85.1686 81.6324 82.2602L82.7001 80.4614L75.5584 82.4488L68.3915 84.4799L69.2055 93.3011C69.659 98.1604 70.1518 103.304 70.2706 104.712L70.5308 107.335L66.2623 108.479C63.9215 109.106 61.9661 109.519 61.9199 109.347C61.883 109.21 61.2555 102.737 60.5276 94.9253C59.0835 79.4842 59.0988 78.8528 61.1334 77.496C61.9454 76.9463 71.522 74.2696 99.7587 66.7405C120.413 61.2062 137.653 56.6976 138.084 56.6557Z" fill="#2862AC"/>
<path d="M24.8227 96.8926L26.3504 97.7746L29.7675 110.252L33.2098 122.686L39.4178 121.207L45.6257 119.728L49.9987 125.308C52.445 128.379 54.4523 131.051 54.4984 131.223C54.5445 131.395 50.7604 132.557 45.6313 133.931L36.6811 136.329L43.23 160.77L49.7789 185.211L50.7772 184.944C53.3246 184.261 55.3987 185.255 55.9891 187.458C56.4226 189.076 55.8756 190.477 54.4808 191.33C53.6596 191.845 48.4457 193.316 38.2033 195.987L23.1669 199.905L22.0505 199.319C20.0175 198.203 19.4357 195.481 20.887 193.875C21.2859 193.436 22.1919 192.824 22.956 192.509L24.2776 191.933L12.7109 148.766C0.0927457 101.674 0.755051 104.559 2.35253 102.397C3.06308 101.469 3.46694 101.324 13.1744 98.7224L23.2606 96.0198L24.8227 96.8926Z" fill="#2862AC"/>
<path d="M104.134 95.0472C105.835 94.9235 107.84 95.3825 109.142 96.251L109.946 96.7734L92.8377 101.358C79.2747 104.992 75.7014 105.839 75.7124 105.467C75.7603 105.233 76.3676 104.332 77.1495 103.532C78.4999 102.1 78.6972 102.011 84.1749 100.285C92.0437 97.844 102.286 95.1734 104.134 95.0472Z" fill="#2862AC"/>
<path d="M154.696 97.0331C157.098 100.079 159.174 102.732 159.351 102.98C159.591 103.322 157.819 103.87 149.695 106.047L139.712 108.722L135.383 103.167C132.98 100.122 130.904 97.4679 130.727 97.2202C130.488 96.8785 132.259 96.33 140.383 94.1532L150.366 91.4782L154.696 97.0331Z" fill="#2862AC"/>
<path d="M119.656 106.163C121.953 109.089 123.97 111.796 124.174 112.147C124.531 112.789 124.393 112.826 114.583 115.455L104.634 118.12L100.199 112.446C97.7343 109.306 95.6145 106.628 95.5432 106.499C95.4282 106.345 99.8664 105.009 105.443 103.514L115.538 100.846L119.656 106.163Z" fill="#2862AC"/>
<path d="M84.6318 115.622C86.9379 118.583 89.0141 121.236 89.2532 121.578C89.6602 122.133 89.316 122.225 79.6589 124.739L69.6483 127.311L65.188 121.68C62.7761 118.6 60.7344 115.937 60.6975 115.8C60.6606 115.662 65.0644 114.334 70.5034 112.877L80.4174 110.221L84.6318 115.622Z" fill="#2862AC"/>
<path d="M174.532 122.045C177.336 132.51 178.767 138.399 178.701 139.118C178.569 140.555 177.504 142.501 176.309 143.411C175.763 143.852 174.304 144.465 173.065 144.797L170.827 145.396L171.639 148.426C172.368 151.145 172.421 151.758 171.955 153.875C171.102 158.126 168.401 160.989 164.227 162.071C157.652 163.833 152.292 160.214 150.272 152.675L149.829 151.023L145.25 152.25L140.638 153.486L140.603 155.008C140.526 157.611 140.457 157.63 124.525 161.788C111.417 165.19 110.547 165.386 109.692 164.951C109.221 164.708 108.587 163.992 108.283 163.41L107.763 162.295L103.012 163.567L98.262 164.84L99.019 168.216C99.8707 172.083 99.6846 173.867 98.0718 176.661C96.5598 179.28 94.6217 180.721 91.6017 181.568C88.4691 182.407 85.5141 181.981 82.9616 180.304C80.5149 178.746 79.3191 177.037 78.128 173.556L77.0914 170.513L74.9915 171.076C72.2032 171.823 69.7922 171.362 68.2522 169.745C67.0915 168.58 67.073 168.512 62.7286 152.298L58.3749 136.05L114.314 121.061L170.252 106.073L174.532 122.045ZM147.812 117.472C145.285 119.883 144.323 123.314 145.22 126.8C146.479 131.776 151.708 134.765 156.734 133.419C161.966 132.016 164.823 127.119 163.439 121.955C161.53 114.829 153.139 112.429 147.812 117.472ZM76.095 135.951C73.9042 137.276 71.9841 140.299 71.7138 142.733C71.4822 144.898 72.3677 148.203 73.5862 149.721C74.8324 151.342 77.2952 152.822 79.4375 153.245C81.6327 153.726 85.1716 152.889 86.9124 151.537C89.5156 149.548 90.9759 145.91 90.5379 142.485C90.0808 138.439 86.1555 134.805 81.9495 134.53C79.3873 134.331 78.2513 134.635 76.095 135.951ZM100.177 136.324C99.647 136.687 99.1129 137.31 99.033 137.7C98.7429 138.958 99.4107 140.624 100.433 141.273L101.368 141.871L118.546 137.268L135.723 132.665L136.319 131.583C137.437 129.697 136.144 127.35 133.841 127.156C132.707 127.054 101.211 135.641 100.177 136.324ZM108.403 148.435C107.477 149.937 107.975 151.796 109.528 152.635L110.645 153.221L122.177 150.131L133.709 147.041L134.276 145.856C134.586 145.219 134.724 144.223 134.586 143.707C134.263 142.502 132.765 141.317 131.643 141.396C131.202 141.404 125.926 142.78 119.945 144.42L109.077 147.369L108.403 148.435Z" fill="#2862AC"/>
</g>
<defs>
<clipPath id="clip0_12_2100">
<path d="M0 0H138C144.627 0 150 5.37258 150 12V162C150 168.627 144.627 174 138 174H0V0Z" fill="white"/>
</clipPath>
</defs>
</svg>
