<svg width="119" height="174" viewBox="0 0 119 174" fill="none" xmlns="http://www.w3.org/2000/svg">
<g clip-path="url(#clip0_12_2116)">
<path d="M15.7711 58.2439C12.7179 59.918 10.4025 63.1842 9.67808 66.7245L9.25688 68.7828L29.5381 144.473L49.8194 220.164L51.0921 221.574C53.063 223.847 54.9237 224.983 57.7884 225.655L60.4062 226.276L101.246 215.333L142.087 204.39L144.043 202.543C146.215 200.483 147.002 199.065 147.715 195.917L148.199 193.803L127.918 118.113L107.637 42.422L105.789 40.4657C103.775 38.3207 101.861 37.2772 98.9071 36.707L97.0497 36.3097L56.9161 46.9857C34.8442 52.8998 16.3494 57.9333 15.7711 58.2439ZM55.5912 56.5621L56.3693 59.4663L53.4651 60.2445L50.5609 61.0226L49.7828 58.1184L49.0046 55.2143L51.9088 54.4361L54.813 53.6579L55.5912 56.5621ZM73.0164 51.893L73.7945 54.7972L67.9861 56.3536L62.1777 57.9099L61.3996 55.0057L60.6214 52.1015L66.4298 50.5452L72.2382 48.9888L73.0164 51.893ZM103.728 53.9746L104.869 54.6027L121.513 116.716L138.156 178.83L137.482 179.944L136.854 181.085L95.0697 192.281L53.2856 203.477L52.1711 202.803L51.0301 202.175L34.3868 140.062L17.7436 77.948L18.4177 76.8336L19.0458 75.6925L60.8299 64.4965L102.614 53.3005L103.728 53.9746ZM99.0493 197.985C103.207 198.544 105.418 203.165 103.292 206.848C101.564 209.84 98.2245 210.735 95.2326 209.007C89.5346 205.748 92.5431 197.083 99.0493 197.985Z" fill="#2862AC"/>
<path d="M35.5456 121.152L46.4692 161.92L74.1075 114.049L101.746 66.1782L100.948 63.2014L100.141 60.1883L62.3862 70.3046L24.6316 80.4209L35.5456 121.152Z" fill="#2862AC"/>
<path d="M76.2919 122.491L48.7068 170.27L52.2378 183.448L55.759 196.59L93.5136 186.473L131.268 176.357L120.354 135.626L109.431 94.8579L100.129 110.968L90.8279 127.079L88.1945 125.528L85.5345 124.023L96.3772 105.242L107.22 86.4623L105.535 80.6105L103.85 74.7587L76.2919 122.491ZM84.9691 131.061C86.1659 131.752 87.2175 132.482 87.2758 132.7C87.3342 132.917 86.4695 134.628 85.38 136.515L83.3868 139.967L80.7534 138.416L78.0934 136.911L80.0865 133.459C81.1761 131.571 82.2249 129.968 82.4064 129.919C82.6242 129.861 83.7724 130.37 84.9691 131.061Z" fill="#2862AC"/>
</g>
<defs>
<clipPath id="clip0_12_2116">
<path d="M0 0H107C113.627 0 119 5.37258 119 12V162C119 168.627 113.627 174 107 174H0V0Z" fill="white"/>
</clipPath>
</defs>
</svg>
