<svg width="39" height="57" viewBox="0 0 39 57" fill="none" xmlns="http://www.w3.org/2000/svg">
	<path
		d="M61.7605 46.7204L37.3008 3.91696C36.6896 2.86829 35.817 1.99879 34.7696 1.39464C33.7221 0.790485 32.5362 0.472656 31.3293 0.472656C30.1224 0.472656 28.9364 0.790485 27.889 1.39464C26.8415 1.99879 25.9689 2.86829 25.3577 3.91696L0.898037 46.7204C0.309931 47.7347 0 48.8884 0 50.0631C0 51.2378 0.309931 52.3915 0.898037 53.4058C1.50143 54.4608 2.37252 55.335 3.42193 55.9388C4.47133 56.5425 5.66126 56.8541 6.86961 56.8414H55.7889C56.9963 56.8531 58.1851 56.541 59.2334 55.9373C60.2818 55.3336 61.152 54.4599 61.7549 53.4058C62.3439 52.392 62.6548 51.2386 62.6557 50.0639C62.6567 48.8891 62.3478 47.7352 61.7605 46.7204ZM57.8811 51.1482C57.6678 51.5147 57.3617 51.8175 56.9941 52.0255C56.6264 52.2335 56.2105 52.3393 55.7889 52.3319H6.86961C6.44804 52.3393 6.03211 52.2335 5.66447 52.0255C5.29682 51.8175 4.99069 51.5147 4.77746 51.1482C4.58431 50.8187 4.48243 50.443 4.48243 50.0603C4.48243 49.6776 4.58431 49.3019 4.77746 48.9724L29.2371 6.16889C29.4547 5.8041 29.7622 5.50226 30.1298 5.2927C30.4974 5.08314 30.9125 4.97301 31.3349 4.97301C31.7572 4.97301 32.1724 5.08314 32.5399 5.2927C32.9075 5.50226 33.2151 5.8041 33.4326 6.16889L57.8923 48.9724C58.0837 49.3029 58.1837 49.6791 58.1817 50.0618C58.1797 50.4445 58.0759 50.8197 57.8811 51.1482ZM29.0917 34.294V23.0203C29.0917 22.4223 29.3274 21.8488 29.747 21.4259C30.1667 21.0031 30.7358 20.7655 31.3293 20.7655C31.9227 20.7655 32.4919 21.0031 32.9115 21.4259C33.3311 21.8488 33.5669 22.4223 33.5669 23.0203V34.294C33.5669 34.892 33.3311 35.4655 32.9115 35.8883C32.4919 36.3112 31.9227 36.5487 31.3293 36.5487C30.7358 36.5487 30.1667 36.3112 29.747 35.8883C29.3274 35.4655 29.0917 34.892 29.0917 34.294ZM34.6856 44.4403C34.6856 45.1093 34.4888 45.7632 34.12 46.3193C33.7512 46.8755 33.227 47.309 32.6137 47.565C32.0004 47.821 31.3255 47.888 30.6745 47.7575C30.0234 47.627 29.4253 47.3048 28.9559 46.8319C28.4865 46.3589 28.1669 45.7562 28.0374 45.1002C27.9079 44.4441 27.9743 43.7641 28.2284 43.1461C28.4824 42.5281 28.9126 41.9998 29.4646 41.6282C30.0165 41.2566 30.6654 41.0582 31.3293 41.0582C32.2194 41.0582 33.0731 41.4146 33.7026 42.0488C34.332 42.6831 34.6856 43.5433 34.6856 44.4403Z"
		fill="#0E0E0E" />
</svg>