<svg width="14" height="94" viewBox="0 0 14 94" fill="none" xmlns="http://www.w3.org/2000/svg">
<path fill-rule="evenodd" clip-rule="evenodd" d="M8 16.5305C8 15.0378 9.14933 13.8297 10.4478 13.0934C12.5689 11.8907 14 9.61246 14 7C14 3.13401 10.866 0 7 0C3.13401 0 0 3.13401 0 7C0 9.61246 1.43112 11.8907 3.55216 13.0934C4.85067 13.8297 6 15.0378 6 16.5305V37.4695C6 38.9622 4.85067 40.1703 3.55216 40.9066C1.43112 42.1093 0 44.3875 0 47C0 49.6125 1.43112 51.8907 3.55216 53.0934C4.85067 53.8297 6 55.0378 6 56.5305V77.4695C6 78.9622 4.85067 80.1703 3.55216 80.9066C1.43112 82.1093 0 84.3875 0 87C0 90.866 3.13401 94 7 94C10.866 94 14 90.866 14 87C14 84.3875 12.5689 82.1093 10.4478 80.9066C9.14933 80.1703 8 78.9622 8 77.4695V56.5305C8 55.0378 9.14933 53.8297 10.4478 53.0934C12.5689 51.8907 14 49.6125 14 47C14 44.3875 12.5689 42.1093 10.4478 40.9066C9.14933 40.1703 8 38.9622 8 37.4695V16.5305Z" fill="#2862AC"/>
</svg>
