<svg width="24" height="24" viewBox="0 0 24 24" fill="none" xmlns="http://www.w3.org/2000/svg">
<path fill-rule="evenodd" clip-rule="evenodd" d="M13.7678 17.6162C13.2989 18.0449 12.663 18.2857 12 18.2857C11.337 18.2857 10.7011 18.0449 10.2322 17.6162C9.76339 17.1876 9.5 16.6062 9.5 16C9.5 15.3938 9.76339 14.8124 10.2322 14.3838C10.7011 13.9551 11.337 13.7143 12 13.7143C12.663 13.7143 13.2989 13.9551 13.7678 14.3838C14.2366 14.8124 14.5 15.3938 14.5 16C14.5 16.6062 14.2366 17.1876 13.7678 17.6162ZM21.2678 8.66947C20.7989 8.24082 20.163 8 19.5 8H18.25H15.75H8.25V5.71429C8.25 4.80497 8.64509 3.9329 9.34835 3.28992C10.0516 2.64694 11.0054 2.28571 12 2.28571C12.9946 2.28571 13.9484 2.64694 14.6517 3.28992C15.3549 3.9329 15.75 4.80497 15.75 5.71429H18.25C18.25 4.96387 18.0883 4.22081 17.7742 3.52752C17.4602 2.83423 16.9998 2.2043 16.4194 1.67368C15.8391 1.14306 15.1501 0.722144 14.3918 0.434974C13.6335 0.147804 12.8208 0 12 0C10.3424 0 8.75269 0.602039 7.58058 1.67368C6.40848 2.74531 5.75 4.19876 5.75 5.71429V8H4.5C3.83696 8 3.20107 8.24082 2.73223 8.66947C2.26339 9.09812 2 9.67951 2 10.2857V21.7143C2 22.3205 2.26339 22.9019 2.73223 23.3305C3.20107 23.7592 3.83696 24 4.5 24H19.5C20.163 24 20.7989 23.7592 21.2678 23.3305C21.7366 22.9019 22 22.3205 22 21.7143V10.2857C22 9.67951 21.7366 9.09812 21.2678 8.66947Z" fill="#2862AC"/>
</svg>
