<svg width="24" height="24" viewBox="0 0 24 24" fill="none" xmlns="http://www.w3.org/2000/svg">
<path d="M12 18.2857C12.663 18.2857 13.2989 18.0449 13.7678 17.6162C14.2366 17.1876 14.5 16.6062 14.5 16C14.5 15.3938 14.2366 14.8124 13.7678 14.3838C13.2989 13.9551 12.663 13.7143 12 13.7143C11.337 13.7143 10.7011 13.9551 10.2322 14.3838C9.76339 14.8124 9.5 15.3938 9.5 16C9.5 16.6062 9.76339 17.1876 10.2322 17.6162C10.7011 18.0449 11.337 18.2857 12 18.2857ZM19.5 8C20.163 8 20.7989 8.24082 21.2678 8.66947C21.7366 9.09813 22 9.67951 22 10.2857V21.7143C22 22.3205 21.7366 22.9019 21.2678 23.3305C20.7989 23.7592 20.163 24 19.5 24H4.5C3.83696 24 3.20107 23.7592 2.73223 23.3305C2.26339 22.9019 2 22.3205 2 21.7143V10.2857C2 9.67951 2.26339 9.09813 2.73223 8.66947C3.20107 8.24082 3.83696 8 4.5 8H5.75V5.71429C5.75 4.19876 6.40848 2.74531 7.58058 1.67368C8.75269 0.602039 10.3424 0 12 0C12.8208 0 13.6335 0.147804 14.3918 0.434974C15.1501 0.722144 15.8391 1.14306 16.4194 1.67368C16.9998 2.2043 17.4602 2.83423 17.7742 3.52752C18.0883 4.22081 18.25 4.96388 18.25 5.71429V8H19.5ZM12 2.28571C11.0054 2.28571 10.0516 2.64694 9.34835 3.28992C8.64509 3.9329 8.25 4.80497 8.25 5.71429V8H15.75V5.71429C15.75 4.80497 15.3549 3.9329 14.6517 3.28992C13.9484 2.64694 12.9946 2.28571 12 2.28571Z" fill="#D92A2A"/>
</svg>
