<svg width="64" height="64" viewBox="0 0 64 64" fill="none" xmlns="http://www.w3.org/2000/svg">
<g clip-path="url(#clip0_27_66)">
<path d="M48.2605 12.2951V24.4574H47.85C45.8723 24.4699 42.9369 26.1289 41.6309 27.9751C40.6483 29.3722 40.6731 29.2599 40.6731 32.129V34.6986L41.4816 35.6342C43.3598 37.7922 44.4917 40.2746 44.9022 43.1062C44.9644 43.5802 45.0265 45.5012 45.0265 47.3598V50.7403L43.8698 50.8027C43.1235 50.8526 42.4767 50.9649 42.0165 51.1395C40.5612 51.7008 39.3174 52.9607 38.795 54.3952C38.5338 55.1312 38.5213 55.1312 37.9492 55.2061C35.6356 55.5179 33.8321 57.0023 33.2102 59.098L33.0485 59.6344H31.7549C31.0584 59.6344 30.4738 59.5969 30.4738 59.5595C30.4738 59.5221 30.6728 59.1604 30.8967 58.7612C32.2773 56.3911 32.8992 54.046 32.8868 51.152C32.8868 48.6946 32.4141 46.6738 31.3444 44.5407C31.0832 44.0293 29.6653 41.5344 28.1851 38.9897C26.705 36.4575 25.5233 34.3119 25.5482 34.2246C25.5855 34.1498 26.904 32.129 28.4961 29.7339C30.0882 27.3514 31.4937 25.106 31.6181 24.7692C32.0783 23.4595 31.8047 22.2245 30.8345 21.1642C30.0384 20.2786 29.2548 19.9667 27.8866 19.9667C26.0084 19.9792 25.3119 20.6278 23.7198 23.8711C22.0904 27.1892 21.8665 27.2641 20.7097 24.894C19.6898 22.7859 19.0181 22.2121 17.5753 22.2121C16.1324 22.2245 15.3737 22.8607 14.4284 24.8815C13.284 27.3389 13.0477 27.2266 11.182 23.4096C10.1745 21.3513 9.41574 20.3908 8.53263 20.0915C7.81121 19.8544 6.03253 19.9792 5.39818 20.316C4.11704 20.9771 3.48269 21.8877 3.38318 23.21C3.3583 23.6715 3.37074 24.2703 3.40805 24.5198C3.47025 24.8067 4.57726 26.5905 6.59225 29.6341L9.68939 34.2995L6.94053 39.0147C3.80608 44.4035 3.48269 45.0147 2.98515 46.5116C1.61694 50.6156 2.11448 55.1686 4.34093 58.9857L4.72651 59.6344H2.36324H-3.43323e-05V34.3119V8.9895L4.37824 8.96455L8.76896 8.92713L8.80627 4.52377L8.83115 0.132885H28.5458H48.2605V12.2951ZM30.5359 2.61523C29.7896 2.95203 29.2797 3.43852 28.9314 4.14955C28.608 4.78572 28.608 4.82315 28.608 7.71714C28.608 9.6132 28.6578 10.8232 28.7573 11.135C28.9812 11.9084 29.8643 12.7941 30.6852 13.106C31.3569 13.3554 31.5434 13.3679 37.5511 13.3305L43.7205 13.2931L44.3798 12.9313C45.1634 12.4947 45.7107 11.7837 45.9719 10.8856C46.2455 9.95 46.1709 5.02274 45.8723 4.36161C45.5738 3.67553 44.9022 2.98946 44.2181 2.6776L43.5961 2.37822H37.3148C31.5061 2.37822 30.9962 2.40317 30.5359 2.61523ZM10.9457 3.43852V4.49882H18.6574H26.3691V3.43852V2.37822H18.6574H10.9457V3.43852ZM24.1551 7.82941L24.1924 8.92713L25.2746 8.96455L26.3691 9.00197V7.86683V6.74416H25.2497H24.1178L24.1551 7.82941ZM10.9705 7.82941L11.0078 8.92713H16.4807H21.9535L21.9908 7.82941L22.0282 6.74416H16.4807H10.9332L10.9705 7.82941ZM2.23886 12.2328V13.3554H14.304H26.3691V12.2328V11.1101H14.304H2.23886V12.2328ZM6.59225 16.6611V17.7214H26.3691H46.146V16.6611V15.6008H26.3691H6.59225V16.6611ZM2.23886 16.6611V17.7214H3.29611H4.35336V16.6611V15.6008H3.29611H2.23886V16.6611ZM34.0809 21.0894V22.2121L40.0761 22.1871L46.0838 22.1497L46.1211 21.052L46.1584 19.9667H40.1134H34.0809V21.0894Z" fill="#2862AC"/>
<path d="M43.2356 4.62282C43.8575 4.87231 43.9072 5.12179 43.9072 7.87857C43.9072 10.4358 43.9072 10.4482 43.5963 10.785L43.2978 11.1094H37.3274H31.3694L31.046 10.7227L30.7226 10.336V7.91599C30.7226 5.27148 30.7973 4.9222 31.4068 4.64777C31.7923 4.47313 42.8127 4.44819 43.2356 4.62282Z" fill="#2862AC"/>
<path d="M6.59253 4.24892V6.74374H4.08H1.55503L4.04268 4.24892C5.41089 2.87677 6.54278 1.7541 6.55521 1.7541C6.58009 1.7541 6.59253 2.87677 6.59253 4.24892Z" fill="#2862AC"/>
<path d="M29.1804 22.6354C29.5286 22.9847 29.6033 23.1594 29.6033 23.571C29.6033 24.0201 29.2799 24.5565 26.5808 28.623L23.5707 33.1885H17.563H11.5678L8.58258 28.6979C6.94073 26.228 5.57252 24.07 5.52276 23.8953C5.41082 23.4338 5.56008 22.9722 5.97054 22.5731C6.29394 22.2487 6.40588 22.2113 7.13974 22.2113C7.91091 22.2113 7.96066 22.2363 8.25918 22.623C8.43332 22.86 8.91841 23.7706 9.34131 24.6562C10.8339 27.7997 11.5678 28.5981 13.0604 28.6729C14.553 28.7602 15.2495 28.1864 16.3441 25.9785C17.4262 23.808 17.7372 23.808 18.8068 25.9785C19.18 26.7519 19.6402 27.5752 19.8268 27.7872C20.5731 28.6729 22.0906 28.9848 23.1105 28.4609C23.9065 28.0492 24.5533 27.1511 25.6728 24.8933C26.2574 23.7207 26.842 22.6479 26.9912 22.4858C27.2027 22.2612 27.3768 22.2113 27.9987 22.2113C28.6953 22.2113 28.7948 22.2487 29.1804 22.6354Z" fill="#2862AC"/>
<path d="M51.6436 26.7769C53.1238 27.1262 54.7283 28.2488 55.6115 29.5212C55.9722 30.0576 55.9722 30.0576 55.9722 31.9287V33.7998L55.1886 34.7728C53.8452 36.4568 52.9248 38.1907 52.3153 40.199C51.7432 42.0951 51.6188 43.3051 51.6188 47.1845V50.7771H49.4421H47.2654V47.8082C47.2529 46.1866 47.2032 44.2656 47.141 43.5421C46.8425 40.2115 45.524 37.0057 43.4468 34.5483L42.7876 33.7624V31.9287V30.095L43.3473 29.3466C44.2802 28.0617 45.6111 27.1761 47.2032 26.7644C48.1236 26.5274 50.661 26.5274 51.6436 26.7769Z" fill="#2862AC"/>
<path d="M15.2827 50.2181H19.3369C21.0757 50.2181 22.4902 48.792 22.4902 47.0389C22.4902 45.2858 21.0757 43.8596 19.3369 43.8596H15.2827L15.2827 50.2181Z" fill="#2862AC"/>
<path fill-rule="evenodd" clip-rule="evenodd" d="M26.4065 40.3362C28.0235 43.093 29.4788 45.7001 29.6654 46.0993C30.8843 48.856 31.046 52.2989 30.0883 55.2054C28.7076 59.3592 25.4363 62.4403 21.1451 63.6004C17.6933 64.2291 13.5209 63.3385 11.8662 62.8146C10.3114 62.0911 9.32877 61.3925 8.13469 60.2075C4.54003 56.6025 3.4579 51.5005 5.26145 46.6855C5.51022 45.9995 6.69185 43.829 8.44565 40.7978C9.988 38.1533 11.3438 35.8455 11.4682 35.646L11.7045 35.3092H17.6002H23.4835L26.4065 40.3362ZM13.4808 42.0429H19.3369C22.0757 42.0429 24.292 44.2775 24.292 47.0389C24.292 49.8003 22.0757 52.0348 19.3369 52.0348H15.2827V53.8515H18.8864V55.6682H15.2827V58.3933H13.4808V55.6682H11.6789V53.8515H13.4808V52.0348H11.6789V50.2181H13.4808V42.0429ZM19.3369 50.2181H15.2827L15.2827 43.8596H19.3369C21.0757 43.8596 22.4902 45.2858 22.4902 47.0389C22.4902 48.792 21.0757 50.2181 19.3369 50.2181Z" fill="#2862AC"/>
<path d="M56.1589 53.2598C56.8555 53.5716 57.4276 54.0956 57.7137 54.6569L57.9625 55.1309L56.9923 55.1683L56.0345 55.2058L55.9972 56.291L55.9599 57.3887H58.3729C61.0223 57.3887 61.6069 57.4885 62.3656 58.0748C62.7636 58.3742 63.4353 59.3097 63.4353 59.5467C63.4353 59.5966 58.062 59.6341 51.4946 59.6341H39.5538V60.6944V61.7547H51.6189H63.6841V62.8773V64H49.3801H35.0636L35.1009 62.9148L35.1382 61.817L36.2204 61.7796L37.3149 61.7422V60.6944V59.6341H36.3821C35.8099 59.6341 35.4492 59.5842 35.4492 59.5093C35.4492 59.0478 36.295 58.0997 37.0662 57.6881C37.4766 57.4636 37.9742 57.4511 45.6859 57.4137L53.8703 57.3762L53.833 56.291L53.7956 55.2058L47.3526 55.1683C41.6061 55.1434 40.922 55.1184 40.922 54.9438C40.922 54.5945 42.3027 53.3346 42.8624 53.1725C43.2355 53.0602 45.064 53.0228 49.5169 53.0228C55.1887 53.0228 55.6987 53.0477 56.1589 53.2598Z" fill="#2862AC"/>
</g>
<defs>
<clipPath id="clip0_27_66">
<rect width="64" height="64" fill="white"/>
</clipPath>
</defs>
</svg>
