<svg width="120" height="120" viewBox="0 0 120 120" fill="none" xmlns="http://www.w3.org/2000/svg">
<g clip-path="url(#clip0_12_2049)">
<path d="M90.4883 23.0534V45.8576H89.7187C86.0105 45.881 80.5066 48.9917 78.0578 52.4533C76.2154 55.0729 76.262 54.8624 76.262 60.2418V65.0599L77.7779 66.8141C81.2995 70.8604 83.4218 75.5148 84.1914 80.8241C84.308 81.7129 84.4246 85.3148 84.4246 88.7997V95.1381L82.2557 95.2551C80.8564 95.3486 79.6437 95.5591 78.7807 95.8866C76.0521 96.9391 73.7199 99.3014 72.7404 101.991C72.2507 103.371 72.2273 103.371 71.1545 103.511C66.8167 104.096 63.435 106.879 62.2689 110.809L61.9657 111.814H59.5403C58.2343 111.814 57.1381 111.744 57.1381 111.674C57.1381 111.604 57.5113 110.926 57.9311 110.177C60.5198 105.733 61.6859 101.336 61.6626 95.91C61.6626 91.3023 60.7763 87.5133 58.7707 83.5138C58.2809 82.5549 55.6222 77.8771 52.8469 73.1057C50.0716 68.3578 47.8561 64.3349 47.9027 64.1712C47.9727 64.0308 50.4448 60.2418 53.43 55.7511C56.4152 51.2839 59.0505 47.0738 59.2837 46.4423C60.1466 43.9865 59.6336 41.671 57.8145 39.6829C56.3219 38.0223 54.8526 37.4376 52.2872 37.4376C48.7656 37.461 47.4596 38.6772 44.4744 44.7583C41.4193 50.9798 40.9995 51.1201 38.8305 46.6762C36.9182 42.7235 35.6588 41.6476 32.9535 41.6476C30.2481 41.671 28.8255 42.8638 27.053 46.6528C24.9074 51.2605 24.4643 51.05 20.9661 43.8929C19.077 40.0338 17.6544 38.2328 15.9985 37.6715C14.6459 37.2271 11.3108 37.461 10.1214 38.0925C7.71929 39.3321 6.52988 41.0395 6.34331 43.5187C6.29666 44.3841 6.31998 45.5068 6.38995 45.9746C6.50656 46.5125 8.5822 49.8571 12.3603 55.564L18.1674 64.3115L13.0133 73.1525C7.13625 83.2565 6.52988 84.4026 5.59701 87.2093C3.03162 94.9042 3.96449 103.441 8.13908 110.598L8.86206 111.814H4.43092H-0.000213623V64.3349V16.8553L8.20905 16.8085L16.4416 16.7384L16.5116 8.48208L16.5582 0.249168H53.5233H90.4883V23.0534ZM57.2547 4.90357C55.8554 5.53507 54.8993 6.44724 54.2462 7.78041C53.6399 8.97324 53.6399 9.04341 53.6399 14.4697C53.6399 18.0248 53.7332 20.2935 53.9197 20.8782C54.3395 22.3283 55.9954 23.989 57.5346 24.5737C58.794 25.0415 59.1438 25.0648 70.4082 24.9947L81.9758 24.9245L83.2119 24.2462C84.6812 23.4276 85.7073 22.0944 86.1971 20.4104C86.7102 18.6563 86.5702 9.41764 86.0105 8.17802C85.4508 6.89163 84.1914 5.60524 82.9087 5.02052L81.7426 4.45918H69.9651C59.0738 4.45918 58.1177 4.50596 57.2547 4.90357ZM20.5229 6.44724V8.4353H34.9825H49.442V6.44724V4.45918H34.9825H20.5229V6.44724ZM45.2907 14.6802L45.3606 16.7384L47.3896 16.8085L49.442 16.8787V14.7503V12.6453H47.343H45.2207L45.2907 14.6802ZM20.5696 14.6802L20.6396 16.7384H30.9011H41.1627L41.2327 14.6802L41.3027 12.6453H30.9011H20.4996L20.5696 14.6802ZM4.1977 22.9364V25.0415H26.8198H49.442V22.9364V20.8314H26.8198H4.1977V22.9364ZM12.3603 31.2395V33.2276H49.442H86.5236V31.2395V29.2515H49.442H12.3603V31.2395ZM4.1977 31.2395V33.2276H6.18005H8.16241V31.2395V29.2515H6.18005H4.1977V31.2395ZM63.9015 39.5426V41.6476L75.1426 41.6008L86.407 41.5307L86.4769 39.4724L86.5469 37.4376H75.2125H63.9015V39.5426Z" fill="white"/>
<path d="M81.0668 8.66782C82.2329 9.1356 82.3262 9.60338 82.3262 14.7723C82.3262 19.5671 82.3262 19.5905 81.7431 20.222L81.1834 20.8301H69.989H58.8178L58.2115 20.105L57.6051 19.38V14.8425C57.6051 9.88405 57.745 9.22916 58.8878 8.7146C59.6108 8.38715 80.2739 8.34038 81.0668 8.66782Z" fill="white"/>
<path d="M12.3608 7.96674V12.6445H7.64984H2.91552L7.57988 7.96674C10.1453 5.39396 12.2676 3.28895 12.2909 3.28895C12.3375 3.28895 12.3608 5.39396 12.3608 7.96674Z" fill="white"/>
<path d="M54.7129 42.4415C55.3659 43.0964 55.5059 43.4238 55.5059 44.1956C55.5059 45.0376 54.8995 46.0434 49.8387 53.6682L44.1948 62.2285H32.9304H21.6893L16.0921 53.8085C13.0136 49.1775 10.4482 45.1312 10.3549 44.8037C10.145 43.9384 10.4249 43.073 11.1945 42.3245C11.8008 41.7164 12.0107 41.6462 13.3867 41.6462C14.8327 41.6462 14.926 41.693 15.4857 42.4181C15.8122 42.8625 16.7217 44.5699 17.5147 46.2305C20.3133 52.1245 21.6893 53.6214 24.4879 53.7617C27.2865 53.9254 28.5925 52.8495 30.6448 48.7097C32.6738 44.64 33.2569 44.64 35.2626 48.7097C35.9622 50.1598 36.8251 51.7035 37.1749 52.1011C38.5742 53.7617 41.4195 54.3464 43.3319 53.3641C44.8245 52.5923 46.0372 50.9083 48.1362 46.6749C49.2323 44.4763 50.3284 42.4649 50.6083 42.1608C51.0048 41.7398 51.3313 41.6462 52.4974 41.6462C53.8034 41.6462 53.9899 41.7164 54.7129 42.4415Z" fill="white"/>
<path d="M96.8318 50.2067C99.6071 50.8616 102.616 52.9666 104.271 55.3523C104.948 56.358 104.948 56.358 104.948 59.8663V63.3747L103.478 65.199C100.96 68.3565 99.2339 71.6076 98.0912 75.3732C97.0183 78.9283 96.7851 81.197 96.7851 88.471V95.207H92.7038H88.6225V89.6405C88.5992 86.5999 88.5059 82.998 88.3893 81.6414C87.8296 75.3966 85.3575 69.3856 81.4627 64.778L80.2267 63.3045V59.8663V56.4282L81.2761 55.0248C83.0253 52.6157 85.5207 50.9551 88.5059 50.1833C90.2317 49.7389 94.9894 49.7389 96.8318 50.2067Z" fill="white"/>
<path d="M28.6551 94.159H36.2568C39.517 94.159 42.1692 91.485 42.1692 88.1979C42.1692 84.9108 39.517 82.2368 36.2568 82.2368H28.6551L28.6551 94.159Z" fill="white"/>
<path fill-rule="evenodd" clip-rule="evenodd" d="M49.5123 75.6304C52.5442 80.7994 55.2728 85.6877 55.6226 86.4361C57.9082 91.6051 58.2113 98.0604 56.4156 103.51C53.8268 111.299 47.6932 117.076 39.6472 119.251C33.175 120.43 25.3518 118.76 22.2492 117.777C19.334 116.421 17.4915 115.111 15.2526 112.889C8.51265 106.13 6.48365 96.5635 9.86531 87.5354C10.3317 86.249 12.5473 82.1793 15.8357 76.4958C18.7276 71.5374 21.2697 67.2104 21.5029 66.8362L21.946 66.2047H33.0005H44.0317L49.5123 75.6304ZM25.2766 78.8305H36.2568C41.3921 78.8305 45.5477 83.0203 45.5477 88.1979C45.5477 93.3755 41.3921 97.5653 36.2568 97.5653H28.6551V100.972H35.4121V104.378H28.6551V109.487H25.2766V104.378H21.898V100.972H25.2766V97.5653H21.898V94.159H25.2766V78.8305ZM36.2568 94.159H28.6551L28.6551 82.2368H36.2568C39.517 82.2368 42.1692 84.9108 42.1692 88.1979C42.1692 91.485 39.517 94.159 36.2568 94.159Z" fill="white"/>
<path d="M105.298 99.8621C106.604 100.447 107.677 101.429 108.213 102.482L108.68 103.37L106.861 103.441L105.065 103.511L104.995 105.546L104.925 107.604H109.449C114.417 107.604 115.513 107.791 116.936 108.89C117.682 109.452 118.941 111.206 118.941 111.65C118.941 111.744 108.866 111.814 96.5524 111.814H74.1635V113.802V115.79H96.7856H119.408V117.895V120H92.5877H65.7443L65.8143 117.965L65.8842 115.907L67.9132 115.837L69.9655 115.767V113.802V111.814H68.2164C67.1436 111.814 66.4673 111.72 66.4673 111.58C66.4673 110.715 68.0532 108.937 69.4991 108.165C70.2687 107.744 71.2016 107.721 85.6611 107.651L101.007 107.58L100.937 105.546L100.867 103.511L88.7862 103.441C78.0116 103.394 76.7289 103.347 76.7289 103.02C76.7289 102.365 79.3176 100.002 80.3671 99.6984C81.0667 99.4879 84.495 99.4177 92.8442 99.4177C103.479 99.4177 104.435 99.4645 105.298 99.8621Z" fill="white"/>
</g>
<defs>
<clipPath id="clip0_12_2049">
<rect width="120" height="120" fill="white"/>
</clipPath>
</defs>
</svg>
