<svg width="36" height="33" viewBox="0 0 36 33" fill="none" xmlns="http://www.w3.org/2000/svg">
<path d="M8.33484 11.5219C7.33641 12.2587 4.12578 15.4387 3.53846 16.2724C2.81411 17.3001 2.81411 17.7267 3.57762 18.3472C4.24324 18.9095 4.79139 18.9676 5.51574 18.5605C6.39671 18.0563 6.69037 18.1727 6.69037 19.0064C6.69037 20.4219 7.45387 22.3415 8.86342 24.5132C9.11792 24.901 9.4703 25.2306 9.62692 25.25C9.95973 25.25 13.5423 21.7792 13.5423 21.4496C13.5423 21.3526 13.2878 20.8485 12.955 20.3443C12.6418 19.8402 12.3285 19.2197 12.2502 18.9483C12.1524 18.5217 12.1915 18.4635 12.6222 18.4635C12.8963 18.4635 13.1899 18.5411 13.2487 18.6574C13.3074 18.7544 13.6989 18.8513 14.1101 18.8513C15.0302 18.8513 15.5 18.3859 15.5 17.4552C15.5 16.5827 14.7169 15.5744 12.0153 12.9761C9.84227 10.9014 9.392 10.7269 8.33484 11.5219Z" fill="#2862AC"/>
<path d="M12.7369 24.3379C11.1549 25.5396 10.3534 26.5409 10.5221 27.1417C10.6909 27.8227 10.6909 27.8227 11.2182 27.6624C12.3572 27.322 14.8462 24.6383 14.6564 23.9574C14.4877 23.3566 13.897 23.4768 12.7369 24.3379Z" fill="#2862AC"/>
<path d="M20.8029 24.5449C19.9627 24.8868 19.1634 25.7514 18.9379 26.616C18.774 27.2393 18.7945 27.5812 19.0609 28.2849C19.9832 30.6174 22.9344 30.9592 24.1845 28.8479C25.3527 26.9176 24.3075 24.7862 22.0326 24.4444C21.6432 24.3841 21.0899 24.4243 20.8029 24.5449Z" fill="#2862AC"/>
<path d="M15.6512 25.3051C14.4939 26.7994 14.3407 28.4955 15.2768 29.6666C15.8384 30.3936 16.2639 30.4339 16.8936 29.8282C17.5403 29.2224 17.9998 27.9503 17.9998 26.7186C17.9998 25.8301 17.9147 25.5676 17.5063 25.0426C17.234 24.6994 16.8595 24.4167 16.6723 24.4167C16.4851 24.4167 16.0256 24.8205 15.6512 25.3051Z" fill="#2862AC"/>
<path d="M27.6652 21.4781C28.6636 20.7413 31.8742 17.5613 32.4615 16.7275C33.1859 15.6999 33.1859 15.2733 32.4224 14.6528C31.7568 14.0905 31.2086 14.0323 30.4843 14.4395C29.6033 14.9436 29.3096 14.8273 29.3096 13.9935C29.3096 12.5781 28.5461 10.6584 27.1366 8.48676C26.8821 8.09896 26.5297 7.76933 26.3731 7.74994C26.0403 7.74994 22.4577 11.2208 22.4577 11.5504C22.4577 11.6473 22.7122 12.1515 23.045 12.6556C23.3582 13.1598 23.6715 13.7802 23.7498 14.0517C23.8476 14.4783 23.8085 14.5365 23.3778 14.5365C23.1037 14.5365 22.8101 14.4589 22.7513 14.3426C22.6926 14.2456 22.3011 14.1487 21.8899 14.1487C20.9698 14.1487 20.5 14.614 20.5 15.5447C20.5 16.4173 21.2831 17.4256 23.9847 20.0238C26.1577 22.0986 26.608 22.2731 27.6652 21.4781Z" fill="#2862AC"/>
<path d="M22.4301 9.49409C24.0121 8.29245 24.8136 7.29109 24.6449 6.69028C24.4761 6.00935 24.4761 6.00935 23.9488 6.16957C22.8097 6.51003 20.3208 9.19368 20.5106 9.8746C20.6793 10.4754 21.2699 10.3553 22.4301 9.49409Z" fill="#2862AC"/>
<path d="M14.3641 8.45502C15.2043 8.11319 16.0036 7.24857 16.2291 6.38396C16.393 5.76063 16.3725 5.4188 16.1061 4.71504C15.1838 2.38258 12.2326 2.04076 10.9824 4.15203C9.81425 6.08234 10.8595 8.21373 13.1344 8.55556C13.5238 8.61588 14.0771 8.57566 14.3641 8.45502Z" fill="#2862AC"/>
<path d="M19.5153 7.69482C20.6726 6.2006 20.8258 4.50446 19.8898 3.33332C19.3281 2.6064 18.9026 2.56602 18.2729 3.17178C17.6262 3.77754 17.1667 5.04965 17.1667 6.28137C17.1667 7.16982 17.2518 7.43232 17.6602 7.95731C17.9325 8.30058 18.307 8.58327 18.4942 8.58327C18.6814 8.58327 19.1409 8.17943 19.5153 7.69482Z" fill="#2862AC"/>
</svg>
