<svg width="36" height="36" viewBox="0 0 36 36" fill="none" xmlns="http://www.w3.org/2000/svg">
<path d="M18 0C14.2883 0.00425372 10.7298 1.49568 8.10515 4.14709C5.48056 6.79849 4.00421 10.3933 4 14.143C4 26.2449 16.7273 35.3848 17.2698 35.7673C17.4838 35.9188 17.7387 36 18 36C18.2613 36 18.5162 35.9188 18.7302 35.7673C19.2727 35.3848 32 26.2449 32 14.143C31.9958 10.3933 30.5194 6.79849 27.8948 4.14709C25.2702 1.49568 21.7117 0.00425372 18 0ZM18 9.00009C19.0069 9.00009 19.9912 9.30172 20.8284 9.86683C21.6656 10.4319 22.3181 11.2351 22.7034 12.1749C23.0887 13.1146 23.1895 14.1487 22.9931 15.1463C22.7967 16.144 22.3118 17.0603 21.5998 17.7796C20.8878 18.4988 19.9807 18.9886 18.9932 19.1871C18.0056 19.3855 16.982 19.2837 16.0518 18.8944C15.1216 18.5052 14.3265 17.846 13.7671 17.0002C13.2077 16.1545 12.9091 15.1602 12.9091 14.143C12.9091 12.779 13.4455 11.4709 14.4002 10.5064C15.3549 9.54193 16.6498 9.00009 18 9.00009Z" fill="#2862AC"/>
</svg>
