<svg width="14" height="14" viewBox="0 0 14 14" fill="none" xmlns="http://www.w3.org/2000/svg">
<path d="M8.45866 0H2.62533C2.23855 0 1.86762 0.1475 1.59413 0.41005C1.32064 0.672601 1.16699 1.0287 1.16699 1.4V12.6C1.16699 12.9713 1.32064 13.3274 1.59413 13.5899C1.86762 13.8525 2.23855 14 2.62533 14H11.3753C11.7621 14 12.133 13.8525 12.4065 13.5899C12.68 13.3274 12.8337 12.9713 12.8337 12.6V4.2L8.45866 0ZM5.17595 9.933C4.95064 10.136 4.61814 10.227 4.23095 10.227C4.15588 10.2278 4.08084 10.2236 4.00637 10.2144V11.2126H3.35449V8.4574C3.64868 8.41527 3.94593 8.39607 4.24335 8.4C4.64949 8.4 4.93824 8.4742 5.13293 8.6233C5.31814 8.7647 5.44355 8.9964 5.44355 9.2694C5.44283 9.5438 5.34803 9.7755 5.17595 9.933ZM7.95189 10.8815C7.64564 11.1258 7.1797 11.242 6.61022 11.242C6.26897 11.242 6.02762 11.221 5.86355 11.2V8.4581C6.15785 8.41686 6.45501 8.39744 6.75241 8.4C7.30439 8.4 7.66314 8.4952 7.94314 8.6982C8.24574 8.9138 8.43533 9.2575 8.43533 9.751C8.43533 10.2851 8.23189 10.654 7.95189 10.8815ZM10.6462 8.939H9.52908V9.5767H10.5732V10.0905H9.52908V11.2133H8.86845V8.421H10.6462V8.939ZM8.45866 4.9H7.72949V1.4L11.3753 4.9H8.45866Z" fill="white"/>
<path d="M4.27836 8.87578C4.14419 8.87578 4.05378 8.88838 4.00711 8.90098V9.72558C4.06253 9.73818 4.1318 9.74168 4.22732 9.74168C4.57659 9.74168 4.79169 9.57228 4.79169 9.28598C4.79169 9.02978 4.60649 8.87578 4.27836 8.87578ZM6.82096 8.88418C6.67513 8.88418 6.58034 8.89678 6.52419 8.90938V10.7364C6.58034 10.749 6.67076 10.749 6.75242 10.749C7.34815 10.7532 7.73607 10.4382 7.73607 9.77178C7.74044 9.19078 7.3868 8.88418 6.82096 8.88418Z" fill="white"/>
</svg>
