<svg width="34" height="34" viewBox="0 0 34 34" fill="none" xmlns="http://www.w3.org/2000/svg">
<rect width="34" height="34" rx="8" fill="#2862AC" fill-opacity="0.15"/>
<path d="M16.304 21.156L12.152 21.9034L12.844 17.696L22.1583 8.40938C22.287 8.27966 22.44 8.1767 22.6087 8.10644C22.7773 8.03618 22.9582 8 23.1409 8C23.3236 8 23.5045 8.03618 23.6732 8.10644C23.8418 8.1767 23.9949 8.27966 24.1236 8.40938L25.5906 9.87642C25.7203 10.0051 25.8233 10.1582 25.8936 10.3268C25.9638 10.4955 26 10.6764 26 10.8591C26 11.0418 25.9638 11.2227 25.8936 11.3913C25.8233 11.56 25.7203 11.713 25.5906 11.8417L16.304 21.156Z" fill="#2862AC"/>
<path d="M8 26H23.224M16.304 21.156L12.152 21.9034L12.844 17.696L22.1583 8.40938C22.287 8.27966 22.44 8.1767 22.6087 8.10644C22.7773 8.03618 22.9582 8 23.1409 8C23.3236 8 23.5045 8.03618 23.6732 8.10644C23.8418 8.1767 23.9949 8.27966 24.1236 8.40938L25.5906 9.87642C25.7203 10.0051 25.8233 10.1582 25.8936 10.3268C25.9638 10.4955 26 10.6764 26 10.8591C26 11.0418 25.9638 11.2227 25.8936 11.3913C25.8233 11.56 25.7203 11.713 25.5906 11.8417L16.304 21.156Z" stroke="#2862AC" stroke-linecap="round" stroke-linejoin="round"/>
</svg>
