<svg width="143" height="120" viewBox="0 0 143 120" fill="none" xmlns="http://www.w3.org/2000/svg">
<g clip-path="url(#clip0_131_2780)">
<path d="M104.357 51.1437C108.628 46.9334 113.783 44.8259 119.822 44.8211C125.861 44.8163 131.013 46.9158 135.277 51.1194C139.541 55.323 141.671 60.4014 141.666 66.3547C141.661 72.3079 139.523 77.3897 135.252 81.6001C130.981 85.8104 125.826 87.9179 119.787 87.9227C113.748 87.9275 108.597 85.828 104.333 81.6244C100.068 77.4208 97.9387 72.3424 97.9436 66.3891C97.9484 60.4359 100.086 55.3541 104.357 51.1437ZM27.0703 35.9643C29.1655 33.8989 31.7429 32.865 34.8027 32.8625C37.8625 32.8601 40.4383 33.89 42.5301 35.9521C44.622 38.0143 45.6667 40.5535 45.6642 43.5698C45.6618 46.5862 44.613 49.127 42.5178 51.1925C40.3823 53.2977 37.8048 54.3514 34.7853 54.3538C31.7658 54.3562 29.19 53.3065 27.0579 51.2047C24.9258 49.1029 23.861 46.5637 23.8634 43.587C23.8658 40.6104 24.9348 38.0695 27.0703 35.9643ZM88.9592 -25.0458C91.0544 -27.1113 93.6319 -28.1452 96.6916 -28.1476C99.7514 -28.15 102.327 -27.1201 104.419 -25.058C106.511 -22.9958 107.556 -20.4566 107.553 -17.4403C107.551 -14.424 106.502 -11.8831 104.407 -9.81764C102.271 -7.71247 99.6937 -6.6587 96.6742 -6.65632C93.6547 -6.65394 91.0789 -7.70365 88.9468 -9.80546C86.8148 -11.9073 85.7499 -14.4465 85.7523 -17.4231C85.7548 -20.3997 86.8237 -22.9406 88.9592 -25.0458ZM86.6859 22.8797L75.5048 33.902C75.1019 34.2992 74.8498 34.8253 74.7486 35.4803C74.6474 36.1352 74.7577 36.661 75.0795 37.0576L82.982 47.7077C82.0142 49.5341 81.1268 51.678 80.3196 54.1393C77.0178 54.6976 72.8907 55.1969 67.9384 55.6374C67.2136 55.7967 66.6699 56.0551 66.3072 56.4126C65.8237 56.8892 65.5818 57.4054 65.5813 57.961C65.2978 60.0647 65.1541 63.478 65.1503 68.201C65.1464 72.9239 65.5267 75.6621 66.291 76.4156C66.7335 76.8518 67.2969 77.1292 67.9813 77.2477L80.36 78.7262C81.0829 80.9482 82.0072 83.0907 83.1328 85.1536C79.2237 89.8796 76.5637 93.4139 75.1527 95.7567C74.4673 96.9875 74.5872 98.059 75.5124 98.9711L86.736 110.035C87.1785 110.472 87.7319 110.719 88.3961 110.778C89.0604 110.837 89.6141 110.688 90.0572 110.33L100.692 102.583C102.463 103.534 104.596 104.405 107.091 105.197L108.833 117.519C108.832 118.075 109.094 118.61 109.616 119.126C110.059 119.562 110.643 119.82 111.367 119.898C122.519 120.326 128.639 120.004 129.727 118.931C130.089 118.574 130.331 118.058 130.452 117.383C130.614 116.43 130.857 114.565 131.182 111.786C131.506 109.008 131.79 106.864 132.032 105.356C134.73 104.521 137.086 103.586 139.1 102.552L149.723 110.164C150.165 110.521 150.699 110.67 151.323 110.61C151.947 110.549 152.48 110.301 152.924 109.864L164.105 98.8418C164.508 98.4446 164.76 97.9185 164.861 97.2636C164.962 96.6086 164.852 96.0828 164.53 95.6862L156.628 85.0361C157.595 83.2097 158.483 81.0658 159.29 78.6045C162.592 78.0462 166.719 77.5469 171.671 77.1064C172.396 76.9471 172.94 76.6887 173.302 76.3312C173.786 75.8546 174.048 75.3186 174.089 74.7232C174.412 72.6592 174.556 69.2657 174.52 64.5428C174.483 59.8199 174.083 57.0817 173.319 56.3282C172.876 55.892 172.313 55.6147 171.628 55.4961L159.25 54.0176C158.607 51.9543 157.703 49.792 156.537 47.5307C160.446 42.8047 163.086 39.2902 164.457 36.9871C165.142 35.7563 165.022 34.6848 164.097 33.7727L152.874 22.7085C152.431 22.2722 151.878 22.0246 151.213 21.9656C150.549 21.9066 149.996 22.0559 149.552 22.4134L138.917 30.161C137.147 29.2099 135.014 28.3384 132.518 27.5467L130.777 15.2248C130.737 14.6295 130.476 14.0939 129.993 13.618C129.551 13.1818 128.967 12.9243 128.242 12.8455C117.091 12.4177 110.971 12.74 109.883 13.8125C109.561 14.1302 109.319 14.6464 109.157 15.3609C108.995 16.4723 108.752 18.3775 108.428 21.0766C108.104 23.7757 107.8 25.8595 107.517 27.3282C104.658 28.3227 102.322 29.2771 100.509 30.1913L89.9472 22.5199C89.4644 22.2028 88.9109 22.0743 88.2868 22.1343C87.6628 22.1943 87.1291 22.4428 86.6859 22.8797ZM15.8534 16.5656L7.39206 24.9068C6.74738 25.5423 9.11983 29.1124 14.5094 35.617C13.9042 37.1654 13.4601 38.7929 13.1769 40.4998C6.57222 42.9656 2.76622 44.6951 1.75892 45.6881C1.59775 45.847 1.53718 46.0653 1.57722 46.3431C3.62427 54.0013 4.68803 57.8701 4.76848 57.9494C5.09031 58.2667 6.96242 58.2454 10.3848 57.8855C13.8072 57.5256 16.2231 57.2062 17.6324 56.9272C18.3564 57.7998 18.9195 58.4344 19.3218 58.8309C19.7241 59.2275 20.3678 59.7826 21.2529 60.4963C20.97 61.8857 20.646 64.2672 20.2809 67.641C19.9158 71.0148 19.8942 72.8603 20.216 73.1776C20.2965 73.2569 24.221 74.3056 31.9895 76.3235C32.2713 76.363 32.4928 76.3033 32.654 76.1444C33.6613 75.1514 35.4156 71.3995 37.917 64.8886C39.6484 64.6094 41.2995 64.1716 42.8701 63.575C49.4684 68.888 53.0899 71.2268 53.7346 70.5913L62.196 62.25C62.8407 61.6145 60.4682 58.0444 55.0786 51.5398C55.7241 49.8724 56.1683 48.2448 56.4112 46.6571C63.0158 44.1912 66.8218 42.4617 67.8291 41.4687C67.9903 41.3099 68.0508 41.0915 68.0108 40.8137C67.9305 40.5757 67.6294 39.4845 67.1076 37.5402C66.5858 35.5958 66.0841 33.7507 65.6024 32.0048C65.1206 30.2589 64.8396 29.3463 64.7591 29.267C64.4373 28.9497 62.5752 28.9611 59.173 29.3011C55.7707 29.6412 53.365 29.9507 51.9556 30.2296C51.2317 29.357 50.6685 28.7224 50.2662 28.3259C49.864 27.9293 49.2203 27.3742 48.3351 26.6605C49.1442 21.8179 49.5501 17.7693 49.5528 14.5149L49.3116 14.0388C49.1507 13.8802 45.2463 12.8117 37.5985 10.8333C37.3167 10.7938 37.0952 10.8535 36.9341 11.0124C35.9268 12.0054 34.1724 15.7574 31.671 22.2682C30.0604 22.5076 28.4094 22.9455 26.718 23.5818C20.1196 18.2688 16.4981 15.93 15.8534 16.5656ZM77.7424 -44.4446L69.281 -36.1033C68.6363 -35.4678 71.0088 -31.8977 76.3983 -25.3931C75.7932 -23.8448 75.349 -22.2172 75.0658 -20.5104C68.4611 -18.0445 64.6552 -16.315 63.6479 -15.322C63.4867 -15.1632 63.4261 -14.9448 63.4662 -14.667C65.5132 -7.0088 66.577 -3.14002 66.6574 -3.06071C66.9793 -2.74345 68.8514 -2.76477 72.2738 -3.12466C75.6962 -3.48455 78.112 -3.80397 79.5213 -4.08289C80.2453 -3.21032 80.8084 -2.57576 81.2107 -2.17919C81.613 -1.78262 82.2567 -1.22749 83.1419 -0.513796C82.8589 0.875521 82.5349 3.25708 82.1698 6.63088C81.8047 10.0047 81.7831 11.8502 82.1049 12.1675C82.1854 12.2468 86.1099 13.2954 93.8785 15.3134C94.1602 15.3529 94.3817 15.2932 94.5429 15.1343C95.5502 14.1413 97.3045 10.3893 99.806 3.87847C101.537 3.59929 103.188 3.16142 104.759 2.56485C111.357 7.8779 114.979 10.2167 115.624 9.58113L124.085 1.23991C124.73 0.604383 122.357 -2.9657 116.968 -9.47035C117.613 -11.1378 118.057 -12.7653 118.3 -14.3531C124.905 -16.819 128.711 -18.5484 129.718 -19.5414C129.879 -19.7003 129.94 -19.9186 129.9 -20.1964C129.819 -20.4345 129.518 -21.5257 128.997 -23.47C128.475 -25.4143 127.973 -27.2594 127.491 -29.0053C127.01 -30.7512 126.729 -31.6638 126.648 -31.7432C126.326 -32.0604 124.464 -32.049 121.062 -31.709C117.66 -31.369 115.254 -31.0595 113.845 -30.7805C113.121 -31.6531 112.557 -32.2877 112.155 -32.6843C111.753 -33.0808 111.109 -33.636 110.224 -34.3496C111.033 -39.1923 111.439 -43.2408 111.442 -46.4952L111.201 -46.9713C111.04 -47.1299 107.135 -48.1985 99.4874 -50.1768C99.2057 -50.2163 98.9842 -50.1566 98.823 -49.9977C97.8157 -49.0047 96.0614 -45.2528 93.56 -38.7419C91.9494 -38.5025 90.2983 -38.0646 88.6069 -37.4283C82.0086 -42.7413 78.387 -45.0801 77.7424 -44.4446Z" fill="#DFE2E5"/>
</g>
<defs>
<clipPath id="clip0_131_2780">
<rect width="143" height="120" rx="12" transform="matrix(-1 0 0 1 143 0)" fill="white"/>
</clipPath>
</defs>
</svg>
