<svg width="250" height="304" viewBox="0 0 250 304" fill="none" xmlns="http://www.w3.org/2000/svg">
<g clip-path="url(#clip0_131_1875)">
<path d="M182.444 182.304C189.91 174.862 198.923 171.137 209.48 171.129C220.038 171.12 229.044 174.831 236.499 182.261C243.954 189.69 247.677 198.666 247.669 209.188C247.66 219.71 243.923 228.692 236.456 236.134C228.989 243.575 219.977 247.3 209.419 247.308C198.861 247.317 189.855 243.606 182.4 236.177C174.946 228.747 171.222 219.771 171.231 209.249C171.239 198.727 174.977 189.745 182.444 182.304ZM47.3264 155.475C50.9894 151.825 55.4955 149.997 60.8447 149.993C66.1939 149.989 70.6971 151.809 74.3542 155.454C78.0113 159.098 79.8377 163.586 79.8334 168.917C79.8291 174.249 77.9955 178.739 74.3326 182.39C70.5992 186.111 66.0931 187.973 60.8142 187.977C55.5354 187.982 51.0322 186.126 47.3048 182.411C43.5774 178.697 41.7158 174.209 41.7201 168.948C41.7243 163.687 43.5931 159.196 47.3264 155.475ZM155.524 47.6432C159.187 43.9926 163.693 42.1652 169.042 42.161C174.391 42.1567 178.895 43.9769 182.552 47.6217C186.209 51.2664 188.035 55.7543 188.031 61.0855C188.027 66.4167 186.193 70.9075 182.53 74.5581C178.797 78.2789 174.291 80.1413 169.012 80.1455C163.733 80.1497 159.23 78.2944 155.502 74.5796C151.775 70.8648 149.913 66.3769 149.917 61.1159C149.922 55.8549 151.791 51.364 155.524 47.6432ZM151.55 132.349L132.002 151.83C131.298 152.532 130.857 153.462 130.68 154.619C130.503 155.777 130.696 156.706 131.259 157.407L145.074 176.231C143.382 179.459 141.831 183.248 140.42 187.598C134.647 188.585 127.432 189.468 118.774 190.246C117.507 190.528 116.557 190.984 115.923 191.616C115.077 192.459 114.654 193.371 114.653 194.353C114.158 198.071 113.907 204.104 113.9 212.451C113.893 220.799 114.558 225.639 115.894 226.97C116.668 227.741 117.653 228.231 118.849 228.441L140.49 231.054C141.754 234.981 143.37 238.768 145.338 242.414C138.504 250.767 133.853 257.014 131.387 261.155C130.188 263.33 130.398 265.224 132.016 266.836L151.637 286.391C152.411 287.162 153.378 287.6 154.539 287.704C155.701 287.809 156.669 287.545 157.443 286.913L176.036 273.219C179.132 274.9 182.861 276.441 187.224 277.84L190.268 299.618C190.267 300.6 190.724 301.547 191.638 302.458C192.412 303.229 193.432 303.684 194.699 303.824C214.195 304.58 224.894 304.01 226.795 302.114C227.429 301.483 227.852 300.57 228.065 299.378C228.347 297.694 228.772 294.397 229.339 289.486C229.906 284.575 230.402 280.787 230.827 278.121C235.544 276.644 239.662 274.992 243.183 273.166L261.754 286.619C262.528 287.25 263.46 287.512 264.551 287.406C265.642 287.3 266.575 286.861 267.35 286.089L286.897 266.607C287.602 265.905 288.042 264.975 288.219 263.818C288.396 262.66 288.203 261.731 287.641 261.03L273.825 242.207C275.517 238.978 277.069 235.189 278.48 230.839C284.252 229.852 291.467 228.97 300.125 228.191C301.392 227.91 302.343 227.453 302.977 226.821C303.822 225.979 304.28 225.031 304.352 223.979C304.918 220.331 305.169 214.333 305.105 205.986C305.041 197.638 304.342 192.799 303.005 191.467C302.232 190.696 301.247 190.206 300.05 189.996L278.409 187.383C277.286 183.736 275.705 179.915 273.667 175.918C280.501 167.565 285.117 161.353 287.513 157.283C288.711 155.107 288.502 153.214 286.884 151.601L267.262 132.046C266.489 131.275 265.521 130.837 264.36 130.733C263.199 130.629 262.231 130.893 261.456 131.525L242.863 145.218C239.768 143.537 236.039 141.997 231.676 140.597L228.632 118.819C228.562 117.767 228.105 116.82 227.261 115.979C226.488 115.208 225.468 114.753 224.201 114.614C204.705 113.858 194.006 114.427 192.104 116.323C191.541 116.885 191.117 117.797 190.835 119.06C190.552 121.024 190.127 124.391 189.56 129.162C188.993 133.932 188.462 137.615 187.967 140.211C182.969 141.969 178.885 143.656 175.716 145.272L157.251 131.713C156.407 131.152 155.439 130.925 154.348 131.031C153.257 131.137 152.324 131.577 151.55 132.349ZM27.7166 121.189L12.924 135.932C11.7969 137.055 15.9446 143.365 25.3669 154.861C24.3089 157.598 23.5324 160.474 23.0373 163.491C11.4907 167.849 4.83689 170.906 3.07586 172.661C2.7941 172.942 2.68821 173.328 2.75819 173.819C6.33695 187.354 8.19667 194.192 8.33732 194.332C8.89995 194.893 12.1729 194.855 18.1561 194.219C24.1393 193.583 28.3628 193.019 30.8267 192.526C32.0924 194.068 33.0769 195.19 33.7802 195.89C34.4834 196.591 35.6088 197.573 37.1563 198.834C36.6616 201.289 36.0951 205.499 35.4569 211.462C34.8186 217.425 34.7808 220.687 35.3435 221.247C35.4841 221.388 42.3451 223.241 55.9265 226.808C56.4192 226.877 56.8064 226.772 57.0881 226.491C58.8492 224.736 61.9162 218.105 66.2893 206.597C69.3162 206.104 72.2026 205.33 74.9485 204.275C86.4841 213.666 92.8154 217.799 93.9424 216.676L108.735 201.934C109.862 200.81 105.714 194.5 96.2921 183.004C97.4206 180.057 98.1972 177.18 98.6217 174.374C110.168 170.016 116.822 166.959 118.583 165.204C118.865 164.923 118.971 164.537 118.901 164.046C118.76 163.625 118.234 161.697 117.322 158.26C116.41 154.824 115.532 151.563 114.69 148.477C113.848 145.391 113.357 143.778 113.216 143.638C112.653 143.077 109.398 143.097 103.45 143.698C97.5021 144.299 93.2962 144.846 90.8323 145.339C89.5666 143.797 88.5822 142.675 87.8789 141.975C87.1756 141.274 86.0502 140.292 84.5028 139.031C85.9173 130.472 86.6269 123.316 86.6315 117.564L86.2099 116.723C85.9286 116.443 79.1028 114.554 65.7325 111.057C65.2398 110.988 64.8527 111.093 64.5709 111.374C62.8099 113.129 59.7428 119.76 55.3697 131.268C52.554 131.691 49.6676 132.465 46.7105 133.59C35.175 124.199 28.8437 120.066 27.7166 121.189ZM135.914 13.357L121.121 28.0996C119.994 29.2229 124.142 35.5328 133.564 47.0294C132.506 49.766 131.73 52.6426 131.235 55.6593C119.688 60.0176 113.034 63.0743 111.273 64.8294C110.992 65.1102 110.886 65.4961 110.956 65.9871C114.534 79.5226 116.394 86.3604 116.535 86.5006C117.097 87.0613 120.37 87.0236 126.354 86.3875C132.337 85.7514 136.56 85.1869 139.024 84.6939C140.29 86.2361 141.274 87.3577 141.978 88.0586C142.681 88.7595 143.806 89.7407 145.354 91.0021C144.859 93.4576 144.293 97.6669 143.654 103.63C143.016 109.593 142.978 112.855 143.541 113.415C143.682 113.556 150.543 115.409 164.124 118.976C164.617 119.045 165.004 118.94 165.286 118.659C167.047 116.904 170.114 110.273 174.487 98.7652C177.514 98.2717 180.4 97.4978 183.146 96.4434C194.681 105.834 201.013 109.968 202.14 108.844L216.932 94.1017C218.06 92.9784 213.912 86.6685 204.49 75.1719C205.618 72.2248 206.395 69.3482 206.819 66.542C218.366 62.1837 225.02 59.127 226.781 57.3719C227.062 57.0911 227.168 56.7052 227.098 56.2142C226.958 55.7935 226.431 53.8648 225.519 50.4284C224.607 46.9919 223.73 43.7308 222.888 40.645C222.046 37.5592 221.554 35.9462 221.413 35.806C220.851 35.2453 217.596 35.2654 211.648 35.8664C205.7 36.4674 201.494 37.0144 199.03 37.5074C197.764 35.9651 196.78 34.8436 196.076 34.1427C195.373 33.4418 194.248 32.4606 192.7 31.1992C194.115 22.6401 194.824 15.4846 194.829 9.73255L194.407 8.89112C194.126 8.61077 187.3 6.72224 173.93 3.22554C173.437 3.15579 173.05 3.26133 172.768 3.54214C171.007 5.29721 167.94 11.9285 163.567 23.4361C160.751 23.8592 157.865 24.6331 154.908 25.7579C143.372 16.3674 137.041 12.2338 135.914 13.357Z" fill="#DFE2E5"/>
</g>
<defs>
<clipPath id="clip0_131_1875">
<path d="M250 0H12C5.37257 0 0 5.37258 0 12V292C0 298.627 5.37259 304 12 304H250V0Z" fill="white"/>
</clipPath>
</defs>
</svg>
