<svg display="none" xmlns="http://www.w3.org/2000/svg">

	<symbol id="arrow-bottom" viewBox="0 0 9 8">
		<g>
			<path
				d="M0.221634 1.25312C0.151406 1.33267 0.0956642 1.42732 0.0576244 1.5316C0.0195847 1.63587 -2.29584e-07 1.74772 -2.24646e-07 1.86069C-2.19709e-07 1.97365 0.0195847 2.0855 0.0576245 2.18978C0.0956642 2.29406 0.151406 2.3887 0.221634 2.46825L3.96801 6.74688C4.03767 6.82708 4.12054 6.89074 4.21185 6.93419C4.30315 6.97763 4.40109 7 4.5 7C4.59891 7 4.69685 6.97763 4.78815 6.93419C4.87946 6.89074 4.96233 6.82708 5.03199 6.74688L8.77836 2.46825C8.84859 2.3887 8.90434 2.29406 8.94238 2.18978C8.98042 2.0855 9 1.97365 9 1.86069C9 1.74772 8.98042 1.63587 8.94238 1.5316C8.90434 1.42732 8.84859 1.33267 8.77836 1.25312C8.70871 1.17292 8.62584 1.10926 8.53453 1.06581C8.44323 1.02237 8.34529 1 8.24638 1C8.14747 1 8.04953 1.02237 7.95823 1.06581C7.86692 1.10926 7.78405 1.17292 7.71439 1.25312L4.5 4.93274L1.28561 1.25312C1.21595 1.17292 1.13308 1.10926 1.04177 1.06581C0.950468 1.02237 0.852534 1 0.75362 1C0.654707 1 0.556772 1.02237 0.465466 1.06581C0.37416 1.10926 0.291289 1.17292 0.221634 1.25312Z"/>
		</g>
	</symbol>


</svg>