<svg display="none" xmlns="http://www.w3.org/2000/svg">
	<symbol id="search" viewBox="0 0 12 12">
		<g>
			<path
				d="M8.78087 7.18409C9.23 6.44644 9.46753 5.59945 9.46748 4.73583C9.46748 2.11957 7.35052 0.00104348 4.73374 0C2.1193 0.000782609 0 2.11957 0 4.7353C0 7.3487 2.11957 9.46722 4.7353 9.46722C5.6327 9.46722 6.46878 9.21365 7.1833 8.78035L10.4032 12L12 10.4024L8.78087 7.18409ZM4.73478 7.66435C3.11687 7.66043 1.80887 6.35296 1.806 4.73843C1.8071 3.96196 2.11601 3.2176 2.66501 2.66851C3.21401 2.11941 3.95831 1.81037 4.73478 1.80913C6.35191 1.8133 7.66043 3.12078 7.66383 4.73843C7.66043 6.35113 6.35139 7.66043 4.73478 7.66435Z" />
		</g>
	</symbol>

	<symbol id="arrow-bottom" viewBox="0 0 9 8">
		<g>
			<path
				d="M0.221634 1.25312C0.151406 1.33267 0.0956642 1.42732 0.0576244 1.5316C0.0195847 1.63587 -2.29584e-07 1.74772 -2.24646e-07 1.86069C-2.19709e-07 1.97365 0.0195847 2.0855 0.0576245 2.18978C0.0956642 2.29406 0.151406 2.3887 0.221634 2.46825L3.96801 6.74688C4.03767 6.82708 4.12054 6.89074 4.21185 6.93419C4.30315 6.97763 4.40109 7 4.5 7C4.59891 7 4.69685 6.97763 4.78815 6.93419C4.87946 6.89074 4.96233 6.82708 5.03199 6.74688L8.77836 2.46825C8.84859 2.3887 8.90434 2.29406 8.94238 2.18978C8.98042 2.0855 9 1.97365 9 1.86069C9 1.74772 8.98042 1.63587 8.94238 1.5316C8.90434 1.42732 8.84859 1.33267 8.77836 1.25312C8.70871 1.17292 8.62584 1.10926 8.53453 1.06581C8.44323 1.02237 8.34529 1 8.24638 1C8.14747 1 8.04953 1.02237 7.95823 1.06581C7.86692 1.10926 7.78405 1.17292 7.71439 1.25312L4.5 4.93274L1.28561 1.25312C1.21595 1.17292 1.13308 1.10926 1.04177 1.06581C0.950468 1.02237 0.852534 1 0.75362 1C0.654707 1 0.556772 1.02237 0.465466 1.06581C0.37416 1.10926 0.291289 1.17292 0.221634 1.25312Z" />
		</g>
	</symbol>
	<symbol id="prev" viewBox="0 0 16 16">
		<path d="M10.668 14L12 12.59L7.67341 8L12 3.41L10.668 2L5 8L10.668 14Z" />
	</symbol>

	<symbol id="next" viewBox="0 0 16 16">
		<path d="M5.33198 2L4 3.41L8.32659 8L4 12.59L5.33198 14L11 8L5.33198 2Z" />
	</symbol>

</svg>