<svg width="120" height="120" viewBox="0 0 120 120" fill="none" xmlns="http://www.w3.org/2000/svg">
<g clip-path="url(#clip0_12_2083)">
<path fill-rule="evenodd" clip-rule="evenodd" d="M93.3657 48.7007V46.4682V44.2358H91.1333H88.9009V46.4682V48.7007H91.1333H93.3657Z" fill="white"/>
<path fill-rule="evenodd" clip-rule="evenodd" d="M41.2112 -0.356453L66.5769 -0.412262H68.8093H71.0417H72.13H73.2462H86.6685L91.1608 -0.373199L93.0867 -0.356453C95.1517 -0.244835 96.0167 0.173744 97.105 1.65271L97.691 2.40615V55.3979V108.39L97.105 109.143C96.7981 109.562 96.1841 110.176 95.7656 110.482C95.0121 111.068 94.9563 111.068 55.4148 111.068C15.8734 111.068 15.8176 111.068 15.0641 110.482C14.6455 110.176 14.0316 109.562 13.7247 109.143L13.1387 108.39L13.1387 55.3979L13.1387 2.40615L13.7247 1.65271C14.0316 1.23413 14.6455 0.620224 15.0641 0.313263C15.8165 -0.271904 16.068 -0.272743 41.1034 -0.356094L41.2112 -0.356453ZM92.0962 13.0324V8.56764L39.788 8.51736H17.464V10.7498V12.9822H39.788L92.0962 13.0324ZM93.0104 21.8345V17.3697L39.788 17.447H17.464V19.6794V21.9118H39.788L93.0104 21.8345ZM93.3657 30.8414V28.609V26.3766H55.4148H17.464V28.609V30.8414H55.4148H93.3657ZM93.3657 39.771V37.5386V35.3062H55.4148H17.464L17.464 37.5386V39.771H55.4148H93.3657ZM84.4361 48.7007V46.4682V44.2358H50.95H17.464V46.4682V48.7007H50.95H84.4361ZM93.3657 48.7007V46.4682V44.2358H91.1333H88.9009V46.4682V48.7007H91.1333H93.3657ZM62.1121 59.8069C62.1121 57.5187 60.4657 54.8956 58.3728 53.8073C57.2287 53.2213 54.4103 53.0538 53.1545 53.5282C49.778 54.784 47.9921 58.3837 49.0525 61.8718C49.4432 63.2113 51.1733 65.2484 52.3453 65.7227C53.1266 66.0297 53.1824 66.1692 53.1824 67.425V68.7923H39.788H26.3936L26.3936 71.0247V73.2571H29.212C31.3607 73.2571 32.0025 73.3408 31.8909 73.592C31.8596 73.665 31.758 73.9215 31.6081 74.3001L31.6078 74.3008C31.3569 74.9346 30.9705 75.9103 30.5514 76.9406C29.4352 79.7869 29.3236 79.9543 28.5702 79.9543C28.0679 79.9543 27.4819 80.2334 27.0354 80.6799C26.3657 81.3496 26.3378 81.517 26.4773 83.2192C26.8401 87.098 29.1562 90.3908 32.7559 92.1768C34.7651 93.1534 35.0162 93.2092 37.5556 93.2092C40.095 93.2092 40.3461 93.1534 42.3553 92.1768C45.955 90.3908 48.2711 87.098 48.6339 83.2192C48.7734 81.517 48.7455 81.3496 48.0758 80.6799C47.6293 80.2334 47.0433 79.9543 46.541 79.9543C45.7876 79.9543 45.676 79.7869 44.5598 76.9406C44.1407 75.9103 43.7544 74.9346 43.5034 74.3008C43.3533 73.9218 43.2517 73.6651 43.2203 73.592C43.1087 73.3408 44.197 73.2571 48.1316 73.2571H53.1824V87.7677V102.278H48.7176H44.2528V104.511V106.743H55.4148H66.5769V104.511V102.278H62.1121H57.6473V87.7677V73.2571H62.6981C66.6327 73.2571 67.721 73.3408 67.6094 73.592C67.578 73.6651 67.4764 73.9218 67.3263 74.3008C67.0754 74.9346 66.689 75.9103 66.2699 76.9406C65.1537 79.7869 65.0421 79.9543 64.2887 79.9543C63.7864 79.9543 63.2004 80.2334 62.7539 80.6799C62.0842 81.3496 62.0563 81.517 62.1958 83.2192C62.5585 87.098 64.8747 90.3908 68.4744 92.1768C70.4836 93.1534 70.7347 93.2092 73.2741 93.2092C75.8134 93.2092 76.0646 93.1534 78.0738 92.1768C81.6735 90.3908 83.9896 87.098 84.3524 83.2192C84.4919 81.517 84.464 81.3496 83.7943 80.6799C83.3478 80.2334 82.7618 79.9543 82.2595 79.9543C81.5061 79.9543 81.3945 79.7869 80.2783 76.9406C79.8591 75.9103 79.4728 74.9346 79.2219 74.3008C79.0718 73.9218 78.9701 73.6651 78.9388 73.592C78.8272 73.3408 79.469 73.2571 81.6177 73.2571H84.4361V71.0247V68.7923H71.0417H57.6473V67.425C57.6473 66.1692 57.7031 66.0297 58.4844 65.7227C60.3819 64.9414 62.1121 62.123 62.1121 59.8069Z" fill="white"/>
<path fill-rule="evenodd" clip-rule="evenodd" d="M93.3657 48.7007V46.4682V44.2358H91.1333H88.9009V46.4682V48.7007H91.1333H93.3657Z" fill="white"/>
<path d="M53.8803 58.3305C52.485 59.6978 53.4617 62.0977 55.4151 62.0977C55.9453 62.0977 56.5313 61.8465 56.9499 61.4C57.3963 60.9815 57.6475 60.3954 57.6475 59.8653C57.6475 59.3351 57.3963 58.749 56.9499 58.3305C56.5313 57.884 55.9453 57.6328 55.4151 57.6328C54.8849 57.6328 54.2989 57.884 53.8803 58.3305Z" fill="white"/>
<path d="M35.6303 76.2457C34.9605 77.92 34.3745 79.4268 34.2908 79.5943C34.1792 79.8733 34.9326 79.957 37.5557 79.957C40.1788 79.957 40.9322 79.8733 40.8206 79.5943C40.7369 79.4268 40.1509 77.92 39.4812 76.2457C38.3929 73.4831 38.2533 73.2598 37.5557 73.2598C36.8581 73.2598 36.7186 73.4831 35.6303 76.2457Z" fill="white"/>
<path d="M71.349 76.2457C70.6793 77.92 70.0933 79.4268 70.0096 79.5943C69.8979 79.8733 70.6514 79.957 73.2745 79.957C75.8975 79.957 76.651 79.8733 76.5394 79.5943C76.4556 79.4268 75.8696 77.92 75.1999 76.2457C74.1116 73.4831 73.9721 73.2598 73.2745 73.2598C72.5768 73.2598 72.4373 73.4831 71.349 76.2457Z" fill="white"/>
<path d="M31.416 84.8687C31.416 85.6221 34.2344 88.1894 35.4902 88.5522C38.1411 89.3335 40.1782 88.7754 42.2432 86.7383C44.5872 84.3943 44.643 84.4222 37.5551 84.4222C32.1695 84.4222 31.416 84.478 31.416 84.8687Z" fill="white"/>
<path d="M67.1348 84.8687C67.1348 85.6221 69.9532 88.1894 71.2089 88.5522C73.8599 89.3335 75.897 88.7754 77.9619 86.7383C80.306 84.3943 80.3618 84.4222 73.2739 84.4222C67.8882 84.4222 67.1348 84.478 67.1348 84.8687Z" fill="white"/>
<path d="M102.24 58.7763L102.156 109.117L101.402 110.54C100.286 112.661 99.4491 113.526 97.4958 114.586L95.7378 115.535L58.7915 115.619L21.873 115.675L22.0405 116.596C22.2358 117.656 22.9055 118.633 23.9938 119.414C24.7473 120 24.8031 120 64.3446 120C103.886 120 103.942 120 104.695 119.414C105.114 119.107 105.728 118.493 106.035 118.075L106.621 117.321V64.3294V11.3377L106.035 10.5842C105.253 9.49593 104.277 8.8262 103.216 8.63087L102.295 8.46344L102.24 58.7763Z" fill="white"/>
</g>
<defs>
<clipPath id="clip0_12_2083">
<rect width="120" height="120" rx="12" fill="white"/>
</clipPath>
</defs>
</svg>
