<svg width="64" height="64" viewBox="0 0 64 64" fill="none" xmlns="http://www.w3.org/2000/svg">
<g clip-path="url(#clip0_27_96)">
<path fill-rule="evenodd" clip-rule="evenodd" d="M49.7951 25.9737V24.7831V23.5924H48.6045H47.4139V24.7831V25.9737H48.6045H49.7951Z" fill="#2862AC"/>
<path fill-rule="evenodd" clip-rule="evenodd" d="M21.9793 -0.190121L35.5077 -0.219887H36.6983H37.8889H38.4694H39.0647H46.2232L48.6191 -0.199055L49.6463 -0.190121C50.7476 -0.130592 51.2089 0.0926476 51.7894 0.881432L52.1019 1.28327V29.5455L52.1019 57.8078L51.7894 58.2096C51.6257 58.4328 51.2982 58.7603 51.075 58.924C50.6732 59.2365 50.6434 59.2365 29.5546 59.2365C8.46583 59.2365 8.43606 59.2365 8.03423 58.924C7.81099 58.7603 7.48357 58.4328 7.31986 58.2096L7.00732 57.8078L7.00732 29.5455L7.00732 1.28327L7.31986 0.881432C7.48357 0.658192 7.81099 0.330772 8.03423 0.167061C8.43549 -0.145027 8.56962 -0.145477 21.9218 -0.18993L21.9793 -0.190121ZM49.118 6.95063V4.5694L21.2203 4.54258H9.31414V5.7332V6.92381H21.2203L49.118 6.95063ZM49.6056 11.645V9.2638L21.2203 9.30504H9.31414V10.4957V11.6863H21.2203L49.6056 11.645ZM49.7951 16.4487V15.2581V14.0675H29.5546H9.31414V15.2581V16.4487H29.5546H49.7951ZM49.7951 21.2112V20.0206V18.83H29.5546H9.31414V20.0206L9.31414 21.2112H29.5546H49.7951ZM45.0326 25.9737V24.7831V23.5924H27.1734H9.31414V24.7831V25.9737H27.1734H45.0326ZM49.7951 25.9737V24.7831V23.5924H48.6045H47.4139V24.7831V25.9737H48.6045H49.7951ZM33.1265 31.897C33.1265 30.6766 32.2484 29.2776 31.1322 28.6972C30.522 28.3847 29.0188 28.2954 28.3491 28.5484C26.5483 29.2181 25.5958 31.138 26.1614 32.9983C26.3697 33.7127 27.2924 34.7991 27.9175 35.0521C28.3342 35.2158 28.364 35.2902 28.364 35.96V36.6892H21.2203H14.0766V37.8798V39.0704H15.5798C16.7257 39.0704 17.068 39.1151 17.0085 39.249C16.9918 39.288 16.9376 39.4248 16.8577 39.6267L16.8575 39.6271C16.7237 39.9651 16.5177 40.4855 16.2941 41.035C15.6988 42.553 15.6393 42.6423 15.2375 42.6423C14.9696 42.6423 14.657 42.7911 14.4189 43.0292C14.0617 43.3864 14.0468 43.4757 14.1213 44.3836C14.3147 46.4523 15.55 48.2084 17.4699 49.1609C18.5414 49.6818 18.6754 49.7116 20.0297 49.7116C21.384 49.7116 21.518 49.6818 22.5895 49.1609C24.5094 48.2084 25.7446 46.4523 25.9381 44.3836C26.0125 43.4757 25.9977 43.3864 25.6405 43.0292C25.4023 42.7911 25.0898 42.6423 24.8219 42.6423C24.4201 42.6423 24.3606 42.553 23.7652 41.035C23.5417 40.4855 23.3357 39.9651 23.2018 39.6271C23.1218 39.425 23.0676 39.288 23.0509 39.249C22.9913 39.1151 23.5718 39.0704 25.6702 39.0704H28.364L28.364 46.8095V54.5485H25.9828H23.6015V55.7391V56.9297H29.5546H35.5077V55.7391V54.5485H33.1265H30.7452V46.8095L30.7452 39.0704H33.439C35.5375 39.0704 36.1179 39.1151 36.0584 39.249C36.0416 39.288 35.9874 39.425 35.9074 39.6271C35.7736 39.9651 35.5675 40.4855 35.344 41.035C34.7487 42.553 34.6891 42.6423 34.2873 42.6423C34.0194 42.6423 33.7069 42.7911 33.4688 43.0292C33.1116 43.3864 33.0967 43.4757 33.1711 44.3836C33.3646 46.4523 34.5998 48.2084 36.5197 49.1609C37.5913 49.6818 37.7252 49.7116 39.0795 49.7116C40.4339 49.7116 40.5678 49.6818 41.6394 49.1609C43.5592 48.2084 44.7945 46.4523 44.988 44.3836C45.0624 43.4757 45.0475 43.3864 44.6903 43.0292C44.4522 42.7911 44.1397 42.6423 43.8718 42.6423C43.4699 42.6423 43.4104 42.553 42.8151 41.035C42.5916 40.4855 42.3855 39.9651 42.2517 39.6271C42.1717 39.425 42.1174 39.288 42.1007 39.249C42.0412 39.1151 42.3835 39.0704 43.5295 39.0704H45.0326V37.8798V36.6892H37.8889H30.7452V35.96C30.7452 35.2902 30.775 35.2158 31.1917 35.0521C32.2037 34.6354 33.1265 33.1322 33.1265 31.897Z" fill="#2862AC"/>
<path fill-rule="evenodd" clip-rule="evenodd" d="M49.7951 25.9737V24.7831V23.5924H48.6045H47.4139V24.7831V25.9737H48.6045H49.7951Z" fill="#2862AC"/>
<path d="M28.736 31.1096C27.9918 31.8389 28.5127 33.1188 29.5545 33.1188C29.8373 33.1188 30.1498 32.9848 30.3731 32.7467C30.6112 32.5235 30.7451 32.2109 30.7451 31.9282C30.7451 31.6454 30.6112 31.3329 30.3731 31.1096C30.1498 30.8715 29.8373 30.7375 29.5545 30.7375C29.2717 30.7375 28.9592 30.8715 28.736 31.1096Z" fill="#2862AC"/>
<path d="M19.003 40.6643C18.6458 41.5573 18.3332 42.361 18.2886 42.4503C18.2291 42.5991 18.6309 42.6437 20.0299 42.6437C21.4288 42.6437 21.8307 42.5991 21.7711 42.4503C21.7265 42.361 21.414 41.5573 21.0568 40.6643C20.4763 39.191 20.4019 39.0719 20.0299 39.0719C19.6578 39.0719 19.5834 39.191 19.003 40.6643Z" fill="#2862AC"/>
<path d="M38.0528 40.6643C37.6956 41.5573 37.383 42.361 37.3384 42.4503C37.2789 42.5991 37.6807 42.6437 39.0797 42.6437C40.4786 42.6437 40.8805 42.5991 40.8209 42.4503C40.7763 42.361 40.4638 41.5573 40.1066 40.6643C39.5261 39.191 39.4517 39.0719 39.0797 39.0719C38.7076 39.0719 38.6332 39.191 38.0528 40.6643Z" fill="#2862AC"/>
<path d="M16.7554 45.2633C16.7554 45.6651 18.2585 47.0343 18.9282 47.2278C20.3421 47.6445 21.4285 47.3469 22.5299 46.2604C23.78 45.0103 23.8098 45.0252 20.0296 45.0252C17.1572 45.0252 16.7554 45.0549 16.7554 45.2633Z" fill="#2862AC"/>
<path d="M35.8052 45.2633C35.8052 45.6651 37.3083 47.0343 37.9781 47.2278C39.3919 47.6445 40.4783 47.3469 41.5797 46.2604C42.8298 45.0103 42.8596 45.0252 39.0794 45.0252C36.207 45.0252 35.8052 45.0549 35.8052 45.2633Z" fill="#2862AC"/>
<path d="M54.528 31.3473L54.4833 58.1957L54.0815 58.9548C53.4862 60.0858 53.0397 60.5472 51.9979 61.1128L51.0603 61.6188L31.3556 61.6634L11.6658 61.6932L11.7551 62.1843C11.8592 62.7499 12.2164 63.2707 12.7969 63.6875C13.1987 64 13.2285 64 34.3172 64C55.406 64 55.4358 64 55.8376 63.6875C56.0609 63.5238 56.3883 63.1963 56.552 62.9731L56.8645 62.5713V34.309L56.8645 6.04675L56.552 5.64492C56.1353 5.06449 55.6144 4.70731 55.0489 4.60313L54.5577 4.51383L54.528 31.3473Z" fill="#2862AC"/>
</g>
<defs>
<clipPath id="clip0_27_96">
<rect width="64" height="64" rx="12" fill="white"/>
</clipPath>
</defs>
</svg>
