<svg width="77" height="122" viewBox="0 0 77 122" fill="none" xmlns="http://www.w3.org/2000/svg">
<g opacity="0.1">
<g clip-path="url(#clip0_131_1555)">
<path d="M121.937 95.8709L73.6452 11.6447C72.4385 9.58119 70.7157 7.87023 68.6476 6.68141C66.5796 5.49259 64.2381 4.86719 61.8552 4.86719C59.4723 4.86719 57.1308 5.49259 55.0628 6.68141C52.9948 7.87023 51.272 9.58119 50.0652 11.6447L1.77305 95.8709C0.611914 97.8668 0 100.137 0 102.448C0 104.76 0.611914 107.03 1.77305 109.026C2.96437 111.102 4.68422 112.822 6.75612 114.01C8.82802 115.198 11.1774 115.811 13.5631 115.786H110.147C112.531 115.809 114.878 115.195 116.948 114.007C119.018 112.819 120.736 111.1 121.926 109.026C123.089 107.031 123.703 104.761 123.705 102.45C123.707 100.138 123.097 97.8678 121.937 95.8709ZM114.278 104.584C113.857 105.305 113.253 105.901 112.527 106.31C111.801 106.719 110.98 106.927 110.147 106.913H13.5631C12.7307 106.927 11.9095 106.719 11.1837 106.31C10.4578 105.901 9.85342 105.305 9.43242 104.584C9.05107 103.935 8.84992 103.196 8.84992 102.443C8.84992 101.69 9.05107 100.951 9.43242 100.302L57.7246 16.0759C58.1541 15.3581 58.7612 14.7641 59.487 14.3518C60.2127 13.9394 61.0324 13.7227 61.8663 13.7227C62.7001 13.7227 63.5198 13.9394 64.2455 14.3518C64.9713 14.7641 65.5785 15.3581 66.008 16.0759L114.3 100.302C114.678 100.952 114.875 101.693 114.872 102.446C114.868 103.199 114.663 103.937 114.278 104.584ZM57.4374 71.4189V49.2351C57.4374 48.0584 57.9029 46.9299 58.7314 46.0978C59.5599 45.2658 60.6835 44.7983 61.8552 44.7983C63.0269 44.7983 64.1506 45.2658 64.9791 46.0978C65.8076 46.9299 66.273 48.0584 66.273 49.2351V71.4189C66.273 72.5956 65.8076 73.7241 64.9791 74.5561C64.1506 75.3882 63.0269 75.8556 61.8552 75.8556C60.6835 75.8556 59.5599 75.3882 58.7314 74.5561C57.9029 73.7241 57.4374 72.5956 57.4374 71.4189ZM68.4819 91.3842C68.4819 92.7005 68.0933 93.9872 67.3651 95.0816C66.637 96.1761 65.602 97.0291 64.3911 97.5328C63.1803 98.0365 61.8479 98.1683 60.5624 97.9115C59.277 97.6547 58.0962 97.0209 57.1694 96.0901C56.2427 95.1594 55.6115 93.9736 55.3558 92.6826C55.1001 91.3916 55.2314 90.0535 55.7329 88.8374C56.2345 87.6214 57.0839 86.582 58.1736 85.8507C59.2634 85.1194 60.5446 84.7291 61.8552 84.7291C63.6127 84.7291 65.2983 85.4303 66.541 86.6784C67.7838 87.9264 68.4819 89.6192 68.4819 91.3842Z" fill="#0E0E0E"/>
</g>
</g>
<defs>
<clipPath id="clip0_131_1555">
<path d="M0 0H65C71.6274 0 77 5.37258 77 12V110C77 116.627 71.6274 122 65 122H0V0Z" fill="white"/>
</clipPath>
</defs>
</svg>
