<svg width="140" height="203" viewBox="0 0 140 203" fill="none" xmlns="http://www.w3.org/2000/svg">
<g clip-path="url(#clip0_1_4405)">
<path d="M199.5 159.522L120.49 19.375C118.515 15.9414 115.697 13.0945 112.313 11.1164C108.93 9.13829 105.099 8.09766 101.2 8.09766C97.3018 8.09766 93.4709 9.13829 90.0874 11.1164C86.7039 13.0945 83.8852 15.9414 81.9109 19.375L2.90085 159.522C1.00114 162.843 0 166.62 0 170.466C0 174.313 1.00114 178.09 2.90085 181.411C4.84995 184.865 7.66377 187.728 11.0536 189.704C14.4434 191.681 18.2871 192.701 22.1903 192.66H180.21C184.111 192.698 187.951 191.676 191.337 189.7C194.723 187.723 197.534 184.862 199.482 181.411C201.384 178.091 202.388 174.315 202.392 170.469C202.395 166.623 201.397 162.845 199.5 159.522ZM186.968 174.019C186.28 175.219 185.291 176.211 184.103 176.892C182.916 177.573 181.572 177.919 180.21 177.895H22.1903C20.8286 177.919 19.485 177.573 18.2975 176.892C17.1099 176.211 16.121 175.219 15.4322 174.019C14.8083 172.94 14.4792 171.71 14.4792 170.457C14.4792 169.204 14.8083 167.974 15.4322 166.895L94.4422 26.7482C95.1449 25.5538 96.1383 24.5655 97.3257 23.8794C98.5131 23.1933 99.8542 22.8327 101.218 22.8327C102.583 22.8327 103.924 23.1933 105.111 23.8794C106.299 24.5655 107.292 25.5538 107.995 26.7482L187.005 166.895C187.623 167.977 187.946 169.209 187.94 170.462C187.933 171.715 187.598 172.944 186.968 174.019ZM93.9724 118.835V81.9229C93.9724 79.965 94.7339 78.0872 96.0894 76.7027C97.4449 75.3183 99.2834 74.5405 101.2 74.5405C103.117 74.5405 104.956 75.3183 106.311 76.7027C107.667 78.0872 108.428 79.965 108.428 81.9229V118.835C108.428 120.793 107.667 122.671 106.311 124.055C104.956 125.44 103.117 126.218 101.2 126.218C99.2834 126.218 97.4449 125.44 96.0894 124.055C94.7339 122.671 93.9724 120.793 93.9724 118.835ZM112.042 152.056C112.042 154.247 111.406 156.387 110.215 158.209C109.024 160.03 107.33 161.449 105.349 162.287C103.368 163.125 101.188 163.345 99.0852 162.917C96.9821 162.49 95.0503 161.435 93.534 159.887C92.0177 158.338 90.9851 156.365 90.5668 154.217C90.1485 152.069 90.3632 149.842 91.1838 147.819C92.0044 145.795 93.394 144.066 95.1769 142.849C96.9599 141.632 99.056 140.983 101.2 140.983C104.076 140.983 106.833 142.149 108.867 144.226C110.9 146.303 112.042 149.119 112.042 152.056Z" fill="#D92A2A"/>
<path fill-rule="evenodd" clip-rule="evenodd" d="M186.968 174.019C186.28 175.219 185.291 176.211 184.103 176.892C182.916 177.573 181.572 177.919 180.21 177.895H22.1903C20.8286 177.919 19.485 177.573 18.2975 176.892C17.1099 176.211 16.121 175.219 15.4322 174.019C14.8083 172.94 14.4792 171.71 14.4792 170.457C14.4792 169.204 14.8083 167.974 15.4322 166.895L94.4422 26.7482C95.1449 25.5538 96.1383 24.5655 97.3257 23.8794C98.5131 23.1933 99.8542 22.8327 101.218 22.8327C102.583 22.8327 103.924 23.1933 105.111 23.8794C106.299 24.5655 107.292 25.5538 107.995 26.7482L187.005 166.895C187.623 167.977 187.946 169.209 187.94 170.462C187.933 171.715 187.598 172.944 186.968 174.019ZM93.9724 81.9229V118.835C93.9724 120.793 94.7339 122.671 96.0894 124.055C97.4449 125.44 99.2834 126.218 101.2 126.218C103.117 126.218 104.956 125.44 106.311 124.055C107.667 122.671 108.428 120.793 108.428 118.835V81.9229C108.428 79.965 107.667 78.0872 106.311 76.7027C104.956 75.3183 103.117 74.5405 101.2 74.5405C99.2834 74.5405 97.4449 75.3183 96.0894 76.7027C94.7339 78.0872 93.9724 79.965 93.9724 81.9229ZM110.215 158.209C111.406 156.387 112.042 154.247 112.042 152.056C112.042 149.119 110.9 146.303 108.867 144.226C106.833 142.149 104.076 140.983 101.2 140.983C99.056 140.983 96.9599 141.632 95.1769 142.849C93.394 144.066 92.0044 145.795 91.1838 147.819C90.3632 149.842 90.1485 152.069 90.5668 154.217C90.9851 156.365 92.0177 158.338 93.534 159.887C95.0503 161.435 96.9821 162.49 99.0852 162.917C101.188 163.345 103.368 163.125 105.349 162.287C107.33 161.449 109.024 160.03 110.215 158.209Z" fill="white"/>
</g>
<defs>
<clipPath id="clip0_1_4405">
<path d="M0 0H128C134.627 0 140 5.37258 140 12V191C140 197.627 134.627 203 128 203H0V0Z" fill="white"/>
</clipPath>
</defs>
</svg>
