<svg width="46" height="46" viewBox="0 0 46 46" fill="none" xmlns="http://www.w3.org/2000/svg">
<g clip-path="url(#clip0_1_2903)">
<path d="M45.4307 36.0999L27.4383 4.18529C26.9887 3.4034 26.3468 2.75509 25.5763 2.30463C24.8058 1.85416 23.9334 1.61719 23.0456 1.61719C22.1578 1.61719 21.2854 1.85416 20.5149 2.30463C19.7444 2.75509 19.1026 3.4034 18.653 4.18529L0.66059 36.0999C0.227983 36.8562 0 37.7164 0 38.5922C0 39.4681 0.227983 40.3283 0.66059 41.0846C1.10444 41.8712 1.74522 42.523 2.51715 42.9732C3.28909 43.4234 4.16439 43.6556 5.05324 43.6462H41.038C41.9262 43.6549 42.8006 43.4223 43.5718 42.9721C44.3429 42.522 44.983 41.8706 45.4265 41.0846C45.8598 40.3287 46.0885 39.4687 46.0892 38.5928C46.0899 37.7169 45.8626 36.8566 45.4307 36.0999ZM42.577 39.4013C42.4201 39.6746 42.1949 39.9003 41.9245 40.0554C41.6541 40.2105 41.3481 40.2894 41.038 40.2839H5.05324C4.74314 40.2894 4.43718 40.2105 4.16675 40.0554C3.89631 39.9003 3.67112 39.6746 3.51427 39.4013C3.37219 39.1556 3.29725 38.8755 3.29725 38.5901C3.29725 38.3048 3.37219 38.0247 3.51427 37.779L21.5067 5.86435C21.6667 5.59236 21.8929 5.3673 22.1633 5.21105C22.4337 5.05481 22.7391 4.97269 23.0497 4.97269C23.3604 4.97269 23.6658 5.05481 23.9362 5.21105C24.2066 5.3673 24.4328 5.59236 24.5928 5.86435L42.5852 37.779C42.726 38.0254 42.7996 38.3059 42.7981 38.5913C42.7967 38.8766 42.7203 39.1564 42.577 39.4013ZM21.3997 26.8347V18.4289C21.3997 17.983 21.5731 17.5554 21.8818 17.2401C22.1904 16.9248 22.6091 16.7477 23.0456 16.7477C23.4822 16.7477 23.9008 16.9248 24.2095 17.2401C24.5182 17.5554 24.6916 17.983 24.6916 18.4289V26.8347C24.6916 27.2805 24.5182 27.7081 24.2095 28.0234C23.9008 28.3387 23.4822 28.5158 23.0456 28.5158C22.6091 28.5158 22.1904 28.3387 21.8818 28.0234C21.5731 27.7081 21.3997 27.2805 21.3997 26.8347ZM25.5146 34.3999C25.5146 34.8986 25.3698 35.3862 25.0985 35.8009C24.8272 36.2156 24.4416 36.5388 23.9904 36.7296C23.5393 36.9205 23.0429 36.9704 22.564 36.8731C22.085 36.7758 21.6451 36.5357 21.2998 36.183C20.9545 35.8303 20.7194 35.381 20.6241 34.8918C20.5289 34.4027 20.5778 33.8956 20.7646 33.4348C20.9515 32.974 21.2679 32.5802 21.674 32.3031C22.08 32.026 22.5573 31.8781 23.0456 31.8781C23.7004 31.8781 24.3284 32.1438 24.7914 32.6167C25.2544 33.0896 25.5146 33.7311 25.5146 34.3999Z" fill="#D92A2A"/>
<path fill-rule="evenodd" clip-rule="evenodd" d="M42.577 39.4013C42.4201 39.6746 42.1949 39.9003 41.9245 40.0554C41.6541 40.2105 41.3481 40.2894 41.038 40.2839H5.05324C4.74314 40.2894 4.43718 40.2105 4.16675 40.0554C3.89631 39.9003 3.67112 39.6746 3.51427 39.4013C3.37219 39.1556 3.29725 38.8755 3.29725 38.5901C3.29725 38.3048 3.37219 38.0247 3.51427 37.779L21.5067 5.86435C21.6667 5.59236 21.8929 5.3673 22.1633 5.21105C22.4337 5.05481 22.7391 4.97269 23.0497 4.97269C23.3604 4.97269 23.6658 5.05481 23.9362 5.21105C24.2066 5.3673 24.4328 5.59236 24.5928 5.86435L42.5852 37.779C42.726 38.0254 42.7996 38.3059 42.7981 38.5913C42.7967 38.8766 42.7203 39.1564 42.577 39.4013ZM21.3997 18.4289V26.8347C21.3997 27.2805 21.5731 27.7081 21.8818 28.0234C22.1904 28.3387 22.6091 28.5158 23.0456 28.5158C23.4822 28.5158 23.9008 28.3387 24.2095 28.0234C24.5182 27.7081 24.6916 27.2805 24.6916 26.8347V18.4289C24.6916 17.983 24.5182 17.5554 24.2095 17.2401C23.9008 16.9248 23.4822 16.7477 23.0456 16.7477C22.6091 16.7477 22.1904 16.9248 21.8818 17.2401C21.5731 17.5554 21.3997 17.983 21.3997 18.4289ZM25.0985 35.8009C25.3698 35.3862 25.5146 34.8986 25.5146 34.3999C25.5146 33.7311 25.2544 33.0896 24.7914 32.6167C24.3284 32.1438 23.7004 31.8781 23.0456 31.8781C22.5573 31.8781 22.08 32.026 21.674 32.3031C21.2679 32.5802 20.9515 32.974 20.7646 33.4348C20.5778 33.8956 20.5289 34.4027 20.6241 34.8918C20.7194 35.381 20.9545 35.8303 21.2998 36.183C21.6451 36.5357 22.085 36.7758 22.564 36.8731C23.0429 36.9704 23.5393 36.9205 23.9904 36.7296C24.4416 36.5388 24.8272 36.2156 25.0985 35.8009Z" fill="white"/>
</g>
<defs>
<clipPath id="clip0_1_2903">
<rect width="46" height="46" fill="white"/>
</clipPath>
</defs>
</svg>
