<svg xmlns="http://www.w3.org/2000/svg" width="376" height="506" viewBox="0 0 376 506" fill="none">
  <path fill-rule="evenodd" clip-rule="evenodd" d="M562.705 493.296C560.459 497.204 557.234 500.432 553.361 502.65C549.489 504.867 545.107 505.995 540.667 505.917H25.3627C20.922 505.995 16.5407 504.867 12.6681 502.65C8.79543 500.432 5.57072 497.204 3.32457 493.296C1.28999 489.782 0.216766 485.777 0.216766 481.697C0.216766 477.616 1.28999 473.611 3.32457 470.097L260.977 13.7324C263.268 9.84316 266.507 6.62491 270.38 4.39065C274.252 2.15638 278.625 0.982159 283.074 0.982159C287.523 0.982159 291.896 2.15638 295.768 4.39065C299.64 6.62491 302.879 9.84316 305.171 13.7324L562.823 470.097C564.839 473.621 565.892 477.633 565.872 481.713C565.851 485.793 564.757 489.793 562.705 493.296ZM259.445 193.4V313.598C259.445 319.974 261.928 326.089 266.348 330.597C270.768 335.105 276.764 337.638 283.015 337.638C289.266 337.638 295.261 335.105 299.681 330.597C304.102 326.089 306.585 319.974 306.585 313.598V193.4C306.585 187.024 304.102 180.909 299.681 176.401C295.261 171.893 289.266 169.36 283.015 169.36C276.764 169.36 270.768 171.893 266.348 176.401C261.928 180.909 259.445 187.024 259.445 193.4ZM312.412 441.811C316.297 435.881 318.37 428.909 318.37 421.777C318.37 412.214 314.645 403.042 308.015 396.279C301.384 389.517 292.392 385.718 283.015 385.718C276.022 385.718 269.187 387.833 263.372 391.795C257.558 395.757 253.027 401.389 250.351 407.978C247.675 414.567 246.975 421.817 248.339 428.812C249.703 435.807 253.07 442.232 258.015 447.275C262.959 452.318 269.259 455.753 276.117 457.144C282.975 458.535 290.084 457.821 296.545 455.092C303.005 452.363 308.527 447.741 312.412 441.811Z" fill="white"/>
</svg>